M48
; DRILL file {KiCad (5.1.8)-1} date 02/03/21 20:38:15
; FORMAT={-:-/ absolute / inch / decimal}
; #@! TF.CreationDate,2021-02-03T20:38:15+01:00
; #@! TF.GenerationSoftware,Kicad,Pcbnew,(5.1.8)-1
; #@! TF.FileFunction,Plated,1,4,PTH
FMAT,2
INCH
T1C0.0118
T2C0.0120
T3C0.0157
T4C0.0236
T5C0.0256
T6C0.0295
T7C0.0394
%
G90
G05
T1
X6.5925Y-4.405
X6.5925Y-4.445
X6.615Y-4.405
X6.615Y-4.445
X6.6375Y-4.405
X6.6375Y-4.445
X7.1625Y-4.21
X7.1625Y-4.2325
X7.1625Y-4.255
X7.205Y-4.21
X7.205Y-4.2325
X7.205Y-4.255
X4.7878Y-3.5636
X4.7878Y-3.6358
X4.8239Y-3.5274
X4.8239Y-3.5997
X4.8239Y-3.6719
X4.86Y-3.5636
X4.86Y-3.6358
X4.8962Y-3.5274
X4.8962Y-3.5997
X4.8962Y-3.6719
X4.9323Y-3.5636
X4.9323Y-3.6358
X6.8087Y-3.556
X6.8087Y-3.5973
X6.8087Y-3.6387
X6.8087Y-3.68
X6.851Y-3.556
X6.851Y-3.5973
X6.851Y-3.6387
X6.851Y-3.68
X6.8933Y-3.556
X6.8933Y-3.5973
X6.8933Y-3.6387
X6.8933Y-3.68
X4.94Y-4.304
X4.94Y-4.3434
X4.94Y-4.3828
X4.9794Y-4.304
X4.9794Y-4.3434
X4.9794Y-4.3828
X5.0188Y-4.304
X5.0188Y-4.3434
X5.0188Y-4.3828
T2
X4.5325Y-4.4975
X4.56Y-4.35
X4.57Y-4.42
X4.5825Y-4.2075
X4.6108Y-4.1513
X4.635Y-3.655
X4.65Y-3.36
X4.655Y-4.325
X4.665Y-4.515
X4.7043Y-4.6713
X4.71Y-4.095
X4.715Y-4.585
X4.7152Y-3.88
X4.7152Y-3.9151
X4.72Y-4.4698
X4.73Y-4.645
X4.755Y-4.205
X4.805Y-4.11
X4.83Y-4.185
X4.84Y-4.515
X4.845Y-4.3879
X4.8783Y-4.4722
X4.945Y-4.07
X4.9451Y-4.5
X5.01Y-4.07
X5.0572Y-4.2083
X5.095Y-3.505
X5.15Y-3.455
X5.25Y-4.335
X5.255Y-4.195
X5.305Y-4.0
X5.31Y-4.13
X5.3852Y-4.4248
X6.04Y-4.0575
X6.0428Y-4.3329
X6.1475Y-4.0502
X6.1475Y-4.0825
X6.1475Y-4.1075
X6.1475Y-4.2888
X6.1475Y-4.3125
X6.1475Y-4.3444
X6.2925Y-3.2125
X6.4Y-4.215
X6.4025Y-4.355
X6.416Y-4.2968
X6.4438Y-4.4377
X6.4598Y-4.3547
X6.5076Y-4.4252
X6.51Y-4.275
X6.5275Y-3.2025
X6.535Y-4.275
X6.5577Y-3.3097
X6.565Y-3.135
X6.5766Y-3.7225
X6.5925Y-3.69
X6.62Y-3.23
X6.6275Y-3.28
X6.6794Y-3.5699
X6.68Y-4.3625
X6.68Y-4.6475
X6.6875Y-3.7725
X6.7Y-3.205
X6.705Y-3.41
X6.705Y-3.435
X6.705Y-3.46
X6.705Y-4.3625
X6.705Y-4.6475
X6.7225Y-3.73
X6.725Y-3.5825
X6.725Y-3.61
X6.7257Y-3.6995
X6.73Y-4.3625
X6.73Y-4.6475
X6.7325Y-3.41
X6.7325Y-3.435
X6.7325Y-3.46
X6.735Y-3.5079
X6.736Y-3.5456
X6.755Y-4.3625
X6.755Y-4.6475
X6.7711Y-3.4932
X6.8Y-3.815
X6.9099Y-3.7648
X6.9375Y-3.3725
X6.9375Y-3.43
X6.9402Y-3.7851
X6.945Y-4.6225
X6.9525Y-3.4575
X6.9589Y-3.5423
X6.9597Y-3.7251
X6.9625Y-3.3725
X6.985Y-3.5875
X6.9862Y-3.6138
X6.9875Y-3.3725
X7.0198Y-3.6824
X7.0205Y-3.7181
X7.025Y-3.6375
X7.0425Y-3.7968
X7.045Y-3.925
X7.0781Y-3.638
X7.0783Y-3.5749
X7.1084Y-3.6479
X7.1125Y-4.0825
X7.1125Y-4.1075
X7.1125Y-4.1325
X7.1125Y-4.1575
X7.14Y-3.56
X7.14Y-3.585
X7.14Y-3.535
X7.1829Y-4.3393
X7.205Y-3.825
X7.395Y-4.0825
X7.395Y-4.1075
X7.395Y-4.1325
X7.395Y-4.1575
T3
X4.6273Y-4.0123
X4.645Y-3.305
X4.945Y-4.65
X5.0Y-4.65
X5.15Y-3.305
X5.265Y-4.4
X5.265Y-4.44
X5.265Y-4.48
X5.43Y-4.39
X5.78Y-3.2
X5.78Y-3.23
X5.78Y-3.26
X5.78Y-3.29
X5.78Y-3.32
X5.78Y-4.46
X5.78Y-4.49
X5.78Y-4.52
X5.78Y-4.55
X5.78Y-4.58
X5.85Y-3.2
X5.85Y-3.23
X5.85Y-3.26
X5.85Y-3.29
X5.85Y-3.32
X5.85Y-4.46
X5.85Y-4.49
X5.85Y-4.52
X5.85Y-4.55
X5.85Y-4.58
X5.9075Y-3.8275
X5.92Y-4.505
X5.945Y-3.8125
X5.9575Y-4.465
X5.9575Y-4.545
X6.035Y-3.645
X6.04Y-3.385
X6.08Y-3.645
X6.1Y-3.855
X6.1Y-3.89
X6.1Y-3.925
X6.11Y-3.815
X6.1428Y-3.6464
X6.1487Y-4.375
X6.155Y-3.975
X6.175Y-3.3675
X6.175Y-3.435
X6.2075Y-3.3675
X6.2075Y-3.435
X6.2241Y-4.0337
X6.225Y-4.4775
X6.23Y-4.275
X6.235Y-3.775
X6.24Y-3.3675
X6.24Y-3.435
X6.2775Y-3.465
X6.285Y-4.015
X6.285Y-4.35
X6.29Y-4.5025
X6.2975Y-4.1125
X6.3Y-4.3
X6.3Y-4.4675
X6.3002Y-3.6352
X6.305Y-3.8
X6.305Y-3.945
X6.3087Y-3.4587
X6.315Y-3.415
X6.335Y-4.645
X6.3375Y-4.575
X6.3393Y-4.2625
X6.34Y-3.615
X6.3725Y-3.204
X6.3807Y-4.2625
X6.4Y-3.465
X6.405Y-3.73
X6.425Y-4.645
X6.4395Y-3.9615
X6.45Y-4.475
X6.465Y-3.465
X6.4865Y-3.605
X6.5056Y-4.5778
X6.51Y-4.645
X6.54Y-3.3975
X6.5435Y-3.505
X6.58Y-4.4975
X6.59Y-3.9125
X6.59Y-4.0
X6.5936Y-4.6514
X6.6Y-4.54
X6.63Y-3.91
X6.63Y-4.0
X6.66Y-3.865
X6.695Y-4.1375
X6.695Y-4.3
X6.695Y-4.215
X6.705Y-3.95
X6.715Y-3.345
X6.725Y-4.025
X6.79Y-3.895
X6.845Y-4.23
X6.845Y-4.45
X6.845Y-4.485
X6.845Y-4.52
X6.845Y-4.555
X6.865Y-4.165
X6.89Y-3.145
X6.9075Y-4.4125
X6.9225Y-3.145
X6.955Y-3.145
X6.9875Y-3.145
X7.0152Y-4.1884
X7.02Y-3.145
X7.0747Y-4.2051
X7.09Y-4.635
X7.105Y-4.555
X7.11Y-4.46
X7.1144Y-4.3744
X7.115Y-3.96
X7.14Y-3.83
X7.1756Y-3.3425
X7.1809Y-3.1265
X7.19Y-3.995
X7.1987Y-3.2387
X7.2181Y-3.3456
X7.2187Y-3.1243
X7.2225Y-3.995
X7.235Y-3.2375
X7.235Y-4.395
X7.255Y-3.995
X7.2675Y-3.125
X7.285Y-3.635
X7.2875Y-3.995
X7.3025Y-3.1825
X7.3098Y-4.2477
X7.32Y-3.995
X7.32Y-4.455
X7.3426Y-4.3949
X7.37Y-4.54
X7.3775Y-3.1175
X7.3898Y-4.2473
X7.425Y-3.57
X7.4275Y-4.39
X7.435Y-3.695
X7.4698Y-4.2473
X7.49Y-4.435
X7.5063Y-4.3963
X7.53Y-4.53
X7.5498Y-4.2473
X7.5625Y-4.4
T5
X6.93Y-4.07
X6.98Y-4.07
T6
X7.379Y-3.3193
X7.379Y-3.398
T7
X4.285Y-4.725
X4.385Y-4.725
X4.485Y-4.725
X4.585Y-4.725
X4.685Y-4.725
X4.785Y-4.725
X4.885Y-4.725
X4.985Y-4.725
X5.085Y-4.725
X5.185Y-4.725
X5.285Y-4.725
X5.385Y-4.725
X5.485Y-4.725
X6.14Y-4.725
X6.24Y-4.725
X6.34Y-4.725
X6.44Y-4.725
X6.54Y-4.725
X6.64Y-4.725
X6.74Y-4.725
X6.84Y-4.725
X6.94Y-4.725
X7.04Y-4.725
X7.14Y-4.725
X7.24Y-4.725
X7.34Y-4.725
X7.56Y-3.575
X7.56Y-3.675
X5.685Y-3.325
X5.685Y-3.425
X5.685Y-3.525
X5.685Y-3.625
X5.685Y-3.725
X5.685Y-3.825
X5.685Y-3.925
X5.685Y-4.025
X5.685Y-4.125
X5.685Y-4.225
X5.685Y-4.325
X5.685Y-4.425
X5.685Y-4.525
X5.685Y-4.625
X6.135Y-3.065
X6.235Y-3.065
X4.085Y-3.325
X4.085Y-3.425
X4.085Y-3.525
X4.085Y-3.625
X4.085Y-3.725
X4.085Y-3.825
X4.085Y-3.925
X4.085Y-4.025
X4.085Y-4.125
X4.085Y-4.225
X4.085Y-4.325
X4.085Y-4.425
X4.085Y-4.525
X4.085Y-4.625
X6.5975Y-3.06
X6.6975Y-3.06
X7.56Y-3.825
X7.56Y-3.925
X7.56Y-4.025
X7.56Y-4.125
T4
G00X5.9396Y-4.0247
M15
G01X5.9081Y-4.0247
M16
G05
G00X5.9415Y-4.3653
M15
G01X5.91Y-4.3653
M16
G05
G00X6.101Y-4.0247
M15
G01X6.0577Y-4.0247
M16
G05
G00X6.101Y-4.3653
M15
G01X6.0577Y-4.3653
M16
G05
T0
M30
