G04 #@! TF.GenerationSoftware,KiCad,Pcbnew,(5.1.8)-1*
G04 #@! TF.CreationDate,2021-03-08T18:17:58+01:00*
G04 #@! TF.ProjectId,SuperPower-uC-KiCad,53757065-7250-46f7-9765-722d75432d4b,rev?*
G04 #@! TF.SameCoordinates,Original*
G04 #@! TF.FileFunction,Soldermask,Bot*
G04 #@! TF.FilePolarity,Negative*
%FSLAX46Y46*%
G04 Gerber Fmt 4.6, Leading zero omitted, Abs format (unit mm)*
G04 Created by KiCad (PCBNEW (5.1.8)-1) date 2021-03-08 18:17:58*
%MOMM*%
%LPD*%
G01*
G04 APERTURE LIST*
%ADD10O,1.600000X0.800000*%
%ADD11O,1.900000X0.800000*%
%ADD12C,0.650000*%
%ADD13C,2.500000*%
%ADD14O,1.700000X1.700000*%
%ADD15R,1.700000X1.700000*%
%ADD16C,3.000000*%
%ADD17R,4.000000X2.000000*%
%ADD18O,1.000000X1.000000*%
%ADD19R,1.000000X1.000000*%
%ADD20O,1.750000X1.200000*%
G04 APERTURE END LIST*
D10*
X119731000Y-100958400D03*
X119781000Y-109608400D03*
D11*
X123681000Y-100958400D03*
X123681000Y-109608400D03*
D12*
X123317000Y-102412800D03*
X123317000Y-108178600D03*
D13*
X120523000Y-117678200D03*
X160528000Y-117678200D03*
X160528000Y-77673200D03*
X120523000Y-77673200D03*
D14*
X161290000Y-95885000D03*
X161290000Y-98425000D03*
X161290000Y-100965000D03*
D15*
X161290000Y-103505000D03*
D16*
X119888000Y-85090000D03*
X119888000Y-88392000D03*
D17*
X125984000Y-85090000D03*
X125984000Y-88392000D03*
D14*
X155702000Y-118745000D03*
X153162000Y-118745000D03*
X150622000Y-118745000D03*
X148082000Y-118745000D03*
X145542000Y-118745000D03*
X143002000Y-118745000D03*
X140462000Y-118745000D03*
X137922000Y-118745000D03*
X135382000Y-118745000D03*
X132842000Y-118745000D03*
X130302000Y-118745000D03*
X127762000Y-118745000D03*
D15*
X125222000Y-118745000D03*
D14*
X161290000Y-92075000D03*
D15*
X161290000Y-89535000D03*
D18*
X145288000Y-102108000D03*
D19*
X146558000Y-102108000D03*
D14*
X125095000Y-76581000D03*
D15*
X127635000Y-76581000D03*
X136842500Y-76454000D03*
D14*
X139382500Y-76454000D03*
G36*
G01*
X157317601Y-85639200D02*
X156067599Y-85639200D01*
G75*
G02*
X155817600Y-85389201I0J249999D01*
G01*
X155817600Y-84689199D01*
G75*
G02*
X156067599Y-84439200I249999J0D01*
G01*
X157317601Y-84439200D01*
G75*
G02*
X157567600Y-84689199I0J-249999D01*
G01*
X157567600Y-85389201D01*
G75*
G02*
X157317601Y-85639200I-249999J0D01*
G01*
G37*
D20*
X156692600Y-83039200D03*
M02*
