M48
; DRILL file {KiCad (5.1.8)-1} date 08/04/21 08:25:42
; FORMAT={-:-/ absolute / inch / decimal}
; #@! TF.CreationDate,2021-08-04T08:25:42+02:00
; #@! TF.GenerationSoftware,Kicad,Pcbnew,(5.1.8)-1
; #@! TF.FileFunction,Plated,1,4,PTH
FMAT,2
INCH
T1C0.0118
T2C0.0120
T3C0.0157
T4C0.0236
T5C0.0256
T6C0.0295
T7C0.0394
%
G90
G05
T1
X5.3185Y-4.311
X5.3185Y-4.4291
X5.348Y-4.311
X5.348Y-4.4291
X5.3775Y-4.311
X5.3775Y-4.4291
X5.9858Y-4.1634
X5.9858Y-4.1929
X5.9858Y-4.2224
X6.1098Y-4.223
X6.11Y-4.1634
X6.11Y-4.1929
X5.2299Y-4.3504
X5.2299Y-4.3898
X5.2496Y-4.3701
X5.2693Y-4.3504
X5.2693Y-4.3898
X6.0271Y-4.2722
X6.0271Y-4.3116
X6.0468Y-4.2919
X6.0665Y-4.2722
X6.0665Y-4.3116
X5.5987Y-3.506
X5.5987Y-3.5473
X5.5987Y-3.5887
X5.5987Y-3.63
X5.641Y-3.506
X5.641Y-3.5473
X5.641Y-3.5887
X5.641Y-3.63
X5.6833Y-3.506
X5.6833Y-3.5473
X5.6833Y-3.5887
X5.6833Y-3.63
T2
X4.83Y-4.0075
X4.8328Y-4.2829
X4.9375Y-4.0002
X4.9375Y-4.0325
X4.9375Y-4.0575
X4.9375Y-4.2388
X4.9375Y-4.2625
X4.9375Y-4.2944
X4.9803Y-4.5571
X5.0626Y-4.3904
X5.0825Y-3.1625
X5.1315Y-4.2132
X5.1541Y-4.186
X5.1854Y-4.2315
X5.3175Y-3.1525
X5.3477Y-3.2597
X5.348Y-3.6817
X5.355Y-3.085
X5.41Y-3.18
X5.4175Y-3.23
X5.4405Y-4.2338
X5.4405Y-4.5089
X5.4655Y-4.2338
X5.4655Y-4.5089
X5.49Y-3.155
X5.4905Y-4.2338
X5.4905Y-4.5089
X5.4905Y-3.7027
X5.495Y-3.36
X5.495Y-3.385
X5.5139Y-3.5561
X5.5141Y-3.5241
X5.515Y-3.49
X5.5155Y-4.2338
X5.5155Y-4.5089
X5.5225Y-3.36
X5.5225Y-3.385
X5.5225Y-3.41
X5.5249Y-3.4563
X5.525Y-3.65
X5.5611Y-3.4432
X5.5964Y-3.7714
X5.6999Y-3.7148
X5.7275Y-3.3225
X5.7275Y-3.38
X5.7302Y-3.7351
X5.7319Y-3.4652
X5.735Y-4.5725
X5.7425Y-3.4075
X5.7497Y-3.6751
X5.7525Y-3.3225
X5.775Y-3.5375
X5.7762Y-3.5638
X5.7775Y-3.3225
X5.8106Y-3.6817
X5.85Y-3.6817
X5.8992Y-3.6423
X5.8992Y-3.6719
X5.8992Y-3.6142
X5.909Y-4.0163
X5.909Y-4.0459
X5.909Y-4.0754
X5.909Y-4.1049
X5.9275Y-3.4825
X5.9287Y-3.51
X5.9287Y-3.535
X5.9287Y-3.5636
X6.0567Y-3.7407
X6.0862Y-3.7112
X6.1846Y-4.0157
X6.1846Y-4.0453
X6.1846Y-4.0748
X6.1846Y-4.1043
T3
X4.6837Y-4.4495
X4.6975Y-3.7775
X4.7237Y-4.487
X4.735Y-3.7625
X4.7637Y-4.4495
X4.787Y-4.4986
X4.825Y-3.595
X4.83Y-3.335
X4.87Y-3.595
X4.89Y-3.805
X4.89Y-3.84
X4.89Y-3.875
X4.9Y-3.765
X4.9328Y-3.5964
X4.9387Y-4.325
X4.945Y-3.925
X4.965Y-3.3175
X4.965Y-3.385
X4.9975Y-3.3175
X4.9975Y-3.385
X5.0141Y-3.9837
X5.02Y-4.225
X5.025Y-3.725
X5.03Y-3.3175
X5.03Y-3.385
X5.0626Y-4.4691
X5.075Y-4.3
X5.08Y-3.405
X5.0862Y-4.0625
X5.09Y-4.25
X5.0902Y-3.5852
X5.095Y-3.75
X5.105Y-3.365
X5.1413Y-4.4986
X5.1413Y-4.5774
X5.145Y-3.8982
X5.161Y-4.0459
X5.1625Y-3.154
X5.18Y-3.495
X5.19Y-3.415
X5.1905Y-3.9376
X5.2004Y-3.6817
X5.2004Y-3.7211
X5.2126Y-3.9155
X5.22Y-3.9474
X5.22Y-4.5774
X5.225Y-3.565
X5.255Y-3.415
X5.2765Y-3.555
X5.3037Y-4.5035
X5.3086Y-4.2132
X5.3086Y-4.5774
X5.33Y-3.3475
X5.34Y-3.46
X5.34Y-3.495
X5.348Y-4.2132
X5.3686Y-3.7979
X5.38Y-3.95
X5.3826Y-3.86
X5.3874Y-3.6719
X5.3874Y-4.2132
X5.395Y-3.775
X5.42Y-3.4
X5.42Y-3.6522
X5.42Y-3.95
X5.4251Y-3.8633
X5.4956Y-3.8884
X5.4956Y-3.9278
X5.505Y-3.295
X5.515Y-3.975
X5.58Y-3.845
X5.6055Y-4.3114
X5.6055Y-4.3464
X5.6055Y-4.3814
X5.6055Y-4.4164
X5.6728Y-4.1148
X5.68Y-3.095
X5.6975Y-4.3625
X5.7125Y-3.095
X5.745Y-3.095
X5.7515Y-4.1148
X5.7775Y-3.095
X5.81Y-3.095
X5.8106Y-4.1148
X5.85Y-4.597
X5.8893Y-4.5478
X5.895Y-4.505
X5.8992Y-4.5872
X5.905Y-3.91
X5.9656Y-3.2925
X5.9709Y-3.0765
X5.98Y-3.945
X5.9883Y-4.3997
X5.9887Y-3.1887
X6.0081Y-3.2956
X6.0087Y-3.0743
X6.0125Y-3.945
X6.025Y-3.1875
X6.045Y-3.945
X6.0575Y-3.075
X6.063Y-4.5472
X6.075Y-3.585
X6.0775Y-3.945
X6.0925Y-3.1325
X6.11Y-3.945
X6.1675Y-3.0675
X6.1811Y-4.2126
X6.1811Y-4.3707
X6.1846Y-3.5931
X6.2043Y-4.5472
X6.2598Y-4.2126
X6.2598Y-4.3707
X6.3386Y-4.2126
X6.3386Y-4.3707
X6.3815Y-4.4396
T5
X5.72Y-4.02
X5.77Y-4.02
T6
X6.169Y-3.2693
X6.169Y-3.348
T7
X4.925Y-3.015
X5.025Y-3.015
X6.35Y-3.775
X6.35Y-3.875
X6.35Y-3.975
X6.35Y-4.075
X4.93Y-4.675
X5.03Y-4.675
X5.13Y-4.675
X5.23Y-4.675
X5.33Y-4.675
X5.43Y-4.675
X5.53Y-4.675
X5.63Y-4.675
X5.73Y-4.675
X5.83Y-4.675
X5.93Y-4.675
X6.03Y-4.675
X6.13Y-4.675
X5.3875Y-3.01
X5.4875Y-3.01
X6.35Y-3.525
X6.35Y-3.625
T4
G00X4.7296Y-3.9747
M15
G01X4.6981Y-3.9747
M16
G05
G00X4.7315Y-4.3153
M15
G01X4.7Y-4.3153
M16
G05
G00X4.891Y-3.9747
M15
G01X4.8477Y-3.9747
M16
G05
G00X4.891Y-4.3153
M15
G01X4.8477Y-4.3153
M16
G05
T0
M30
