G04 #@! TF.GenerationSoftware,KiCad,Pcbnew,(5.1.8)-1*
G04 #@! TF.CreationDate,2021-02-03T20:38:12+01:00*
G04 #@! TF.ProjectId,SuperPower-uC-KiCad,53757065-7250-46f7-9765-722d75432d4b,rev?*
G04 #@! TF.SameCoordinates,Original*
G04 #@! TF.FileFunction,Soldermask,Top*
G04 #@! TF.FilePolarity,Negative*
%FSLAX46Y46*%
G04 Gerber Fmt 4.6, Leading zero omitted, Abs format (unit mm)*
G04 Created by KiCad (PCBNEW (5.1.8)-1) date 2021-02-03 20:38:12*
%MOMM*%
%LPD*%
G01*
G04 APERTURE LIST*
%ADD10C,0.010000*%
%ADD11O,1.600000X0.800000*%
%ADD12O,1.900000X0.800000*%
%ADD13R,1.150000X0.300000*%
%ADD14C,0.650000*%
%ADD15R,1.330000X1.330000*%
%ADD16R,2.000000X0.900000*%
%ADD17R,0.900000X2.000000*%
%ADD18C,2.500000*%
%ADD19R,3.350000X3.350000*%
%ADD20R,0.800000X2.000000*%
%ADD21O,1.700000X1.700000*%
%ADD22R,1.700000X1.700000*%
%ADD23C,1.000000*%
%ADD24R,2.650000X3.650000*%
%ADD25C,3.000000*%
%ADD26R,0.700000X0.510000*%
%ADD27R,0.900000X0.800000*%
%ADD28R,0.800000X0.900000*%
%ADD29R,1.060000X0.650000*%
%ADD30R,1.500000X1.500000*%
%ADD31C,0.100000*%
%ADD32R,1.200000X0.900000*%
%ADD33O,1.000000X1.000000*%
%ADD34R,1.000000X1.000000*%
%ADD35R,0.510000X0.700000*%
%ADD36R,0.650000X1.060000*%
%ADD37R,1.000000X1.500000*%
%ADD38R,1.050000X1.500000*%
%ADD39R,2.400000X1.500000*%
%ADD40R,0.500000X0.800000*%
%ADD41O,1.750000X1.200000*%
G04 APERTURE END LIST*
D10*
G36*
X166533400Y-111295000D02*
G01*
X165783400Y-111295000D01*
X165783400Y-110695000D01*
X166033400Y-110695000D01*
X166033400Y-111045000D01*
X166283400Y-111045000D01*
X166283400Y-110695000D01*
X166533400Y-110695000D01*
X166533400Y-111295000D01*
G37*
X166533400Y-111295000D02*
X165783400Y-111295000D01*
X165783400Y-110695000D01*
X166033400Y-110695000D01*
X166033400Y-111045000D01*
X166283400Y-111045000D01*
X166283400Y-110695000D01*
X166533400Y-110695000D01*
X166533400Y-111295000D01*
G36*
X165783400Y-113495000D02*
G01*
X166533400Y-113495000D01*
X166533400Y-114095000D01*
X166283400Y-114095000D01*
X166283400Y-113745000D01*
X166033400Y-113745000D01*
X166033400Y-114095000D01*
X165783400Y-114095000D01*
X165783400Y-113495000D01*
G37*
X165783400Y-113495000D02*
X166533400Y-113495000D01*
X166533400Y-114095000D01*
X166283400Y-114095000D01*
X166283400Y-113745000D01*
X166033400Y-113745000D01*
X166033400Y-114095000D01*
X165783400Y-114095000D01*
X165783400Y-113495000D01*
G36*
X165233400Y-110645000D02*
G01*
X165583400Y-110645000D01*
X165583400Y-111345000D01*
X165233400Y-111345000D01*
X165233400Y-110645000D01*
G37*
X165233400Y-110645000D02*
X165583400Y-110645000D01*
X165583400Y-111345000D01*
X165233400Y-111345000D01*
X165233400Y-110645000D01*
G36*
X164733400Y-110645000D02*
G01*
X165083400Y-110645000D01*
X165083400Y-111345000D01*
X164733400Y-111345000D01*
X164733400Y-110645000D01*
G37*
X164733400Y-110645000D02*
X165083400Y-110645000D01*
X165083400Y-111345000D01*
X164733400Y-111345000D01*
X164733400Y-110645000D01*
G36*
X165233400Y-113445000D02*
G01*
X165583400Y-113445000D01*
X165583400Y-114145000D01*
X165233400Y-114145000D01*
X165233400Y-113445000D01*
G37*
X165233400Y-113445000D02*
X165583400Y-113445000D01*
X165583400Y-114145000D01*
X165233400Y-114145000D01*
X165233400Y-113445000D01*
G36*
X164733400Y-113445000D02*
G01*
X165083400Y-113445000D01*
X165083400Y-114145000D01*
X164733400Y-114145000D01*
X164733400Y-113445000D01*
G37*
X164733400Y-113445000D02*
X165083400Y-113445000D01*
X165083400Y-114145000D01*
X164733400Y-114145000D01*
X164733400Y-113445000D01*
G36*
X164133400Y-112970000D02*
G01*
X164833400Y-112970000D01*
X164833400Y-113320000D01*
X164133400Y-113320000D01*
X164133400Y-112970000D01*
G37*
X164133400Y-112970000D02*
X164833400Y-112970000D01*
X164833400Y-113320000D01*
X164133400Y-113320000D01*
X164133400Y-112970000D01*
G36*
X164133400Y-112470000D02*
G01*
X164833400Y-112470000D01*
X164833400Y-112820000D01*
X164133400Y-112820000D01*
X164133400Y-112470000D01*
G37*
X164133400Y-112470000D02*
X164833400Y-112470000D01*
X164833400Y-112820000D01*
X164133400Y-112820000D01*
X164133400Y-112470000D01*
G36*
X164133400Y-111970000D02*
G01*
X164833400Y-111970000D01*
X164833400Y-112320000D01*
X164133400Y-112320000D01*
X164133400Y-111970000D01*
G37*
X164133400Y-111970000D02*
X164833400Y-111970000D01*
X164833400Y-112320000D01*
X164133400Y-112320000D01*
X164133400Y-111970000D01*
G36*
X164133400Y-111470000D02*
G01*
X164833400Y-111470000D01*
X164833400Y-111820000D01*
X164133400Y-111820000D01*
X164133400Y-111470000D01*
G37*
X164133400Y-111470000D02*
X164833400Y-111470000D01*
X164833400Y-111820000D01*
X164133400Y-111820000D01*
X164133400Y-111470000D01*
G36*
X165733400Y-112770000D02*
G01*
X167083400Y-112770000D01*
X167083400Y-113020000D01*
X165733400Y-113020000D01*
X165733400Y-112770000D01*
G37*
X165733400Y-112770000D02*
X167083400Y-112770000D01*
X167083400Y-113020000D01*
X165733400Y-113020000D01*
X165733400Y-112770000D01*
G36*
X165383400Y-112270000D02*
G01*
X167083400Y-112270000D01*
X167083400Y-112520000D01*
X165383400Y-112520000D01*
X165383400Y-112270000D01*
G37*
X165383400Y-112270000D02*
X167083400Y-112270000D01*
X167083400Y-112520000D01*
X165383400Y-112520000D01*
X165383400Y-112270000D01*
G36*
X165733400Y-111770000D02*
G01*
X167083400Y-111770000D01*
X167083400Y-112020000D01*
X165733400Y-112020000D01*
X165733400Y-111770000D01*
G37*
X165733400Y-111770000D02*
X167083400Y-111770000D01*
X167083400Y-112020000D01*
X165733400Y-112020000D01*
X165733400Y-111770000D01*
G36*
X181825400Y-109778300D02*
G01*
X181825400Y-108428300D01*
X182075400Y-108428300D01*
X182075400Y-109778300D01*
X181825400Y-109778300D01*
G37*
X181825400Y-109778300D02*
X181825400Y-108428300D01*
X182075400Y-108428300D01*
X182075400Y-109778300D01*
X181825400Y-109778300D01*
G36*
X182325400Y-110128300D02*
G01*
X182325400Y-108428300D01*
X182575400Y-108428300D01*
X182575400Y-110128300D01*
X182325400Y-110128300D01*
G37*
X182325400Y-110128300D02*
X182325400Y-108428300D01*
X182575400Y-108428300D01*
X182575400Y-110128300D01*
X182325400Y-110128300D01*
G36*
X182825400Y-109778300D02*
G01*
X182825400Y-108428300D01*
X183075400Y-108428300D01*
X183075400Y-109778300D01*
X182825400Y-109778300D01*
G37*
X182825400Y-109778300D02*
X182825400Y-108428300D01*
X183075400Y-108428300D01*
X183075400Y-109778300D01*
X182825400Y-109778300D01*
G36*
X181525400Y-111378300D02*
G01*
X181525400Y-110678300D01*
X181875400Y-110678300D01*
X181875400Y-111378300D01*
X181525400Y-111378300D01*
G37*
X181525400Y-111378300D02*
X181525400Y-110678300D01*
X181875400Y-110678300D01*
X181875400Y-111378300D01*
X181525400Y-111378300D01*
G36*
X182025400Y-111378300D02*
G01*
X182025400Y-110678300D01*
X182375400Y-110678300D01*
X182375400Y-111378300D01*
X182025400Y-111378300D01*
G37*
X182025400Y-111378300D02*
X182025400Y-110678300D01*
X182375400Y-110678300D01*
X182375400Y-111378300D01*
X182025400Y-111378300D01*
G36*
X182525400Y-111378300D02*
G01*
X182525400Y-110678300D01*
X182875400Y-110678300D01*
X182875400Y-111378300D01*
X182525400Y-111378300D01*
G37*
X182525400Y-111378300D02*
X182525400Y-110678300D01*
X182875400Y-110678300D01*
X182875400Y-111378300D01*
X182525400Y-111378300D01*
G36*
X183025400Y-111378300D02*
G01*
X183025400Y-110678300D01*
X183375400Y-110678300D01*
X183375400Y-111378300D01*
X183025400Y-111378300D01*
G37*
X183025400Y-111378300D02*
X183025400Y-110678300D01*
X183375400Y-110678300D01*
X183375400Y-111378300D01*
X183025400Y-111378300D01*
G36*
X183500400Y-110778300D02*
G01*
X183500400Y-110428300D01*
X184200400Y-110428300D01*
X184200400Y-110778300D01*
X183500400Y-110778300D01*
G37*
X183500400Y-110778300D02*
X183500400Y-110428300D01*
X184200400Y-110428300D01*
X184200400Y-110778300D01*
X183500400Y-110778300D01*
G36*
X183500400Y-110278300D02*
G01*
X183500400Y-109928300D01*
X184200400Y-109928300D01*
X184200400Y-110278300D01*
X183500400Y-110278300D01*
G37*
X183500400Y-110278300D02*
X183500400Y-109928300D01*
X184200400Y-109928300D01*
X184200400Y-110278300D01*
X183500400Y-110278300D01*
G36*
X180700400Y-110778300D02*
G01*
X180700400Y-110428300D01*
X181400400Y-110428300D01*
X181400400Y-110778300D01*
X180700400Y-110778300D01*
G37*
X180700400Y-110778300D02*
X180700400Y-110428300D01*
X181400400Y-110428300D01*
X181400400Y-110778300D01*
X180700400Y-110778300D01*
G36*
X180700400Y-110278300D02*
G01*
X180700400Y-109928300D01*
X181400400Y-109928300D01*
X181400400Y-110278300D01*
X180700400Y-110278300D01*
G37*
X180700400Y-110278300D02*
X180700400Y-109928300D01*
X181400400Y-109928300D01*
X181400400Y-110278300D01*
X180700400Y-110278300D01*
G36*
X183550400Y-109728300D02*
G01*
X183550400Y-108978300D01*
X184150400Y-108978300D01*
X184150400Y-109228300D01*
X183800400Y-109228300D01*
X183800400Y-109478300D01*
X184150400Y-109478300D01*
X184150400Y-109728300D01*
X183550400Y-109728300D01*
G37*
X183550400Y-109728300D02*
X183550400Y-108978300D01*
X184150400Y-108978300D01*
X184150400Y-109228300D01*
X183800400Y-109228300D01*
X183800400Y-109478300D01*
X184150400Y-109478300D01*
X184150400Y-109728300D01*
X183550400Y-109728300D01*
G36*
X181350400Y-108978300D02*
G01*
X181350400Y-109728300D01*
X180750400Y-109728300D01*
X180750400Y-109478300D01*
X181100400Y-109478300D01*
X181100400Y-109228300D01*
X180750400Y-109228300D01*
X180750400Y-108978300D01*
X181350400Y-108978300D01*
G37*
X181350400Y-108978300D02*
X181350400Y-109728300D01*
X180750400Y-109728300D01*
X180750400Y-109478300D01*
X181100400Y-109478300D01*
X181100400Y-109228300D01*
X180750400Y-109228300D01*
X180750400Y-108978300D01*
X181350400Y-108978300D01*
D11*
X150465000Y-102228400D03*
X150515000Y-110878400D03*
D12*
X154415000Y-102228400D03*
X154415000Y-110878400D03*
D13*
X155041600Y-107329510D03*
X155041600Y-104825800D03*
X155041600Y-105326542D03*
X155041600Y-105827284D03*
X155041600Y-106328026D03*
X155041600Y-106828768D03*
X155041600Y-107830252D03*
X155041600Y-108331000D03*
X155041600Y-108813600D03*
X155041600Y-109118400D03*
X155041600Y-109613700D03*
X155041600Y-109905800D03*
X155041600Y-104330500D03*
X155041600Y-104025700D03*
X155041600Y-103530400D03*
X155041600Y-103225600D03*
D14*
X154051000Y-103682800D03*
X154051000Y-109448600D03*
D15*
X123444760Y-91431760D03*
D16*
X115944760Y-83931760D03*
X115944760Y-85201760D03*
X115944760Y-86471760D03*
X115944760Y-87741760D03*
X115944760Y-89011760D03*
X115944760Y-90281760D03*
X115944760Y-91551760D03*
X115944760Y-92821760D03*
X115944760Y-94091760D03*
X115944760Y-95361760D03*
X115944760Y-96631760D03*
X115944760Y-97901760D03*
X115944760Y-99171760D03*
X115944760Y-100441760D03*
D17*
X118729760Y-101441760D03*
X119999760Y-101441760D03*
X121269760Y-101441760D03*
X122539760Y-101441760D03*
X123809760Y-101441760D03*
X125079760Y-101441760D03*
X126349760Y-101441760D03*
X127619760Y-101441760D03*
X128889760Y-101441760D03*
X130159760Y-101441760D03*
D16*
X132944760Y-100441760D03*
X132944760Y-99171760D03*
X132944760Y-97901760D03*
X132944760Y-96631760D03*
X132944760Y-95361760D03*
X132944760Y-94091760D03*
X132944760Y-92821760D03*
X132944760Y-91551760D03*
X132944760Y-90281760D03*
X132944760Y-89011760D03*
X132944760Y-87741760D03*
X132944760Y-86471760D03*
X132944760Y-85201760D03*
X132944760Y-83931760D03*
D15*
X121609760Y-89596760D03*
X123444760Y-89596760D03*
X125279760Y-89596760D03*
X125279760Y-91431760D03*
X125279760Y-93266760D03*
X123444760Y-93266760D03*
X121609760Y-93266760D03*
X121609760Y-91431760D03*
D14*
X122527260Y-89596760D03*
X124362260Y-89596760D03*
X121609760Y-90514260D03*
X121609760Y-92349260D03*
X123444760Y-90514260D03*
X125279760Y-90514260D03*
X123444760Y-92349260D03*
X125279760Y-92349260D03*
X122527260Y-91431760D03*
X122527260Y-93266760D03*
X124362260Y-91431760D03*
X124362260Y-93266760D03*
G36*
G01*
X172893500Y-84128500D02*
X172893500Y-81098500D01*
G75*
G02*
X173078500Y-80913500I185000J0D01*
G01*
X174558500Y-80913500D01*
G75*
G02*
X174743500Y-81098500I0J-185000D01*
G01*
X174743500Y-84128500D01*
G75*
G02*
X174558500Y-84313500I-185000J0D01*
G01*
X173078500Y-84313500D01*
G75*
G02*
X172893500Y-84128500I0J185000D01*
G01*
G37*
G36*
G01*
X178443500Y-84128500D02*
X178443500Y-81098500D01*
G75*
G02*
X178628500Y-80913500I185000J0D01*
G01*
X180108500Y-80913500D01*
G75*
G02*
X180293500Y-81098500I0J-185000D01*
G01*
X180293500Y-84128500D01*
G75*
G02*
X180108500Y-84313500I-185000J0D01*
G01*
X178628500Y-84313500D01*
G75*
G02*
X178443500Y-84128500I0J185000D01*
G01*
G37*
D18*
X144205960Y-78826360D03*
X104175560Y-78826360D03*
X151257000Y-118948200D03*
X191262000Y-118948200D03*
X191262000Y-78943200D03*
X151257000Y-78943200D03*
D19*
X126476760Y-110322360D03*
G36*
G01*
X124851760Y-108209860D02*
X124851760Y-107534860D01*
G75*
G02*
X124914260Y-107472360I62500J0D01*
G01*
X125039260Y-107472360D01*
G75*
G02*
X125101760Y-107534860I0J-62500D01*
G01*
X125101760Y-108209860D01*
G75*
G02*
X125039260Y-108272360I-62500J0D01*
G01*
X124914260Y-108272360D01*
G75*
G02*
X124851760Y-108209860I0J62500D01*
G01*
G37*
G36*
G01*
X125351760Y-108209860D02*
X125351760Y-107534860D01*
G75*
G02*
X125414260Y-107472360I62500J0D01*
G01*
X125539260Y-107472360D01*
G75*
G02*
X125601760Y-107534860I0J-62500D01*
G01*
X125601760Y-108209860D01*
G75*
G02*
X125539260Y-108272360I-62500J0D01*
G01*
X125414260Y-108272360D01*
G75*
G02*
X125351760Y-108209860I0J62500D01*
G01*
G37*
G36*
G01*
X125851760Y-108209860D02*
X125851760Y-107534860D01*
G75*
G02*
X125914260Y-107472360I62500J0D01*
G01*
X126039260Y-107472360D01*
G75*
G02*
X126101760Y-107534860I0J-62500D01*
G01*
X126101760Y-108209860D01*
G75*
G02*
X126039260Y-108272360I-62500J0D01*
G01*
X125914260Y-108272360D01*
G75*
G02*
X125851760Y-108209860I0J62500D01*
G01*
G37*
G36*
G01*
X126351760Y-108209860D02*
X126351760Y-107534860D01*
G75*
G02*
X126414260Y-107472360I62500J0D01*
G01*
X126539260Y-107472360D01*
G75*
G02*
X126601760Y-107534860I0J-62500D01*
G01*
X126601760Y-108209860D01*
G75*
G02*
X126539260Y-108272360I-62500J0D01*
G01*
X126414260Y-108272360D01*
G75*
G02*
X126351760Y-108209860I0J62500D01*
G01*
G37*
G36*
G01*
X126851760Y-108209860D02*
X126851760Y-107534860D01*
G75*
G02*
X126914260Y-107472360I62500J0D01*
G01*
X127039260Y-107472360D01*
G75*
G02*
X127101760Y-107534860I0J-62500D01*
G01*
X127101760Y-108209860D01*
G75*
G02*
X127039260Y-108272360I-62500J0D01*
G01*
X126914260Y-108272360D01*
G75*
G02*
X126851760Y-108209860I0J62500D01*
G01*
G37*
G36*
G01*
X127351760Y-108209860D02*
X127351760Y-107534860D01*
G75*
G02*
X127414260Y-107472360I62500J0D01*
G01*
X127539260Y-107472360D01*
G75*
G02*
X127601760Y-107534860I0J-62500D01*
G01*
X127601760Y-108209860D01*
G75*
G02*
X127539260Y-108272360I-62500J0D01*
G01*
X127414260Y-108272360D01*
G75*
G02*
X127351760Y-108209860I0J62500D01*
G01*
G37*
G36*
G01*
X127851760Y-108209860D02*
X127851760Y-107534860D01*
G75*
G02*
X127914260Y-107472360I62500J0D01*
G01*
X128039260Y-107472360D01*
G75*
G02*
X128101760Y-107534860I0J-62500D01*
G01*
X128101760Y-108209860D01*
G75*
G02*
X128039260Y-108272360I-62500J0D01*
G01*
X127914260Y-108272360D01*
G75*
G02*
X127851760Y-108209860I0J62500D01*
G01*
G37*
G36*
G01*
X128526760Y-108884860D02*
X128526760Y-108759860D01*
G75*
G02*
X128589260Y-108697360I62500J0D01*
G01*
X129264260Y-108697360D01*
G75*
G02*
X129326760Y-108759860I0J-62500D01*
G01*
X129326760Y-108884860D01*
G75*
G02*
X129264260Y-108947360I-62500J0D01*
G01*
X128589260Y-108947360D01*
G75*
G02*
X128526760Y-108884860I0J62500D01*
G01*
G37*
G36*
G01*
X128526760Y-109384860D02*
X128526760Y-109259860D01*
G75*
G02*
X128589260Y-109197360I62500J0D01*
G01*
X129264260Y-109197360D01*
G75*
G02*
X129326760Y-109259860I0J-62500D01*
G01*
X129326760Y-109384860D01*
G75*
G02*
X129264260Y-109447360I-62500J0D01*
G01*
X128589260Y-109447360D01*
G75*
G02*
X128526760Y-109384860I0J62500D01*
G01*
G37*
G36*
G01*
X128526760Y-109884860D02*
X128526760Y-109759860D01*
G75*
G02*
X128589260Y-109697360I62500J0D01*
G01*
X129264260Y-109697360D01*
G75*
G02*
X129326760Y-109759860I0J-62500D01*
G01*
X129326760Y-109884860D01*
G75*
G02*
X129264260Y-109947360I-62500J0D01*
G01*
X128589260Y-109947360D01*
G75*
G02*
X128526760Y-109884860I0J62500D01*
G01*
G37*
G36*
G01*
X128526760Y-110384860D02*
X128526760Y-110259860D01*
G75*
G02*
X128589260Y-110197360I62500J0D01*
G01*
X129264260Y-110197360D01*
G75*
G02*
X129326760Y-110259860I0J-62500D01*
G01*
X129326760Y-110384860D01*
G75*
G02*
X129264260Y-110447360I-62500J0D01*
G01*
X128589260Y-110447360D01*
G75*
G02*
X128526760Y-110384860I0J62500D01*
G01*
G37*
G36*
G01*
X128526760Y-110884860D02*
X128526760Y-110759860D01*
G75*
G02*
X128589260Y-110697360I62500J0D01*
G01*
X129264260Y-110697360D01*
G75*
G02*
X129326760Y-110759860I0J-62500D01*
G01*
X129326760Y-110884860D01*
G75*
G02*
X129264260Y-110947360I-62500J0D01*
G01*
X128589260Y-110947360D01*
G75*
G02*
X128526760Y-110884860I0J62500D01*
G01*
G37*
G36*
G01*
X128526760Y-111384860D02*
X128526760Y-111259860D01*
G75*
G02*
X128589260Y-111197360I62500J0D01*
G01*
X129264260Y-111197360D01*
G75*
G02*
X129326760Y-111259860I0J-62500D01*
G01*
X129326760Y-111384860D01*
G75*
G02*
X129264260Y-111447360I-62500J0D01*
G01*
X128589260Y-111447360D01*
G75*
G02*
X128526760Y-111384860I0J62500D01*
G01*
G37*
G36*
G01*
X128526760Y-111884860D02*
X128526760Y-111759860D01*
G75*
G02*
X128589260Y-111697360I62500J0D01*
G01*
X129264260Y-111697360D01*
G75*
G02*
X129326760Y-111759860I0J-62500D01*
G01*
X129326760Y-111884860D01*
G75*
G02*
X129264260Y-111947360I-62500J0D01*
G01*
X128589260Y-111947360D01*
G75*
G02*
X128526760Y-111884860I0J62500D01*
G01*
G37*
G36*
G01*
X127851760Y-113109860D02*
X127851760Y-112434860D01*
G75*
G02*
X127914260Y-112372360I62500J0D01*
G01*
X128039260Y-112372360D01*
G75*
G02*
X128101760Y-112434860I0J-62500D01*
G01*
X128101760Y-113109860D01*
G75*
G02*
X128039260Y-113172360I-62500J0D01*
G01*
X127914260Y-113172360D01*
G75*
G02*
X127851760Y-113109860I0J62500D01*
G01*
G37*
G36*
G01*
X127351760Y-113109860D02*
X127351760Y-112434860D01*
G75*
G02*
X127414260Y-112372360I62500J0D01*
G01*
X127539260Y-112372360D01*
G75*
G02*
X127601760Y-112434860I0J-62500D01*
G01*
X127601760Y-113109860D01*
G75*
G02*
X127539260Y-113172360I-62500J0D01*
G01*
X127414260Y-113172360D01*
G75*
G02*
X127351760Y-113109860I0J62500D01*
G01*
G37*
G36*
G01*
X126851760Y-113109860D02*
X126851760Y-112434860D01*
G75*
G02*
X126914260Y-112372360I62500J0D01*
G01*
X127039260Y-112372360D01*
G75*
G02*
X127101760Y-112434860I0J-62500D01*
G01*
X127101760Y-113109860D01*
G75*
G02*
X127039260Y-113172360I-62500J0D01*
G01*
X126914260Y-113172360D01*
G75*
G02*
X126851760Y-113109860I0J62500D01*
G01*
G37*
G36*
G01*
X126351760Y-113109860D02*
X126351760Y-112434860D01*
G75*
G02*
X126414260Y-112372360I62500J0D01*
G01*
X126539260Y-112372360D01*
G75*
G02*
X126601760Y-112434860I0J-62500D01*
G01*
X126601760Y-113109860D01*
G75*
G02*
X126539260Y-113172360I-62500J0D01*
G01*
X126414260Y-113172360D01*
G75*
G02*
X126351760Y-113109860I0J62500D01*
G01*
G37*
G36*
G01*
X125851760Y-113109860D02*
X125851760Y-112434860D01*
G75*
G02*
X125914260Y-112372360I62500J0D01*
G01*
X126039260Y-112372360D01*
G75*
G02*
X126101760Y-112434860I0J-62500D01*
G01*
X126101760Y-113109860D01*
G75*
G02*
X126039260Y-113172360I-62500J0D01*
G01*
X125914260Y-113172360D01*
G75*
G02*
X125851760Y-113109860I0J62500D01*
G01*
G37*
G36*
G01*
X125351760Y-113109860D02*
X125351760Y-112434860D01*
G75*
G02*
X125414260Y-112372360I62500J0D01*
G01*
X125539260Y-112372360D01*
G75*
G02*
X125601760Y-112434860I0J-62500D01*
G01*
X125601760Y-113109860D01*
G75*
G02*
X125539260Y-113172360I-62500J0D01*
G01*
X125414260Y-113172360D01*
G75*
G02*
X125351760Y-113109860I0J62500D01*
G01*
G37*
G36*
G01*
X124851760Y-113109860D02*
X124851760Y-112434860D01*
G75*
G02*
X124914260Y-112372360I62500J0D01*
G01*
X125039260Y-112372360D01*
G75*
G02*
X125101760Y-112434860I0J-62500D01*
G01*
X125101760Y-113109860D01*
G75*
G02*
X125039260Y-113172360I-62500J0D01*
G01*
X124914260Y-113172360D01*
G75*
G02*
X124851760Y-113109860I0J62500D01*
G01*
G37*
G36*
G01*
X123626760Y-111884860D02*
X123626760Y-111759860D01*
G75*
G02*
X123689260Y-111697360I62500J0D01*
G01*
X124364260Y-111697360D01*
G75*
G02*
X124426760Y-111759860I0J-62500D01*
G01*
X124426760Y-111884860D01*
G75*
G02*
X124364260Y-111947360I-62500J0D01*
G01*
X123689260Y-111947360D01*
G75*
G02*
X123626760Y-111884860I0J62500D01*
G01*
G37*
G36*
G01*
X123626760Y-111384860D02*
X123626760Y-111259860D01*
G75*
G02*
X123689260Y-111197360I62500J0D01*
G01*
X124364260Y-111197360D01*
G75*
G02*
X124426760Y-111259860I0J-62500D01*
G01*
X124426760Y-111384860D01*
G75*
G02*
X124364260Y-111447360I-62500J0D01*
G01*
X123689260Y-111447360D01*
G75*
G02*
X123626760Y-111384860I0J62500D01*
G01*
G37*
G36*
G01*
X123626760Y-110884860D02*
X123626760Y-110759860D01*
G75*
G02*
X123689260Y-110697360I62500J0D01*
G01*
X124364260Y-110697360D01*
G75*
G02*
X124426760Y-110759860I0J-62500D01*
G01*
X124426760Y-110884860D01*
G75*
G02*
X124364260Y-110947360I-62500J0D01*
G01*
X123689260Y-110947360D01*
G75*
G02*
X123626760Y-110884860I0J62500D01*
G01*
G37*
G36*
G01*
X123626760Y-110384860D02*
X123626760Y-110259860D01*
G75*
G02*
X123689260Y-110197360I62500J0D01*
G01*
X124364260Y-110197360D01*
G75*
G02*
X124426760Y-110259860I0J-62500D01*
G01*
X124426760Y-110384860D01*
G75*
G02*
X124364260Y-110447360I-62500J0D01*
G01*
X123689260Y-110447360D01*
G75*
G02*
X123626760Y-110384860I0J62500D01*
G01*
G37*
G36*
G01*
X123626760Y-109884860D02*
X123626760Y-109759860D01*
G75*
G02*
X123689260Y-109697360I62500J0D01*
G01*
X124364260Y-109697360D01*
G75*
G02*
X124426760Y-109759860I0J-62500D01*
G01*
X124426760Y-109884860D01*
G75*
G02*
X124364260Y-109947360I-62500J0D01*
G01*
X123689260Y-109947360D01*
G75*
G02*
X123626760Y-109884860I0J62500D01*
G01*
G37*
G36*
G01*
X123626760Y-109384860D02*
X123626760Y-109259860D01*
G75*
G02*
X123689260Y-109197360I62500J0D01*
G01*
X124364260Y-109197360D01*
G75*
G02*
X124426760Y-109259860I0J-62500D01*
G01*
X124426760Y-109384860D01*
G75*
G02*
X124364260Y-109447360I-62500J0D01*
G01*
X123689260Y-109447360D01*
G75*
G02*
X123626760Y-109384860I0J62500D01*
G01*
G37*
G36*
G01*
X123626760Y-108884860D02*
X123626760Y-108759860D01*
G75*
G02*
X123689260Y-108697360I62500J0D01*
G01*
X124364260Y-108697360D01*
G75*
G02*
X124426760Y-108759860I0J-62500D01*
G01*
X124426760Y-108884860D01*
G75*
G02*
X124364260Y-108947360I-62500J0D01*
G01*
X123689260Y-108947360D01*
G75*
G02*
X123626760Y-108884860I0J62500D01*
G01*
G37*
D20*
X165100000Y-77978000D03*
X160909000Y-77978000D03*
D21*
X192024000Y-97155000D03*
X192024000Y-99695000D03*
X192024000Y-102235000D03*
D22*
X192024000Y-104775000D03*
D23*
X150749000Y-92329000D03*
X188722000Y-81280000D03*
X184785000Y-98679000D03*
X156464000Y-115570000D03*
X191262000Y-115062000D03*
X188595000Y-90678000D03*
D24*
X174015400Y-91897200D03*
G36*
G01*
X172640400Y-89809700D02*
X172640400Y-89084700D01*
G75*
G02*
X172702900Y-89022200I62500J0D01*
G01*
X172827900Y-89022200D01*
G75*
G02*
X172890400Y-89084700I0J-62500D01*
G01*
X172890400Y-89809700D01*
G75*
G02*
X172827900Y-89872200I-62500J0D01*
G01*
X172702900Y-89872200D01*
G75*
G02*
X172640400Y-89809700I0J62500D01*
G01*
G37*
G36*
G01*
X173140400Y-89809700D02*
X173140400Y-89084700D01*
G75*
G02*
X173202900Y-89022200I62500J0D01*
G01*
X173327900Y-89022200D01*
G75*
G02*
X173390400Y-89084700I0J-62500D01*
G01*
X173390400Y-89809700D01*
G75*
G02*
X173327900Y-89872200I-62500J0D01*
G01*
X173202900Y-89872200D01*
G75*
G02*
X173140400Y-89809700I0J62500D01*
G01*
G37*
G36*
G01*
X173640400Y-89809700D02*
X173640400Y-89084700D01*
G75*
G02*
X173702900Y-89022200I62500J0D01*
G01*
X173827900Y-89022200D01*
G75*
G02*
X173890400Y-89084700I0J-62500D01*
G01*
X173890400Y-89809700D01*
G75*
G02*
X173827900Y-89872200I-62500J0D01*
G01*
X173702900Y-89872200D01*
G75*
G02*
X173640400Y-89809700I0J62500D01*
G01*
G37*
G36*
G01*
X174140400Y-89809700D02*
X174140400Y-89084700D01*
G75*
G02*
X174202900Y-89022200I62500J0D01*
G01*
X174327900Y-89022200D01*
G75*
G02*
X174390400Y-89084700I0J-62500D01*
G01*
X174390400Y-89809700D01*
G75*
G02*
X174327900Y-89872200I-62500J0D01*
G01*
X174202900Y-89872200D01*
G75*
G02*
X174140400Y-89809700I0J62500D01*
G01*
G37*
G36*
G01*
X174640400Y-89809700D02*
X174640400Y-89084700D01*
G75*
G02*
X174702900Y-89022200I62500J0D01*
G01*
X174827900Y-89022200D01*
G75*
G02*
X174890400Y-89084700I0J-62500D01*
G01*
X174890400Y-89809700D01*
G75*
G02*
X174827900Y-89872200I-62500J0D01*
G01*
X174702900Y-89872200D01*
G75*
G02*
X174640400Y-89809700I0J62500D01*
G01*
G37*
G36*
G01*
X175140400Y-89809700D02*
X175140400Y-89084700D01*
G75*
G02*
X175202900Y-89022200I62500J0D01*
G01*
X175327900Y-89022200D01*
G75*
G02*
X175390400Y-89084700I0J-62500D01*
G01*
X175390400Y-89809700D01*
G75*
G02*
X175327900Y-89872200I-62500J0D01*
G01*
X175202900Y-89872200D01*
G75*
G02*
X175140400Y-89809700I0J62500D01*
G01*
G37*
G36*
G01*
X175540400Y-90209700D02*
X175540400Y-90084700D01*
G75*
G02*
X175602900Y-90022200I62500J0D01*
G01*
X176327900Y-90022200D01*
G75*
G02*
X176390400Y-90084700I0J-62500D01*
G01*
X176390400Y-90209700D01*
G75*
G02*
X176327900Y-90272200I-62500J0D01*
G01*
X175602900Y-90272200D01*
G75*
G02*
X175540400Y-90209700I0J62500D01*
G01*
G37*
G36*
G01*
X175540400Y-90709700D02*
X175540400Y-90584700D01*
G75*
G02*
X175602900Y-90522200I62500J0D01*
G01*
X176327900Y-90522200D01*
G75*
G02*
X176390400Y-90584700I0J-62500D01*
G01*
X176390400Y-90709700D01*
G75*
G02*
X176327900Y-90772200I-62500J0D01*
G01*
X175602900Y-90772200D01*
G75*
G02*
X175540400Y-90709700I0J62500D01*
G01*
G37*
G36*
G01*
X175540400Y-91209700D02*
X175540400Y-91084700D01*
G75*
G02*
X175602900Y-91022200I62500J0D01*
G01*
X176327900Y-91022200D01*
G75*
G02*
X176390400Y-91084700I0J-62500D01*
G01*
X176390400Y-91209700D01*
G75*
G02*
X176327900Y-91272200I-62500J0D01*
G01*
X175602900Y-91272200D01*
G75*
G02*
X175540400Y-91209700I0J62500D01*
G01*
G37*
G36*
G01*
X175540400Y-91709700D02*
X175540400Y-91584700D01*
G75*
G02*
X175602900Y-91522200I62500J0D01*
G01*
X176327900Y-91522200D01*
G75*
G02*
X176390400Y-91584700I0J-62500D01*
G01*
X176390400Y-91709700D01*
G75*
G02*
X176327900Y-91772200I-62500J0D01*
G01*
X175602900Y-91772200D01*
G75*
G02*
X175540400Y-91709700I0J62500D01*
G01*
G37*
G36*
G01*
X175540400Y-92209700D02*
X175540400Y-92084700D01*
G75*
G02*
X175602900Y-92022200I62500J0D01*
G01*
X176327900Y-92022200D01*
G75*
G02*
X176390400Y-92084700I0J-62500D01*
G01*
X176390400Y-92209700D01*
G75*
G02*
X176327900Y-92272200I-62500J0D01*
G01*
X175602900Y-92272200D01*
G75*
G02*
X175540400Y-92209700I0J62500D01*
G01*
G37*
G36*
G01*
X175540400Y-92709700D02*
X175540400Y-92584700D01*
G75*
G02*
X175602900Y-92522200I62500J0D01*
G01*
X176327900Y-92522200D01*
G75*
G02*
X176390400Y-92584700I0J-62500D01*
G01*
X176390400Y-92709700D01*
G75*
G02*
X176327900Y-92772200I-62500J0D01*
G01*
X175602900Y-92772200D01*
G75*
G02*
X175540400Y-92709700I0J62500D01*
G01*
G37*
G36*
G01*
X175540400Y-93209700D02*
X175540400Y-93084700D01*
G75*
G02*
X175602900Y-93022200I62500J0D01*
G01*
X176327900Y-93022200D01*
G75*
G02*
X176390400Y-93084700I0J-62500D01*
G01*
X176390400Y-93209700D01*
G75*
G02*
X176327900Y-93272200I-62500J0D01*
G01*
X175602900Y-93272200D01*
G75*
G02*
X175540400Y-93209700I0J62500D01*
G01*
G37*
G36*
G01*
X175540400Y-93709700D02*
X175540400Y-93584700D01*
G75*
G02*
X175602900Y-93522200I62500J0D01*
G01*
X176327900Y-93522200D01*
G75*
G02*
X176390400Y-93584700I0J-62500D01*
G01*
X176390400Y-93709700D01*
G75*
G02*
X176327900Y-93772200I-62500J0D01*
G01*
X175602900Y-93772200D01*
G75*
G02*
X175540400Y-93709700I0J62500D01*
G01*
G37*
G36*
G01*
X175140400Y-94709700D02*
X175140400Y-93984700D01*
G75*
G02*
X175202900Y-93922200I62500J0D01*
G01*
X175327900Y-93922200D01*
G75*
G02*
X175390400Y-93984700I0J-62500D01*
G01*
X175390400Y-94709700D01*
G75*
G02*
X175327900Y-94772200I-62500J0D01*
G01*
X175202900Y-94772200D01*
G75*
G02*
X175140400Y-94709700I0J62500D01*
G01*
G37*
G36*
G01*
X174640400Y-94709700D02*
X174640400Y-93984700D01*
G75*
G02*
X174702900Y-93922200I62500J0D01*
G01*
X174827900Y-93922200D01*
G75*
G02*
X174890400Y-93984700I0J-62500D01*
G01*
X174890400Y-94709700D01*
G75*
G02*
X174827900Y-94772200I-62500J0D01*
G01*
X174702900Y-94772200D01*
G75*
G02*
X174640400Y-94709700I0J62500D01*
G01*
G37*
G36*
G01*
X174140400Y-94709700D02*
X174140400Y-93984700D01*
G75*
G02*
X174202900Y-93922200I62500J0D01*
G01*
X174327900Y-93922200D01*
G75*
G02*
X174390400Y-93984700I0J-62500D01*
G01*
X174390400Y-94709700D01*
G75*
G02*
X174327900Y-94772200I-62500J0D01*
G01*
X174202900Y-94772200D01*
G75*
G02*
X174140400Y-94709700I0J62500D01*
G01*
G37*
G36*
G01*
X173640400Y-94709700D02*
X173640400Y-93984700D01*
G75*
G02*
X173702900Y-93922200I62500J0D01*
G01*
X173827900Y-93922200D01*
G75*
G02*
X173890400Y-93984700I0J-62500D01*
G01*
X173890400Y-94709700D01*
G75*
G02*
X173827900Y-94772200I-62500J0D01*
G01*
X173702900Y-94772200D01*
G75*
G02*
X173640400Y-94709700I0J62500D01*
G01*
G37*
G36*
G01*
X173140400Y-94709700D02*
X173140400Y-93984700D01*
G75*
G02*
X173202900Y-93922200I62500J0D01*
G01*
X173327900Y-93922200D01*
G75*
G02*
X173390400Y-93984700I0J-62500D01*
G01*
X173390400Y-94709700D01*
G75*
G02*
X173327900Y-94772200I-62500J0D01*
G01*
X173202900Y-94772200D01*
G75*
G02*
X173140400Y-94709700I0J62500D01*
G01*
G37*
G36*
G01*
X172640400Y-94709700D02*
X172640400Y-93984700D01*
G75*
G02*
X172702900Y-93922200I62500J0D01*
G01*
X172827900Y-93922200D01*
G75*
G02*
X172890400Y-93984700I0J-62500D01*
G01*
X172890400Y-94709700D01*
G75*
G02*
X172827900Y-94772200I-62500J0D01*
G01*
X172702900Y-94772200D01*
G75*
G02*
X172640400Y-94709700I0J62500D01*
G01*
G37*
G36*
G01*
X171640400Y-93709700D02*
X171640400Y-93584700D01*
G75*
G02*
X171702900Y-93522200I62500J0D01*
G01*
X172427900Y-93522200D01*
G75*
G02*
X172490400Y-93584700I0J-62500D01*
G01*
X172490400Y-93709700D01*
G75*
G02*
X172427900Y-93772200I-62500J0D01*
G01*
X171702900Y-93772200D01*
G75*
G02*
X171640400Y-93709700I0J62500D01*
G01*
G37*
G36*
G01*
X171640400Y-93209700D02*
X171640400Y-93084700D01*
G75*
G02*
X171702900Y-93022200I62500J0D01*
G01*
X172427900Y-93022200D01*
G75*
G02*
X172490400Y-93084700I0J-62500D01*
G01*
X172490400Y-93209700D01*
G75*
G02*
X172427900Y-93272200I-62500J0D01*
G01*
X171702900Y-93272200D01*
G75*
G02*
X171640400Y-93209700I0J62500D01*
G01*
G37*
G36*
G01*
X171640400Y-92709700D02*
X171640400Y-92584700D01*
G75*
G02*
X171702900Y-92522200I62500J0D01*
G01*
X172427900Y-92522200D01*
G75*
G02*
X172490400Y-92584700I0J-62500D01*
G01*
X172490400Y-92709700D01*
G75*
G02*
X172427900Y-92772200I-62500J0D01*
G01*
X171702900Y-92772200D01*
G75*
G02*
X171640400Y-92709700I0J62500D01*
G01*
G37*
G36*
G01*
X171640400Y-92209700D02*
X171640400Y-92084700D01*
G75*
G02*
X171702900Y-92022200I62500J0D01*
G01*
X172427900Y-92022200D01*
G75*
G02*
X172490400Y-92084700I0J-62500D01*
G01*
X172490400Y-92209700D01*
G75*
G02*
X172427900Y-92272200I-62500J0D01*
G01*
X171702900Y-92272200D01*
G75*
G02*
X171640400Y-92209700I0J62500D01*
G01*
G37*
G36*
G01*
X171640400Y-91709700D02*
X171640400Y-91584700D01*
G75*
G02*
X171702900Y-91522200I62500J0D01*
G01*
X172427900Y-91522200D01*
G75*
G02*
X172490400Y-91584700I0J-62500D01*
G01*
X172490400Y-91709700D01*
G75*
G02*
X172427900Y-91772200I-62500J0D01*
G01*
X171702900Y-91772200D01*
G75*
G02*
X171640400Y-91709700I0J62500D01*
G01*
G37*
G36*
G01*
X171640400Y-91209700D02*
X171640400Y-91084700D01*
G75*
G02*
X171702900Y-91022200I62500J0D01*
G01*
X172427900Y-91022200D01*
G75*
G02*
X172490400Y-91084700I0J-62500D01*
G01*
X172490400Y-91209700D01*
G75*
G02*
X172427900Y-91272200I-62500J0D01*
G01*
X171702900Y-91272200D01*
G75*
G02*
X171640400Y-91209700I0J62500D01*
G01*
G37*
G36*
G01*
X171640400Y-90709700D02*
X171640400Y-90584700D01*
G75*
G02*
X171702900Y-90522200I62500J0D01*
G01*
X172427900Y-90522200D01*
G75*
G02*
X172490400Y-90584700I0J-62500D01*
G01*
X172490400Y-90709700D01*
G75*
G02*
X172427900Y-90772200I-62500J0D01*
G01*
X171702900Y-90772200D01*
G75*
G02*
X171640400Y-90709700I0J62500D01*
G01*
G37*
G36*
G01*
X171640400Y-90209700D02*
X171640400Y-90084700D01*
G75*
G02*
X171702900Y-90022200I62500J0D01*
G01*
X172427900Y-90022200D01*
G75*
G02*
X172490400Y-90084700I0J-62500D01*
G01*
X172490400Y-90209700D01*
G75*
G02*
X172427900Y-90272200I-62500J0D01*
G01*
X171702900Y-90272200D01*
G75*
G02*
X171640400Y-90209700I0J62500D01*
G01*
G37*
D25*
X150622000Y-86360000D03*
X150622000Y-89662000D03*
D26*
X152861500Y-94173000D03*
X152861500Y-95123000D03*
X152861500Y-96073000D03*
X150541500Y-96073000D03*
X150541500Y-95123000D03*
X150541500Y-94173000D03*
D21*
X186436000Y-120015000D03*
X183896000Y-120015000D03*
X181356000Y-120015000D03*
X178816000Y-120015000D03*
X176276000Y-120015000D03*
X173736000Y-120015000D03*
X171196000Y-120015000D03*
X168656000Y-120015000D03*
X166116000Y-120015000D03*
X163576000Y-120015000D03*
X161036000Y-120015000D03*
X158496000Y-120015000D03*
D22*
X155956000Y-120015000D03*
D21*
X139319000Y-120015000D03*
X136779000Y-120015000D03*
X134239000Y-120015000D03*
X131699000Y-120015000D03*
X129159000Y-120015000D03*
X126619000Y-120015000D03*
X124079000Y-120015000D03*
X121539000Y-120015000D03*
X118999000Y-120015000D03*
X116459000Y-120015000D03*
X113919000Y-120015000D03*
X111379000Y-120015000D03*
D22*
X108839000Y-120015000D03*
D27*
X156924500Y-82550000D03*
X158924500Y-81600000D03*
X158924500Y-83500000D03*
D28*
X179387500Y-93583000D03*
X178437500Y-91583000D03*
X180337500Y-91583000D03*
D27*
X169656000Y-91630500D03*
X167656000Y-92580500D03*
X167656000Y-90680500D03*
D29*
X163152000Y-90043000D03*
X163152000Y-89093000D03*
X163152000Y-90993000D03*
X160952000Y-90993000D03*
X160952000Y-90043000D03*
X160952000Y-89093000D03*
G36*
G01*
X176170000Y-115551400D02*
X175620000Y-115551400D01*
G75*
G02*
X175420000Y-115351400I0J200000D01*
G01*
X175420000Y-114951400D01*
G75*
G02*
X175620000Y-114751400I200000J0D01*
G01*
X176170000Y-114751400D01*
G75*
G02*
X176370000Y-114951400I0J-200000D01*
G01*
X176370000Y-115351400D01*
G75*
G02*
X176170000Y-115551400I-200000J0D01*
G01*
G37*
G36*
G01*
X176170000Y-117201400D02*
X175620000Y-117201400D01*
G75*
G02*
X175420000Y-117001400I0J200000D01*
G01*
X175420000Y-116601400D01*
G75*
G02*
X175620000Y-116401400I200000J0D01*
G01*
X176170000Y-116401400D01*
G75*
G02*
X176370000Y-116601400I0J-200000D01*
G01*
X176370000Y-117001400D01*
G75*
G02*
X176170000Y-117201400I-200000J0D01*
G01*
G37*
D30*
X186430600Y-95891600D03*
D31*
G36*
X186680600Y-95891600D02*
G01*
X186180600Y-96641600D01*
X185180600Y-96641600D01*
X185180600Y-95141600D01*
X186180600Y-95141600D01*
X186680600Y-95891600D01*
G37*
G36*
X187680600Y-94891600D02*
G01*
X186930600Y-94391600D01*
X186930600Y-93391600D01*
X188430600Y-93391600D01*
X188430600Y-94391600D01*
X187680600Y-94891600D01*
G37*
D30*
X187680600Y-94691600D03*
X187680600Y-97091600D03*
D31*
G36*
X186930600Y-98391600D02*
G01*
X186930600Y-97391600D01*
X188430600Y-97391600D01*
X188430600Y-98391600D01*
X186930600Y-98391600D01*
G37*
D27*
X173593000Y-97917000D03*
X171593000Y-98867000D03*
X171593000Y-96967000D03*
D21*
X144399000Y-117475000D03*
X144399000Y-114935000D03*
X144399000Y-112395000D03*
X144399000Y-109855000D03*
X144399000Y-107315000D03*
X144399000Y-104775000D03*
X144399000Y-102235000D03*
X144399000Y-99695000D03*
X144399000Y-97155000D03*
X144399000Y-94615000D03*
X144399000Y-92075000D03*
X144399000Y-89535000D03*
X144399000Y-86995000D03*
D22*
X144399000Y-84455000D03*
D21*
X103759000Y-117475000D03*
X103759000Y-114935000D03*
X103759000Y-112395000D03*
X103759000Y-109855000D03*
X103759000Y-107315000D03*
X103759000Y-104775000D03*
X103759000Y-102235000D03*
X103759000Y-99695000D03*
X103759000Y-97155000D03*
X103759000Y-94615000D03*
X103759000Y-92075000D03*
X103759000Y-89535000D03*
X103759000Y-86995000D03*
D22*
X103759000Y-84455000D03*
D23*
X131404360Y-116596160D03*
X129245360Y-116596160D03*
D28*
X117180360Y-104039160D03*
X118130360Y-106039160D03*
X116230360Y-106039160D03*
D23*
X131404360Y-114437160D03*
G36*
G01*
X125338160Y-105708000D02*
X125888160Y-105708000D01*
G75*
G02*
X126088160Y-105908000I0J-200000D01*
G01*
X126088160Y-106308000D01*
G75*
G02*
X125888160Y-106508000I-200000J0D01*
G01*
X125338160Y-106508000D01*
G75*
G02*
X125138160Y-106308000I0J200000D01*
G01*
X125138160Y-105908000D01*
G75*
G02*
X125338160Y-105708000I200000J0D01*
G01*
G37*
G36*
G01*
X125338160Y-104058000D02*
X125888160Y-104058000D01*
G75*
G02*
X126088160Y-104258000I0J-200000D01*
G01*
X126088160Y-104658000D01*
G75*
G02*
X125888160Y-104858000I-200000J0D01*
G01*
X125338160Y-104858000D01*
G75*
G02*
X125138160Y-104658000I0J200000D01*
G01*
X125138160Y-104258000D01*
G75*
G02*
X125338160Y-104058000I200000J0D01*
G01*
G37*
G36*
G01*
X122036160Y-113490560D02*
X122586160Y-113490560D01*
G75*
G02*
X122786160Y-113690560I0J-200000D01*
G01*
X122786160Y-114090560D01*
G75*
G02*
X122586160Y-114290560I-200000J0D01*
G01*
X122036160Y-114290560D01*
G75*
G02*
X121836160Y-114090560I0J200000D01*
G01*
X121836160Y-113690560D01*
G75*
G02*
X122036160Y-113490560I200000J0D01*
G01*
G37*
G36*
G01*
X122036160Y-111840560D02*
X122586160Y-111840560D01*
G75*
G02*
X122786160Y-112040560I0J-200000D01*
G01*
X122786160Y-112440560D01*
G75*
G02*
X122586160Y-112640560I-200000J0D01*
G01*
X122036160Y-112640560D01*
G75*
G02*
X121836160Y-112440560I0J200000D01*
G01*
X121836160Y-112040560D01*
G75*
G02*
X122036160Y-111840560I200000J0D01*
G01*
G37*
G36*
G01*
X132083360Y-111257760D02*
X132083360Y-110707760D01*
G75*
G02*
X132283360Y-110507760I200000J0D01*
G01*
X132683360Y-110507760D01*
G75*
G02*
X132883360Y-110707760I0J-200000D01*
G01*
X132883360Y-111257760D01*
G75*
G02*
X132683360Y-111457760I-200000J0D01*
G01*
X132283360Y-111457760D01*
G75*
G02*
X132083360Y-111257760I0J200000D01*
G01*
G37*
G36*
G01*
X130433360Y-111257760D02*
X130433360Y-110707760D01*
G75*
G02*
X130633360Y-110507760I200000J0D01*
G01*
X131033360Y-110507760D01*
G75*
G02*
X131233360Y-110707760I0J-200000D01*
G01*
X131233360Y-111257760D01*
G75*
G02*
X131033360Y-111457760I-200000J0D01*
G01*
X130633360Y-111457760D01*
G75*
G02*
X130433360Y-111257760I0J200000D01*
G01*
G37*
G36*
G01*
X123296000Y-105708000D02*
X123846000Y-105708000D01*
G75*
G02*
X124046000Y-105908000I0J-200000D01*
G01*
X124046000Y-106308000D01*
G75*
G02*
X123846000Y-106508000I-200000J0D01*
G01*
X123296000Y-106508000D01*
G75*
G02*
X123096000Y-106308000I0J200000D01*
G01*
X123096000Y-105908000D01*
G75*
G02*
X123296000Y-105708000I200000J0D01*
G01*
G37*
G36*
G01*
X123296000Y-104058000D02*
X123846000Y-104058000D01*
G75*
G02*
X124046000Y-104258000I0J-200000D01*
G01*
X124046000Y-104658000D01*
G75*
G02*
X123846000Y-104858000I-200000J0D01*
G01*
X123296000Y-104858000D01*
G75*
G02*
X123096000Y-104658000I0J200000D01*
G01*
X123096000Y-104258000D01*
G75*
G02*
X123296000Y-104058000I200000J0D01*
G01*
G37*
G36*
G01*
X122586160Y-115993360D02*
X122036160Y-115993360D01*
G75*
G02*
X121836160Y-115793360I0J200000D01*
G01*
X121836160Y-115393360D01*
G75*
G02*
X122036160Y-115193360I200000J0D01*
G01*
X122586160Y-115193360D01*
G75*
G02*
X122786160Y-115393360I0J-200000D01*
G01*
X122786160Y-115793360D01*
G75*
G02*
X122586160Y-115993360I-200000J0D01*
G01*
G37*
G36*
G01*
X122586160Y-117643360D02*
X122036160Y-117643360D01*
G75*
G02*
X121836160Y-117443360I0J200000D01*
G01*
X121836160Y-117043360D01*
G75*
G02*
X122036160Y-116843360I200000J0D01*
G01*
X122586160Y-116843360D01*
G75*
G02*
X122786160Y-117043360I0J-200000D01*
G01*
X122786160Y-117443360D01*
G75*
G02*
X122586160Y-117643360I-200000J0D01*
G01*
G37*
G36*
G01*
X131233360Y-109132960D02*
X131233360Y-109682960D01*
G75*
G02*
X131033360Y-109882960I-200000J0D01*
G01*
X130633360Y-109882960D01*
G75*
G02*
X130433360Y-109682960I0J200000D01*
G01*
X130433360Y-109132960D01*
G75*
G02*
X130633360Y-108932960I200000J0D01*
G01*
X131033360Y-108932960D01*
G75*
G02*
X131233360Y-109132960I0J-200000D01*
G01*
G37*
G36*
G01*
X132883360Y-109132960D02*
X132883360Y-109682960D01*
G75*
G02*
X132683360Y-109882960I-200000J0D01*
G01*
X132283360Y-109882960D01*
G75*
G02*
X132083360Y-109682960I0J200000D01*
G01*
X132083360Y-109132960D01*
G75*
G02*
X132283360Y-108932960I200000J0D01*
G01*
X132683360Y-108932960D01*
G75*
G02*
X132883360Y-109132960I0J-200000D01*
G01*
G37*
G36*
G01*
X119334960Y-107966960D02*
X118784960Y-107966960D01*
G75*
G02*
X118584960Y-107766960I0J200000D01*
G01*
X118584960Y-107366960D01*
G75*
G02*
X118784960Y-107166960I200000J0D01*
G01*
X119334960Y-107166960D01*
G75*
G02*
X119534960Y-107366960I0J-200000D01*
G01*
X119534960Y-107766960D01*
G75*
G02*
X119334960Y-107966960I-200000J0D01*
G01*
G37*
G36*
G01*
X119334960Y-109616960D02*
X118784960Y-109616960D01*
G75*
G02*
X118584960Y-109416960I0J200000D01*
G01*
X118584960Y-109016960D01*
G75*
G02*
X118784960Y-108816960I200000J0D01*
G01*
X119334960Y-108816960D01*
G75*
G02*
X119534960Y-109016960I0J-200000D01*
G01*
X119534960Y-109416960D01*
G75*
G02*
X119334960Y-109616960I-200000J0D01*
G01*
G37*
G36*
G01*
X126989160Y-105708000D02*
X127539160Y-105708000D01*
G75*
G02*
X127739160Y-105908000I0J-200000D01*
G01*
X127739160Y-106308000D01*
G75*
G02*
X127539160Y-106508000I-200000J0D01*
G01*
X126989160Y-106508000D01*
G75*
G02*
X126789160Y-106308000I0J200000D01*
G01*
X126789160Y-105908000D01*
G75*
G02*
X126989160Y-105708000I200000J0D01*
G01*
G37*
G36*
G01*
X126989160Y-104058000D02*
X127539160Y-104058000D01*
G75*
G02*
X127739160Y-104258000I0J-200000D01*
G01*
X127739160Y-104658000D01*
G75*
G02*
X127539160Y-104858000I-200000J0D01*
G01*
X126989160Y-104858000D01*
G75*
G02*
X126789160Y-104658000I0J200000D01*
G01*
X126789160Y-104258000D01*
G75*
G02*
X126989160Y-104058000I200000J0D01*
G01*
G37*
G36*
G01*
X126937960Y-116743360D02*
X127437960Y-116743360D01*
G75*
G02*
X127662960Y-116968360I0J-225000D01*
G01*
X127662960Y-117418360D01*
G75*
G02*
X127437960Y-117643360I-225000J0D01*
G01*
X126937960Y-117643360D01*
G75*
G02*
X126712960Y-117418360I0J225000D01*
G01*
X126712960Y-116968360D01*
G75*
G02*
X126937960Y-116743360I225000J0D01*
G01*
G37*
G36*
G01*
X126937960Y-115193360D02*
X127437960Y-115193360D01*
G75*
G02*
X127662960Y-115418360I0J-225000D01*
G01*
X127662960Y-115868360D01*
G75*
G02*
X127437960Y-116093360I-225000J0D01*
G01*
X126937960Y-116093360D01*
G75*
G02*
X126712960Y-115868360I0J225000D01*
G01*
X126712960Y-115418360D01*
G75*
G02*
X126937960Y-115193360I225000J0D01*
G01*
G37*
G36*
G01*
X125312360Y-116743360D02*
X125812360Y-116743360D01*
G75*
G02*
X126037360Y-116968360I0J-225000D01*
G01*
X126037360Y-117418360D01*
G75*
G02*
X125812360Y-117643360I-225000J0D01*
G01*
X125312360Y-117643360D01*
G75*
G02*
X125087360Y-117418360I0J225000D01*
G01*
X125087360Y-116968360D01*
G75*
G02*
X125312360Y-116743360I225000J0D01*
G01*
G37*
G36*
G01*
X125312360Y-115193360D02*
X125812360Y-115193360D01*
G75*
G02*
X126037360Y-115418360I0J-225000D01*
G01*
X126037360Y-115868360D01*
G75*
G02*
X125812360Y-116093360I-225000J0D01*
G01*
X125312360Y-116093360D01*
G75*
G02*
X125087360Y-115868360I0J225000D01*
G01*
X125087360Y-115418360D01*
G75*
G02*
X125312360Y-115193360I225000J0D01*
G01*
G37*
G36*
G01*
X115982160Y-107966960D02*
X115432160Y-107966960D01*
G75*
G02*
X115232160Y-107766960I0J200000D01*
G01*
X115232160Y-107366960D01*
G75*
G02*
X115432160Y-107166960I200000J0D01*
G01*
X115982160Y-107166960D01*
G75*
G02*
X116182160Y-107366960I0J-200000D01*
G01*
X116182160Y-107766960D01*
G75*
G02*
X115982160Y-107966960I-200000J0D01*
G01*
G37*
G36*
G01*
X115982160Y-109616960D02*
X115432160Y-109616960D01*
G75*
G02*
X115232160Y-109416960I0J200000D01*
G01*
X115232160Y-109016960D01*
G75*
G02*
X115432160Y-108816960I200000J0D01*
G01*
X115982160Y-108816960D01*
G75*
G02*
X116182160Y-109016960I0J-200000D01*
G01*
X116182160Y-109416960D01*
G75*
G02*
X115982160Y-109616960I-200000J0D01*
G01*
G37*
D32*
X113522760Y-104151160D03*
X113522760Y-107451160D03*
D28*
X120787160Y-104039160D03*
X121737160Y-106039160D03*
X119837160Y-106039160D03*
G36*
G01*
X123661760Y-116843360D02*
X124211760Y-116843360D01*
G75*
G02*
X124411760Y-117043360I0J-200000D01*
G01*
X124411760Y-117443360D01*
G75*
G02*
X124211760Y-117643360I-200000J0D01*
G01*
X123661760Y-117643360D01*
G75*
G02*
X123461760Y-117443360I0J200000D01*
G01*
X123461760Y-117043360D01*
G75*
G02*
X123661760Y-116843360I200000J0D01*
G01*
G37*
G36*
G01*
X123661760Y-115193360D02*
X124211760Y-115193360D01*
G75*
G02*
X124411760Y-115393360I0J-200000D01*
G01*
X124411760Y-115793360D01*
G75*
G02*
X124211760Y-115993360I-200000J0D01*
G01*
X123661760Y-115993360D01*
G75*
G02*
X123461760Y-115793360I0J200000D01*
G01*
X123461760Y-115393360D01*
G75*
G02*
X123661760Y-115193360I200000J0D01*
G01*
G37*
G36*
G01*
X117108560Y-108816960D02*
X117658560Y-108816960D01*
G75*
G02*
X117858560Y-109016960I0J-200000D01*
G01*
X117858560Y-109416960D01*
G75*
G02*
X117658560Y-109616960I-200000J0D01*
G01*
X117108560Y-109616960D01*
G75*
G02*
X116908560Y-109416960I0J200000D01*
G01*
X116908560Y-109016960D01*
G75*
G02*
X117108560Y-108816960I200000J0D01*
G01*
G37*
G36*
G01*
X117108560Y-107166960D02*
X117658560Y-107166960D01*
G75*
G02*
X117858560Y-107366960I0J-200000D01*
G01*
X117858560Y-107766960D01*
G75*
G02*
X117658560Y-107966960I-200000J0D01*
G01*
X117108560Y-107966960D01*
G75*
G02*
X116908560Y-107766960I0J200000D01*
G01*
X116908560Y-107366960D01*
G75*
G02*
X117108560Y-107166960I200000J0D01*
G01*
G37*
G36*
G01*
X120410160Y-113390560D02*
X120910160Y-113390560D01*
G75*
G02*
X121135160Y-113615560I0J-225000D01*
G01*
X121135160Y-114065560D01*
G75*
G02*
X120910160Y-114290560I-225000J0D01*
G01*
X120410160Y-114290560D01*
G75*
G02*
X120185160Y-114065560I0J225000D01*
G01*
X120185160Y-113615560D01*
G75*
G02*
X120410160Y-113390560I225000J0D01*
G01*
G37*
G36*
G01*
X120410160Y-111840560D02*
X120910160Y-111840560D01*
G75*
G02*
X121135160Y-112065560I0J-225000D01*
G01*
X121135160Y-112515560D01*
G75*
G02*
X120910160Y-112740560I-225000J0D01*
G01*
X120410160Y-112740560D01*
G75*
G02*
X120185160Y-112515560I0J225000D01*
G01*
X120185160Y-112065560D01*
G75*
G02*
X120410160Y-111840560I225000J0D01*
G01*
G37*
G36*
G01*
X132008360Y-108089410D02*
X132008360Y-107576910D01*
G75*
G02*
X132227110Y-107358160I218750J0D01*
G01*
X132664610Y-107358160D01*
G75*
G02*
X132883360Y-107576910I0J-218750D01*
G01*
X132883360Y-108089410D01*
G75*
G02*
X132664610Y-108308160I-218750J0D01*
G01*
X132227110Y-108308160D01*
G75*
G02*
X132008360Y-108089410I0J218750D01*
G01*
G37*
G36*
G01*
X130433360Y-108089410D02*
X130433360Y-107576910D01*
G75*
G02*
X130652110Y-107358160I218750J0D01*
G01*
X131089610Y-107358160D01*
G75*
G02*
X131308360Y-107576910I0J-218750D01*
G01*
X131308360Y-108089410D01*
G75*
G02*
X131089610Y-108308160I-218750J0D01*
G01*
X130652110Y-108308160D01*
G75*
G02*
X130433360Y-108089410I0J218750D01*
G01*
G37*
G36*
G01*
X118784960Y-116843360D02*
X119334960Y-116843360D01*
G75*
G02*
X119534960Y-117043360I0J-200000D01*
G01*
X119534960Y-117443360D01*
G75*
G02*
X119334960Y-117643360I-200000J0D01*
G01*
X118784960Y-117643360D01*
G75*
G02*
X118584960Y-117443360I0J200000D01*
G01*
X118584960Y-117043360D01*
G75*
G02*
X118784960Y-116843360I200000J0D01*
G01*
G37*
G36*
G01*
X118784960Y-115193360D02*
X119334960Y-115193360D01*
G75*
G02*
X119534960Y-115393360I0J-200000D01*
G01*
X119534960Y-115793360D01*
G75*
G02*
X119334960Y-115993360I-200000J0D01*
G01*
X118784960Y-115993360D01*
G75*
G02*
X118584960Y-115793360I0J200000D01*
G01*
X118584960Y-115393360D01*
G75*
G02*
X118784960Y-115193360I200000J0D01*
G01*
G37*
G36*
G01*
X120486360Y-108716960D02*
X120986360Y-108716960D01*
G75*
G02*
X121211360Y-108941960I0J-225000D01*
G01*
X121211360Y-109391960D01*
G75*
G02*
X120986360Y-109616960I-225000J0D01*
G01*
X120486360Y-109616960D01*
G75*
G02*
X120261360Y-109391960I0J225000D01*
G01*
X120261360Y-108941960D01*
G75*
G02*
X120486360Y-108716960I225000J0D01*
G01*
G37*
G36*
G01*
X120486360Y-107166960D02*
X120986360Y-107166960D01*
G75*
G02*
X121211360Y-107391960I0J-225000D01*
G01*
X121211360Y-107841960D01*
G75*
G02*
X120986360Y-108066960I-225000J0D01*
G01*
X120486360Y-108066960D01*
G75*
G02*
X120261360Y-107841960I0J225000D01*
G01*
X120261360Y-107391960D01*
G75*
G02*
X120486360Y-107166960I225000J0D01*
G01*
G37*
G36*
G01*
X120435560Y-116743360D02*
X120935560Y-116743360D01*
G75*
G02*
X121160560Y-116968360I0J-225000D01*
G01*
X121160560Y-117418360D01*
G75*
G02*
X120935560Y-117643360I-225000J0D01*
G01*
X120435560Y-117643360D01*
G75*
G02*
X120210560Y-117418360I0J225000D01*
G01*
X120210560Y-116968360D01*
G75*
G02*
X120435560Y-116743360I225000J0D01*
G01*
G37*
G36*
G01*
X120435560Y-115193360D02*
X120935560Y-115193360D01*
G75*
G02*
X121160560Y-115418360I0J-225000D01*
G01*
X121160560Y-115868360D01*
G75*
G02*
X120935560Y-116093360I-225000J0D01*
G01*
X120435560Y-116093360D01*
G75*
G02*
X120210560Y-115868360I0J225000D01*
G01*
X120210560Y-115418360D01*
G75*
G02*
X120435560Y-115193360I225000J0D01*
G01*
G37*
G36*
G01*
X118759160Y-113390560D02*
X119259160Y-113390560D01*
G75*
G02*
X119484160Y-113615560I0J-225000D01*
G01*
X119484160Y-114065560D01*
G75*
G02*
X119259160Y-114290560I-225000J0D01*
G01*
X118759160Y-114290560D01*
G75*
G02*
X118534160Y-114065560I0J225000D01*
G01*
X118534160Y-113615560D01*
G75*
G02*
X118759160Y-113390560I225000J0D01*
G01*
G37*
G36*
G01*
X118759160Y-111840560D02*
X119259160Y-111840560D01*
G75*
G02*
X119484160Y-112065560I0J-225000D01*
G01*
X119484160Y-112515560D01*
G75*
G02*
X119259160Y-112740560I-225000J0D01*
G01*
X118759160Y-112740560D01*
G75*
G02*
X118534160Y-112515560I0J225000D01*
G01*
X118534160Y-112065560D01*
G75*
G02*
X118759160Y-111840560I225000J0D01*
G01*
G37*
G36*
G01*
X132008360Y-112813810D02*
X132008360Y-112301310D01*
G75*
G02*
X132227110Y-112082560I218750J0D01*
G01*
X132664610Y-112082560D01*
G75*
G02*
X132883360Y-112301310I0J-218750D01*
G01*
X132883360Y-112813810D01*
G75*
G02*
X132664610Y-113032560I-218750J0D01*
G01*
X132227110Y-113032560D01*
G75*
G02*
X132008360Y-112813810I0J218750D01*
G01*
G37*
G36*
G01*
X130433360Y-112813810D02*
X130433360Y-112301310D01*
G75*
G02*
X130652110Y-112082560I218750J0D01*
G01*
X131089610Y-112082560D01*
G75*
G02*
X131308360Y-112301310I0J-218750D01*
G01*
X131308360Y-112813810D01*
G75*
G02*
X131089610Y-113032560I-218750J0D01*
G01*
X130652110Y-113032560D01*
G75*
G02*
X130433360Y-112813810I0J218750D01*
G01*
G37*
D21*
X192024000Y-93345000D03*
D22*
X192024000Y-90805000D03*
D33*
X176022000Y-103378000D03*
D34*
X177292000Y-103378000D03*
G36*
G01*
X171813000Y-88089501D02*
X171813000Y-86789499D01*
G75*
G02*
X172062999Y-86539500I249999J0D01*
G01*
X172713001Y-86539500D01*
G75*
G02*
X172963000Y-86789499I0J-249999D01*
G01*
X172963000Y-88089501D01*
G75*
G02*
X172713001Y-88339500I-249999J0D01*
G01*
X172062999Y-88339500D01*
G75*
G02*
X171813000Y-88089501I0J249999D01*
G01*
G37*
G36*
G01*
X174763000Y-88089501D02*
X174763000Y-86789499D01*
G75*
G02*
X175012999Y-86539500I249999J0D01*
G01*
X175663001Y-86539500D01*
G75*
G02*
X175913000Y-86789499I0J-249999D01*
G01*
X175913000Y-88089501D01*
G75*
G02*
X175663001Y-88339500I-249999J0D01*
G01*
X175012999Y-88339500D01*
G75*
G02*
X174763000Y-88089501I0J249999D01*
G01*
G37*
D35*
X157431700Y-105418400D03*
X158381700Y-105418400D03*
X159331700Y-105418400D03*
X159331700Y-107738400D03*
X158381700Y-107738400D03*
X157431700Y-107738400D03*
G36*
G01*
X177897200Y-115551400D02*
X177347200Y-115551400D01*
G75*
G02*
X177147200Y-115351400I0J200000D01*
G01*
X177147200Y-114951400D01*
G75*
G02*
X177347200Y-114751400I200000J0D01*
G01*
X177897200Y-114751400D01*
G75*
G02*
X178097200Y-114951400I0J-200000D01*
G01*
X178097200Y-115351400D01*
G75*
G02*
X177897200Y-115551400I-200000J0D01*
G01*
G37*
G36*
G01*
X177897200Y-117201400D02*
X177347200Y-117201400D01*
G75*
G02*
X177147200Y-117001400I0J200000D01*
G01*
X177147200Y-116601400D01*
G75*
G02*
X177347200Y-116401400I200000J0D01*
G01*
X177897200Y-116401400D01*
G75*
G02*
X178097200Y-116601400I0J-200000D01*
G01*
X178097200Y-117001400D01*
G75*
G02*
X177897200Y-117201400I-200000J0D01*
G01*
G37*
G36*
G01*
X179074400Y-116401400D02*
X179624400Y-116401400D01*
G75*
G02*
X179824400Y-116601400I0J-200000D01*
G01*
X179824400Y-117001400D01*
G75*
G02*
X179624400Y-117201400I-200000J0D01*
G01*
X179074400Y-117201400D01*
G75*
G02*
X178874400Y-117001400I0J200000D01*
G01*
X178874400Y-116601400D01*
G75*
G02*
X179074400Y-116401400I200000J0D01*
G01*
G37*
G36*
G01*
X179074400Y-114751400D02*
X179624400Y-114751400D01*
G75*
G02*
X179824400Y-114951400I0J-200000D01*
G01*
X179824400Y-115351400D01*
G75*
G02*
X179624400Y-115551400I-200000J0D01*
G01*
X179074400Y-115551400D01*
G75*
G02*
X178874400Y-115351400I0J200000D01*
G01*
X178874400Y-114951400D01*
G75*
G02*
X179074400Y-114751400I200000J0D01*
G01*
G37*
G36*
G01*
X161142000Y-86873900D02*
X161692000Y-86873900D01*
G75*
G02*
X161892000Y-87073900I0J-200000D01*
G01*
X161892000Y-87473900D01*
G75*
G02*
X161692000Y-87673900I-200000J0D01*
G01*
X161142000Y-87673900D01*
G75*
G02*
X160942000Y-87473900I0J200000D01*
G01*
X160942000Y-87073900D01*
G75*
G02*
X161142000Y-86873900I200000J0D01*
G01*
G37*
G36*
G01*
X161142000Y-85223900D02*
X161692000Y-85223900D01*
G75*
G02*
X161892000Y-85423900I0J-200000D01*
G01*
X161892000Y-85823900D01*
G75*
G02*
X161692000Y-86023900I-200000J0D01*
G01*
X161142000Y-86023900D01*
G75*
G02*
X160942000Y-85823900I0J200000D01*
G01*
X160942000Y-85423900D01*
G75*
G02*
X161142000Y-85223900I200000J0D01*
G01*
G37*
D36*
X181991000Y-116670000D03*
X182941000Y-116670000D03*
X181041000Y-116670000D03*
X181041000Y-114470000D03*
X181991000Y-114470000D03*
X182941000Y-114470000D03*
D28*
X176860200Y-113204500D03*
X175910200Y-111204500D03*
X177810200Y-111204500D03*
G36*
G01*
X159058800Y-90075900D02*
X159558800Y-90075900D01*
G75*
G02*
X159783800Y-90300900I0J-225000D01*
G01*
X159783800Y-90750900D01*
G75*
G02*
X159558800Y-90975900I-225000J0D01*
G01*
X159058800Y-90975900D01*
G75*
G02*
X158833800Y-90750900I0J225000D01*
G01*
X158833800Y-90300900D01*
G75*
G02*
X159058800Y-90075900I225000J0D01*
G01*
G37*
G36*
G01*
X159058800Y-88525900D02*
X159558800Y-88525900D01*
G75*
G02*
X159783800Y-88750900I0J-225000D01*
G01*
X159783800Y-89200900D01*
G75*
G02*
X159558800Y-89425900I-225000J0D01*
G01*
X159058800Y-89425900D01*
G75*
G02*
X158833800Y-89200900I0J225000D01*
G01*
X158833800Y-88750900D01*
G75*
G02*
X159058800Y-88525900I225000J0D01*
G01*
G37*
G36*
G01*
X164697600Y-90114000D02*
X165197600Y-90114000D01*
G75*
G02*
X165422600Y-90339000I0J-225000D01*
G01*
X165422600Y-90789000D01*
G75*
G02*
X165197600Y-91014000I-225000J0D01*
G01*
X164697600Y-91014000D01*
G75*
G02*
X164472600Y-90789000I0J225000D01*
G01*
X164472600Y-90339000D01*
G75*
G02*
X164697600Y-90114000I225000J0D01*
G01*
G37*
G36*
G01*
X164697600Y-88564000D02*
X165197600Y-88564000D01*
G75*
G02*
X165422600Y-88789000I0J-225000D01*
G01*
X165422600Y-89239000D01*
G75*
G02*
X165197600Y-89464000I-225000J0D01*
G01*
X164697600Y-89464000D01*
G75*
G02*
X164472600Y-89239000I0J225000D01*
G01*
X164472600Y-88789000D01*
G75*
G02*
X164697600Y-88564000I225000J0D01*
G01*
G37*
D37*
X135900360Y-116404560D03*
X139100360Y-116404560D03*
X135900360Y-111504560D03*
X139100360Y-111504560D03*
D31*
G36*
X161269000Y-101854000D02*
G01*
X161769000Y-101104000D01*
X162769000Y-101104000D01*
X162769000Y-102604000D01*
X161769000Y-102604000D01*
X161269000Y-101854000D01*
G37*
G36*
X160319000Y-101104000D02*
G01*
X161469000Y-101104000D01*
X160969000Y-101854000D01*
X161469000Y-102604000D01*
X160319000Y-102604000D01*
X160319000Y-101104000D01*
G37*
G36*
G01*
X133981000Y-115626000D02*
X133481000Y-115626000D01*
G75*
G02*
X133256000Y-115401000I0J225000D01*
G01*
X133256000Y-114951000D01*
G75*
G02*
X133481000Y-114726000I225000J0D01*
G01*
X133981000Y-114726000D01*
G75*
G02*
X134206000Y-114951000I0J-225000D01*
G01*
X134206000Y-115401000D01*
G75*
G02*
X133981000Y-115626000I-225000J0D01*
G01*
G37*
G36*
G01*
X133981000Y-117176000D02*
X133481000Y-117176000D01*
G75*
G02*
X133256000Y-116951000I0J225000D01*
G01*
X133256000Y-116501000D01*
G75*
G02*
X133481000Y-116276000I225000J0D01*
G01*
X133981000Y-116276000D01*
G75*
G02*
X134206000Y-116501000I0J-225000D01*
G01*
X134206000Y-116951000D01*
G75*
G02*
X133981000Y-117176000I-225000J0D01*
G01*
G37*
D38*
X150367000Y-98679000D03*
D39*
X152742000Y-98679000D03*
D28*
X158049000Y-97298000D03*
X156149000Y-97298000D03*
X157099000Y-99298000D03*
G36*
G01*
X170017500Y-88322998D02*
X170017500Y-89223002D01*
G75*
G02*
X169767502Y-89473000I-249998J0D01*
G01*
X169242498Y-89473000D01*
G75*
G02*
X168992500Y-89223002I0J249998D01*
G01*
X168992500Y-88322998D01*
G75*
G02*
X169242498Y-88073000I249998J0D01*
G01*
X169767502Y-88073000D01*
G75*
G02*
X170017500Y-88322998I0J-249998D01*
G01*
G37*
G36*
G01*
X168192500Y-88322998D02*
X168192500Y-89223002D01*
G75*
G02*
X167942502Y-89473000I-249998J0D01*
G01*
X167417498Y-89473000D01*
G75*
G02*
X167167500Y-89223002I0J249998D01*
G01*
X167167500Y-88322998D01*
G75*
G02*
X167417498Y-88073000I249998J0D01*
G01*
X167942502Y-88073000D01*
G75*
G02*
X168192500Y-88322998I0J-249998D01*
G01*
G37*
G36*
G01*
X179178000Y-89275498D02*
X179178000Y-90175502D01*
G75*
G02*
X178928002Y-90425500I-249998J0D01*
G01*
X178402998Y-90425500D01*
G75*
G02*
X178153000Y-90175502I0J249998D01*
G01*
X178153000Y-89275498D01*
G75*
G02*
X178402998Y-89025500I249998J0D01*
G01*
X178928002Y-89025500D01*
G75*
G02*
X179178000Y-89275498I0J-249998D01*
G01*
G37*
G36*
G01*
X181003000Y-89275498D02*
X181003000Y-90175502D01*
G75*
G02*
X180753002Y-90425500I-249998J0D01*
G01*
X180227998Y-90425500D01*
G75*
G02*
X179978000Y-90175502I0J249998D01*
G01*
X179978000Y-89275498D01*
G75*
G02*
X180227998Y-89025500I249998J0D01*
G01*
X180753002Y-89025500D01*
G75*
G02*
X181003000Y-89275498I0J-249998D01*
G01*
G37*
G36*
G01*
X172168000Y-100309000D02*
X172168000Y-100859000D01*
G75*
G02*
X171968000Y-101059000I-200000J0D01*
G01*
X171568000Y-101059000D01*
G75*
G02*
X171368000Y-100859000I0J200000D01*
G01*
X171368000Y-100309000D01*
G75*
G02*
X171568000Y-100109000I200000J0D01*
G01*
X171968000Y-100109000D01*
G75*
G02*
X172168000Y-100309000I0J-200000D01*
G01*
G37*
G36*
G01*
X173818000Y-100309000D02*
X173818000Y-100859000D01*
G75*
G02*
X173618000Y-101059000I-200000J0D01*
G01*
X173218000Y-101059000D01*
G75*
G02*
X173018000Y-100859000I0J200000D01*
G01*
X173018000Y-100309000D01*
G75*
G02*
X173218000Y-100109000I200000J0D01*
G01*
X173618000Y-100109000D01*
G75*
G02*
X173818000Y-100309000I0J-200000D01*
G01*
G37*
X158049000Y-93615000D03*
X156149000Y-93615000D03*
X157099000Y-95615000D03*
D40*
X164766000Y-82077000D03*
X165666000Y-82077000D03*
X166566000Y-82077000D03*
X167466000Y-82077000D03*
X167466000Y-83277000D03*
X166566000Y-83277000D03*
X165666000Y-83277000D03*
X164766000Y-83277000D03*
G36*
G01*
X165080500Y-107844000D02*
X165080500Y-107294000D01*
G75*
G02*
X165280500Y-107094000I200000J0D01*
G01*
X165680500Y-107094000D01*
G75*
G02*
X165880500Y-107294000I0J-200000D01*
G01*
X165880500Y-107844000D01*
G75*
G02*
X165680500Y-108044000I-200000J0D01*
G01*
X165280500Y-108044000D01*
G75*
G02*
X165080500Y-107844000I0J200000D01*
G01*
G37*
G36*
G01*
X163430500Y-107844000D02*
X163430500Y-107294000D01*
G75*
G02*
X163630500Y-107094000I200000J0D01*
G01*
X164030500Y-107094000D01*
G75*
G02*
X164230500Y-107294000I0J-200000D01*
G01*
X164230500Y-107844000D01*
G75*
G02*
X164030500Y-108044000I-200000J0D01*
G01*
X163630500Y-108044000D01*
G75*
G02*
X163430500Y-107844000I0J200000D01*
G01*
G37*
G36*
G01*
X160634000Y-112693000D02*
X161184000Y-112693000D01*
G75*
G02*
X161384000Y-112893000I0J-200000D01*
G01*
X161384000Y-113293000D01*
G75*
G02*
X161184000Y-113493000I-200000J0D01*
G01*
X160634000Y-113493000D01*
G75*
G02*
X160434000Y-113293000I0J200000D01*
G01*
X160434000Y-112893000D01*
G75*
G02*
X160634000Y-112693000I200000J0D01*
G01*
G37*
G36*
G01*
X160634000Y-111043000D02*
X161184000Y-111043000D01*
G75*
G02*
X161384000Y-111243000I0J-200000D01*
G01*
X161384000Y-111643000D01*
G75*
G02*
X161184000Y-111843000I-200000J0D01*
G01*
X160634000Y-111843000D01*
G75*
G02*
X160434000Y-111643000I0J200000D01*
G01*
X160434000Y-111243000D01*
G75*
G02*
X160634000Y-111043000I200000J0D01*
G01*
G37*
G36*
G01*
X162412000Y-112693000D02*
X162962000Y-112693000D01*
G75*
G02*
X163162000Y-112893000I0J-200000D01*
G01*
X163162000Y-113293000D01*
G75*
G02*
X162962000Y-113493000I-200000J0D01*
G01*
X162412000Y-113493000D01*
G75*
G02*
X162212000Y-113293000I0J200000D01*
G01*
X162212000Y-112893000D01*
G75*
G02*
X162412000Y-112693000I200000J0D01*
G01*
G37*
G36*
G01*
X162412000Y-111043000D02*
X162962000Y-111043000D01*
G75*
G02*
X163162000Y-111243000I0J-200000D01*
G01*
X163162000Y-111643000D01*
G75*
G02*
X162962000Y-111843000I-200000J0D01*
G01*
X162412000Y-111843000D01*
G75*
G02*
X162212000Y-111643000I0J200000D01*
G01*
X162212000Y-111243000D01*
G75*
G02*
X162412000Y-111043000I200000J0D01*
G01*
G37*
G36*
G01*
X157690000Y-112628000D02*
X157690000Y-113178000D01*
G75*
G02*
X157490000Y-113378000I-200000J0D01*
G01*
X157090000Y-113378000D01*
G75*
G02*
X156890000Y-113178000I0J200000D01*
G01*
X156890000Y-112628000D01*
G75*
G02*
X157090000Y-112428000I200000J0D01*
G01*
X157490000Y-112428000D01*
G75*
G02*
X157690000Y-112628000I0J-200000D01*
G01*
G37*
G36*
G01*
X159340000Y-112628000D02*
X159340000Y-113178000D01*
G75*
G02*
X159140000Y-113378000I-200000J0D01*
G01*
X158740000Y-113378000D01*
G75*
G02*
X158540000Y-113178000I0J200000D01*
G01*
X158540000Y-112628000D01*
G75*
G02*
X158740000Y-112428000I200000J0D01*
G01*
X159140000Y-112428000D01*
G75*
G02*
X159340000Y-112628000I0J-200000D01*
G01*
G37*
G36*
G01*
X179751400Y-113162800D02*
X179201400Y-113162800D01*
G75*
G02*
X179001400Y-112962800I0J200000D01*
G01*
X179001400Y-112562800D01*
G75*
G02*
X179201400Y-112362800I200000J0D01*
G01*
X179751400Y-112362800D01*
G75*
G02*
X179951400Y-112562800I0J-200000D01*
G01*
X179951400Y-112962800D01*
G75*
G02*
X179751400Y-113162800I-200000J0D01*
G01*
G37*
G36*
G01*
X179751400Y-111512800D02*
X179201400Y-111512800D01*
G75*
G02*
X179001400Y-111312800I0J200000D01*
G01*
X179001400Y-110912800D01*
G75*
G02*
X179201400Y-110712800I200000J0D01*
G01*
X179751400Y-110712800D01*
G75*
G02*
X179951400Y-110912800I0J-200000D01*
G01*
X179951400Y-111312800D01*
G75*
G02*
X179751400Y-111512800I-200000J0D01*
G01*
G37*
G36*
G01*
X185491800Y-114636000D02*
X184941800Y-114636000D01*
G75*
G02*
X184741800Y-114436000I0J200000D01*
G01*
X184741800Y-114036000D01*
G75*
G02*
X184941800Y-113836000I200000J0D01*
G01*
X185491800Y-113836000D01*
G75*
G02*
X185691800Y-114036000I0J-200000D01*
G01*
X185691800Y-114436000D01*
G75*
G02*
X185491800Y-114636000I-200000J0D01*
G01*
G37*
G36*
G01*
X185491800Y-112986000D02*
X184941800Y-112986000D01*
G75*
G02*
X184741800Y-112786000I0J200000D01*
G01*
X184741800Y-112386000D01*
G75*
G02*
X184941800Y-112186000I200000J0D01*
G01*
X185491800Y-112186000D01*
G75*
G02*
X185691800Y-112386000I0J-200000D01*
G01*
X185691800Y-112786000D01*
G75*
G02*
X185491800Y-112986000I-200000J0D01*
G01*
G37*
G36*
G01*
X187422200Y-114636000D02*
X186872200Y-114636000D01*
G75*
G02*
X186672200Y-114436000I0J200000D01*
G01*
X186672200Y-114036000D01*
G75*
G02*
X186872200Y-113836000I200000J0D01*
G01*
X187422200Y-113836000D01*
G75*
G02*
X187622200Y-114036000I0J-200000D01*
G01*
X187622200Y-114436000D01*
G75*
G02*
X187422200Y-114636000I-200000J0D01*
G01*
G37*
G36*
G01*
X187422200Y-112986000D02*
X186872200Y-112986000D01*
G75*
G02*
X186672200Y-112786000I0J200000D01*
G01*
X186672200Y-112386000D01*
G75*
G02*
X186872200Y-112186000I200000J0D01*
G01*
X187422200Y-112186000D01*
G75*
G02*
X187622200Y-112386000I0J-200000D01*
G01*
X187622200Y-112786000D01*
G75*
G02*
X187422200Y-112986000I-200000J0D01*
G01*
G37*
G36*
G01*
X189276400Y-114636000D02*
X188726400Y-114636000D01*
G75*
G02*
X188526400Y-114436000I0J200000D01*
G01*
X188526400Y-114036000D01*
G75*
G02*
X188726400Y-113836000I200000J0D01*
G01*
X189276400Y-113836000D01*
G75*
G02*
X189476400Y-114036000I0J-200000D01*
G01*
X189476400Y-114436000D01*
G75*
G02*
X189276400Y-114636000I-200000J0D01*
G01*
G37*
G36*
G01*
X189276400Y-112986000D02*
X188726400Y-112986000D01*
G75*
G02*
X188526400Y-112786000I0J200000D01*
G01*
X188526400Y-112386000D01*
G75*
G02*
X188726400Y-112186000I200000J0D01*
G01*
X189276400Y-112186000D01*
G75*
G02*
X189476400Y-112386000I0J-200000D01*
G01*
X189476400Y-112786000D01*
G75*
G02*
X189276400Y-112986000I-200000J0D01*
G01*
G37*
G36*
G01*
X168929500Y-80179500D02*
X168929500Y-80729500D01*
G75*
G02*
X168729500Y-80929500I-200000J0D01*
G01*
X168329500Y-80929500D01*
G75*
G02*
X168129500Y-80729500I0J200000D01*
G01*
X168129500Y-80179500D01*
G75*
G02*
X168329500Y-79979500I200000J0D01*
G01*
X168729500Y-79979500D01*
G75*
G02*
X168929500Y-80179500I0J-200000D01*
G01*
G37*
G36*
G01*
X170579500Y-80179500D02*
X170579500Y-80729500D01*
G75*
G02*
X170379500Y-80929500I-200000J0D01*
G01*
X169979500Y-80929500D01*
G75*
G02*
X169779500Y-80729500I0J200000D01*
G01*
X169779500Y-80179500D01*
G75*
G02*
X169979500Y-79979500I200000J0D01*
G01*
X170379500Y-79979500D01*
G75*
G02*
X170579500Y-80179500I0J-200000D01*
G01*
G37*
G36*
G01*
X162262000Y-80179500D02*
X162262000Y-80729500D01*
G75*
G02*
X162062000Y-80929500I-200000J0D01*
G01*
X161662000Y-80929500D01*
G75*
G02*
X161462000Y-80729500I0J200000D01*
G01*
X161462000Y-80179500D01*
G75*
G02*
X161662000Y-79979500I200000J0D01*
G01*
X162062000Y-79979500D01*
G75*
G02*
X162262000Y-80179500I0J-200000D01*
G01*
G37*
G36*
G01*
X163912000Y-80179500D02*
X163912000Y-80729500D01*
G75*
G02*
X163712000Y-80929500I-200000J0D01*
G01*
X163312000Y-80929500D01*
G75*
G02*
X163112000Y-80729500I0J200000D01*
G01*
X163112000Y-80179500D01*
G75*
G02*
X163312000Y-79979500I200000J0D01*
G01*
X163712000Y-79979500D01*
G75*
G02*
X163912000Y-80179500I0J-200000D01*
G01*
G37*
G36*
G01*
X165197200Y-86023900D02*
X164647200Y-86023900D01*
G75*
G02*
X164447200Y-85823900I0J200000D01*
G01*
X164447200Y-85423900D01*
G75*
G02*
X164647200Y-85223900I200000J0D01*
G01*
X165197200Y-85223900D01*
G75*
G02*
X165397200Y-85423900I0J-200000D01*
G01*
X165397200Y-85823900D01*
G75*
G02*
X165197200Y-86023900I-200000J0D01*
G01*
G37*
G36*
G01*
X165197200Y-87673900D02*
X164647200Y-87673900D01*
G75*
G02*
X164447200Y-87473900I0J200000D01*
G01*
X164447200Y-87073900D01*
G75*
G02*
X164647200Y-86873900I200000J0D01*
G01*
X165197200Y-86873900D01*
G75*
G02*
X165397200Y-87073900I0J-200000D01*
G01*
X165397200Y-87473900D01*
G75*
G02*
X165197200Y-87673900I-200000J0D01*
G01*
G37*
G36*
G01*
X163470000Y-86023900D02*
X162920000Y-86023900D01*
G75*
G02*
X162720000Y-85823900I0J200000D01*
G01*
X162720000Y-85423900D01*
G75*
G02*
X162920000Y-85223900I200000J0D01*
G01*
X163470000Y-85223900D01*
G75*
G02*
X163670000Y-85423900I0J-200000D01*
G01*
X163670000Y-85823900D01*
G75*
G02*
X163470000Y-86023900I-200000J0D01*
G01*
G37*
G36*
G01*
X163470000Y-87673900D02*
X162920000Y-87673900D01*
G75*
G02*
X162720000Y-87473900I0J200000D01*
G01*
X162720000Y-87073900D01*
G75*
G02*
X162920000Y-86873900I200000J0D01*
G01*
X163470000Y-86873900D01*
G75*
G02*
X163670000Y-87073900I0J-200000D01*
G01*
X163670000Y-87473900D01*
G75*
G02*
X163470000Y-87673900I-200000J0D01*
G01*
G37*
D21*
X155829000Y-77851000D03*
D22*
X158369000Y-77851000D03*
G36*
G01*
X165831500Y-116718500D02*
X166781500Y-116718500D01*
G75*
G02*
X167031500Y-116968500I0J-250000D01*
G01*
X167031500Y-117468500D01*
G75*
G02*
X166781500Y-117718500I-250000J0D01*
G01*
X165831500Y-117718500D01*
G75*
G02*
X165581500Y-117468500I0J250000D01*
G01*
X165581500Y-116968500D01*
G75*
G02*
X165831500Y-116718500I250000J0D01*
G01*
G37*
G36*
G01*
X165831500Y-114818500D02*
X166781500Y-114818500D01*
G75*
G02*
X167031500Y-115068500I0J-250000D01*
G01*
X167031500Y-115568500D01*
G75*
G02*
X166781500Y-115818500I-250000J0D01*
G01*
X165831500Y-115818500D01*
G75*
G02*
X165581500Y-115568500I0J250000D01*
G01*
X165581500Y-115068500D01*
G75*
G02*
X165831500Y-114818500I250000J0D01*
G01*
G37*
G36*
G01*
X165044000Y-109622400D02*
X165044000Y-109122400D01*
G75*
G02*
X165269000Y-108897400I225000J0D01*
G01*
X165719000Y-108897400D01*
G75*
G02*
X165944000Y-109122400I0J-225000D01*
G01*
X165944000Y-109622400D01*
G75*
G02*
X165719000Y-109847400I-225000J0D01*
G01*
X165269000Y-109847400D01*
G75*
G02*
X165044000Y-109622400I0J225000D01*
G01*
G37*
G36*
G01*
X163494000Y-109622400D02*
X163494000Y-109122400D01*
G75*
G02*
X163719000Y-108897400I225000J0D01*
G01*
X164169000Y-108897400D01*
G75*
G02*
X164394000Y-109122400I0J-225000D01*
G01*
X164394000Y-109622400D01*
G75*
G02*
X164169000Y-109847400I-225000J0D01*
G01*
X163719000Y-109847400D01*
G75*
G02*
X163494000Y-109622400I0J225000D01*
G01*
G37*
G36*
G01*
X159418000Y-116718500D02*
X160368000Y-116718500D01*
G75*
G02*
X160618000Y-116968500I0J-250000D01*
G01*
X160618000Y-117468500D01*
G75*
G02*
X160368000Y-117718500I-250000J0D01*
G01*
X159418000Y-117718500D01*
G75*
G02*
X159168000Y-117468500I0J250000D01*
G01*
X159168000Y-116968500D01*
G75*
G02*
X159418000Y-116718500I250000J0D01*
G01*
G37*
G36*
G01*
X159418000Y-114818500D02*
X160368000Y-114818500D01*
G75*
G02*
X160618000Y-115068500I0J-250000D01*
G01*
X160618000Y-115568500D01*
G75*
G02*
X160368000Y-115818500I-250000J0D01*
G01*
X159418000Y-115818500D01*
G75*
G02*
X159168000Y-115568500I0J250000D01*
G01*
X159168000Y-115068500D01*
G75*
G02*
X159418000Y-114818500I250000J0D01*
G01*
G37*
G36*
G01*
X161535000Y-116704600D02*
X162485000Y-116704600D01*
G75*
G02*
X162735000Y-116954600I0J-250000D01*
G01*
X162735000Y-117454600D01*
G75*
G02*
X162485000Y-117704600I-250000J0D01*
G01*
X161535000Y-117704600D01*
G75*
G02*
X161285000Y-117454600I0J250000D01*
G01*
X161285000Y-116954600D01*
G75*
G02*
X161535000Y-116704600I250000J0D01*
G01*
G37*
G36*
G01*
X161535000Y-114804600D02*
X162485000Y-114804600D01*
G75*
G02*
X162735000Y-115054600I0J-250000D01*
G01*
X162735000Y-115554600D01*
G75*
G02*
X162485000Y-115804600I-250000J0D01*
G01*
X161535000Y-115804600D01*
G75*
G02*
X161285000Y-115554600I0J250000D01*
G01*
X161285000Y-115054600D01*
G75*
G02*
X161535000Y-114804600I250000J0D01*
G01*
G37*
G36*
G01*
X163736000Y-116704600D02*
X164686000Y-116704600D01*
G75*
G02*
X164936000Y-116954600I0J-250000D01*
G01*
X164936000Y-117454600D01*
G75*
G02*
X164686000Y-117704600I-250000J0D01*
G01*
X163736000Y-117704600D01*
G75*
G02*
X163486000Y-117454600I0J250000D01*
G01*
X163486000Y-116954600D01*
G75*
G02*
X163736000Y-116704600I250000J0D01*
G01*
G37*
G36*
G01*
X163736000Y-114804600D02*
X164686000Y-114804600D01*
G75*
G02*
X164936000Y-115054600I0J-250000D01*
G01*
X164936000Y-115554600D01*
G75*
G02*
X164686000Y-115804600I-250000J0D01*
G01*
X163736000Y-115804600D01*
G75*
G02*
X163486000Y-115554600I0J250000D01*
G01*
X163486000Y-115054600D01*
G75*
G02*
X163736000Y-114804600I250000J0D01*
G01*
G37*
G36*
G01*
X168496400Y-109720400D02*
X168496400Y-108770400D01*
G75*
G02*
X168746400Y-108520400I250000J0D01*
G01*
X169246400Y-108520400D01*
G75*
G02*
X169496400Y-108770400I0J-250000D01*
G01*
X169496400Y-109720400D01*
G75*
G02*
X169246400Y-109970400I-250000J0D01*
G01*
X168746400Y-109970400D01*
G75*
G02*
X168496400Y-109720400I0J250000D01*
G01*
G37*
G36*
G01*
X166596400Y-109720400D02*
X166596400Y-108770400D01*
G75*
G02*
X166846400Y-108520400I250000J0D01*
G01*
X167346400Y-108520400D01*
G75*
G02*
X167596400Y-108770400I0J-250000D01*
G01*
X167596400Y-109720400D01*
G75*
G02*
X167346400Y-109970400I-250000J0D01*
G01*
X166846400Y-109970400D01*
G75*
G02*
X166596400Y-109720400I0J250000D01*
G01*
G37*
G36*
G01*
X168496400Y-105554800D02*
X168496400Y-104604800D01*
G75*
G02*
X168746400Y-104354800I250000J0D01*
G01*
X169246400Y-104354800D01*
G75*
G02*
X169496400Y-104604800I0J-250000D01*
G01*
X169496400Y-105554800D01*
G75*
G02*
X169246400Y-105804800I-250000J0D01*
G01*
X168746400Y-105804800D01*
G75*
G02*
X168496400Y-105554800I0J250000D01*
G01*
G37*
G36*
G01*
X166596400Y-105554800D02*
X166596400Y-104604800D01*
G75*
G02*
X166846400Y-104354800I250000J0D01*
G01*
X167346400Y-104354800D01*
G75*
G02*
X167596400Y-104604800I0J-250000D01*
G01*
X167596400Y-105554800D01*
G75*
G02*
X167346400Y-105804800I-250000J0D01*
G01*
X166846400Y-105804800D01*
G75*
G02*
X166596400Y-105554800I0J250000D01*
G01*
G37*
G36*
G01*
X168496400Y-107637600D02*
X168496400Y-106687600D01*
G75*
G02*
X168746400Y-106437600I250000J0D01*
G01*
X169246400Y-106437600D01*
G75*
G02*
X169496400Y-106687600I0J-250000D01*
G01*
X169496400Y-107637600D01*
G75*
G02*
X169246400Y-107887600I-250000J0D01*
G01*
X168746400Y-107887600D01*
G75*
G02*
X168496400Y-107637600I0J250000D01*
G01*
G37*
G36*
G01*
X166596400Y-107637600D02*
X166596400Y-106687600D01*
G75*
G02*
X166846400Y-106437600I250000J0D01*
G01*
X167346400Y-106437600D01*
G75*
G02*
X167596400Y-106687600I0J-250000D01*
G01*
X167596400Y-107637600D01*
G75*
G02*
X167346400Y-107887600I-250000J0D01*
G01*
X166846400Y-107887600D01*
G75*
G02*
X166596400Y-107637600I0J250000D01*
G01*
G37*
G36*
G01*
X185135500Y-108341500D02*
X186085500Y-108341500D01*
G75*
G02*
X186335500Y-108591500I0J-250000D01*
G01*
X186335500Y-109091500D01*
G75*
G02*
X186085500Y-109341500I-250000J0D01*
G01*
X185135500Y-109341500D01*
G75*
G02*
X184885500Y-109091500I0J250000D01*
G01*
X184885500Y-108591500D01*
G75*
G02*
X185135500Y-108341500I250000J0D01*
G01*
G37*
G36*
G01*
X185135500Y-110241500D02*
X186085500Y-110241500D01*
G75*
G02*
X186335500Y-110491500I0J-250000D01*
G01*
X186335500Y-110991500D01*
G75*
G02*
X186085500Y-111241500I-250000J0D01*
G01*
X185135500Y-111241500D01*
G75*
G02*
X184885500Y-110991500I0J250000D01*
G01*
X184885500Y-110491500D01*
G75*
G02*
X185135500Y-110241500I250000J0D01*
G01*
G37*
G36*
G01*
X183470000Y-112373600D02*
X183470000Y-112873600D01*
G75*
G02*
X183245000Y-113098600I-225000J0D01*
G01*
X182795000Y-113098600D01*
G75*
G02*
X182570000Y-112873600I0J225000D01*
G01*
X182570000Y-112373600D01*
G75*
G02*
X182795000Y-112148600I225000J0D01*
G01*
X183245000Y-112148600D01*
G75*
G02*
X183470000Y-112373600I0J-225000D01*
G01*
G37*
G36*
G01*
X181920000Y-112373600D02*
X181920000Y-112873600D01*
G75*
G02*
X181695000Y-113098600I-225000J0D01*
G01*
X181245000Y-113098600D01*
G75*
G02*
X181020000Y-112873600I0J225000D01*
G01*
X181020000Y-112373600D01*
G75*
G02*
X181245000Y-112148600I225000J0D01*
G01*
X181695000Y-112148600D01*
G75*
G02*
X181920000Y-112373600I0J-225000D01*
G01*
G37*
G36*
G01*
X189256800Y-108336400D02*
X190206800Y-108336400D01*
G75*
G02*
X190456800Y-108586400I0J-250000D01*
G01*
X190456800Y-109086400D01*
G75*
G02*
X190206800Y-109336400I-250000J0D01*
G01*
X189256800Y-109336400D01*
G75*
G02*
X189006800Y-109086400I0J250000D01*
G01*
X189006800Y-108586400D01*
G75*
G02*
X189256800Y-108336400I250000J0D01*
G01*
G37*
G36*
G01*
X189256800Y-110236400D02*
X190206800Y-110236400D01*
G75*
G02*
X190456800Y-110486400I0J-250000D01*
G01*
X190456800Y-110986400D01*
G75*
G02*
X190206800Y-111236400I-250000J0D01*
G01*
X189256800Y-111236400D01*
G75*
G02*
X189006800Y-110986400I0J250000D01*
G01*
X189006800Y-110486400D01*
G75*
G02*
X189256800Y-110236400I250000J0D01*
G01*
G37*
G36*
G01*
X187224800Y-108336400D02*
X188174800Y-108336400D01*
G75*
G02*
X188424800Y-108586400I0J-250000D01*
G01*
X188424800Y-109086400D01*
G75*
G02*
X188174800Y-109336400I-250000J0D01*
G01*
X187224800Y-109336400D01*
G75*
G02*
X186974800Y-109086400I0J250000D01*
G01*
X186974800Y-108586400D01*
G75*
G02*
X187224800Y-108336400I250000J0D01*
G01*
G37*
G36*
G01*
X187224800Y-110236400D02*
X188174800Y-110236400D01*
G75*
G02*
X188424800Y-110486400I0J-250000D01*
G01*
X188424800Y-110986400D01*
G75*
G02*
X188174800Y-111236400I-250000J0D01*
G01*
X187224800Y-111236400D01*
G75*
G02*
X186974800Y-110986400I0J250000D01*
G01*
X186974800Y-110486400D01*
G75*
G02*
X187224800Y-110236400I250000J0D01*
G01*
G37*
G36*
G01*
X191295000Y-108338900D02*
X192245000Y-108338900D01*
G75*
G02*
X192495000Y-108588900I0J-250000D01*
G01*
X192495000Y-109088900D01*
G75*
G02*
X192245000Y-109338900I-250000J0D01*
G01*
X191295000Y-109338900D01*
G75*
G02*
X191045000Y-109088900I0J250000D01*
G01*
X191045000Y-108588900D01*
G75*
G02*
X191295000Y-108338900I250000J0D01*
G01*
G37*
G36*
G01*
X191295000Y-110238900D02*
X192245000Y-110238900D01*
G75*
G02*
X192495000Y-110488900I0J-250000D01*
G01*
X192495000Y-110988900D01*
G75*
G02*
X192245000Y-111238900I-250000J0D01*
G01*
X191295000Y-111238900D01*
G75*
G02*
X191045000Y-110988900I0J250000D01*
G01*
X191045000Y-110488900D01*
G75*
G02*
X191295000Y-110238900I250000J0D01*
G01*
G37*
G36*
G01*
X179773600Y-110009600D02*
X178823600Y-110009600D01*
G75*
G02*
X178573600Y-109759600I0J250000D01*
G01*
X178573600Y-109259600D01*
G75*
G02*
X178823600Y-109009600I250000J0D01*
G01*
X179773600Y-109009600D01*
G75*
G02*
X180023600Y-109259600I0J-250000D01*
G01*
X180023600Y-109759600D01*
G75*
G02*
X179773600Y-110009600I-250000J0D01*
G01*
G37*
G36*
G01*
X179773600Y-108109600D02*
X178823600Y-108109600D01*
G75*
G02*
X178573600Y-107859600I0J250000D01*
G01*
X178573600Y-107359600D01*
G75*
G02*
X178823600Y-107109600I250000J0D01*
G01*
X179773600Y-107109600D01*
G75*
G02*
X180023600Y-107359600I0J-250000D01*
G01*
X180023600Y-107859600D01*
G75*
G02*
X179773600Y-108109600I-250000J0D01*
G01*
G37*
G36*
G01*
X175614500Y-110017200D02*
X174664500Y-110017200D01*
G75*
G02*
X174414500Y-109767200I0J250000D01*
G01*
X174414500Y-109267200D01*
G75*
G02*
X174664500Y-109017200I250000J0D01*
G01*
X175614500Y-109017200D01*
G75*
G02*
X175864500Y-109267200I0J-250000D01*
G01*
X175864500Y-109767200D01*
G75*
G02*
X175614500Y-110017200I-250000J0D01*
G01*
G37*
G36*
G01*
X175614500Y-108117200D02*
X174664500Y-108117200D01*
G75*
G02*
X174414500Y-107867200I0J250000D01*
G01*
X174414500Y-107367200D01*
G75*
G02*
X174664500Y-107117200I250000J0D01*
G01*
X175614500Y-107117200D01*
G75*
G02*
X175864500Y-107367200I0J-250000D01*
G01*
X175864500Y-107867200D01*
G75*
G02*
X175614500Y-108117200I-250000J0D01*
G01*
G37*
G36*
G01*
X177690800Y-110009600D02*
X176740800Y-110009600D01*
G75*
G02*
X176490800Y-109759600I0J250000D01*
G01*
X176490800Y-109259600D01*
G75*
G02*
X176740800Y-109009600I250000J0D01*
G01*
X177690800Y-109009600D01*
G75*
G02*
X177940800Y-109259600I0J-250000D01*
G01*
X177940800Y-109759600D01*
G75*
G02*
X177690800Y-110009600I-250000J0D01*
G01*
G37*
G36*
G01*
X177690800Y-108109600D02*
X176740800Y-108109600D01*
G75*
G02*
X176490800Y-107859600I0J250000D01*
G01*
X176490800Y-107359600D01*
G75*
G02*
X176740800Y-107109600I250000J0D01*
G01*
X177690800Y-107109600D01*
G75*
G02*
X177940800Y-107359600I0J-250000D01*
G01*
X177940800Y-107859600D01*
G75*
G02*
X177690800Y-108109600I-250000J0D01*
G01*
G37*
G36*
G01*
X165664000Y-80204500D02*
X165664000Y-80704500D01*
G75*
G02*
X165439000Y-80929500I-225000J0D01*
G01*
X164989000Y-80929500D01*
G75*
G02*
X164764000Y-80704500I0J225000D01*
G01*
X164764000Y-80204500D01*
G75*
G02*
X164989000Y-79979500I225000J0D01*
G01*
X165439000Y-79979500D01*
G75*
G02*
X165664000Y-80204500I0J-225000D01*
G01*
G37*
G36*
G01*
X167214000Y-80204500D02*
X167214000Y-80704500D01*
G75*
G02*
X166989000Y-80929500I-225000J0D01*
G01*
X166539000Y-80929500D01*
G75*
G02*
X166314000Y-80704500I0J225000D01*
G01*
X166314000Y-80204500D01*
G75*
G02*
X166539000Y-79979500I225000J0D01*
G01*
X166989000Y-79979500D01*
G75*
G02*
X167214000Y-80204500I0J-225000D01*
G01*
G37*
G36*
G01*
X187977000Y-102828200D02*
X187977000Y-105858200D01*
G75*
G02*
X187792000Y-106043200I-185000J0D01*
G01*
X186312000Y-106043200D01*
G75*
G02*
X186127000Y-105858200I0J185000D01*
G01*
X186127000Y-102828200D01*
G75*
G02*
X186312000Y-102643200I185000J0D01*
G01*
X187792000Y-102643200D01*
G75*
G02*
X187977000Y-102828200I0J-185000D01*
G01*
G37*
G36*
G01*
X182427000Y-102828200D02*
X182427000Y-105858200D01*
G75*
G02*
X182242000Y-106043200I-185000J0D01*
G01*
X180762000Y-106043200D01*
G75*
G02*
X180577000Y-105858200I0J185000D01*
G01*
X180577000Y-102828200D01*
G75*
G02*
X180762000Y-102643200I185000J0D01*
G01*
X182242000Y-102643200D01*
G75*
G02*
X182427000Y-102828200I0J-185000D01*
G01*
G37*
G36*
G01*
X172520500Y-118127000D02*
X169490500Y-118127000D01*
G75*
G02*
X169305500Y-117942000I0J185000D01*
G01*
X169305500Y-116462000D01*
G75*
G02*
X169490500Y-116277000I185000J0D01*
G01*
X172520500Y-116277000D01*
G75*
G02*
X172705500Y-116462000I0J-185000D01*
G01*
X172705500Y-117942000D01*
G75*
G02*
X172520500Y-118127000I-185000J0D01*
G01*
G37*
G36*
G01*
X172520500Y-112577000D02*
X169490500Y-112577000D01*
G75*
G02*
X169305500Y-112392000I0J185000D01*
G01*
X169305500Y-110912000D01*
G75*
G02*
X169490500Y-110727000I185000J0D01*
G01*
X172520500Y-110727000D01*
G75*
G02*
X172705500Y-110912000I0J-185000D01*
G01*
X172705500Y-112392000D01*
G75*
G02*
X172520500Y-112577000I-185000J0D01*
G01*
G37*
D36*
X183261000Y-88031500D03*
X184211000Y-88031500D03*
X182311000Y-88031500D03*
X182311000Y-85831500D03*
X183261000Y-85831500D03*
X184211000Y-85831500D03*
G36*
G01*
X157690000Y-110850000D02*
X157690000Y-111400000D01*
G75*
G02*
X157490000Y-111600000I-200000J0D01*
G01*
X157090000Y-111600000D01*
G75*
G02*
X156890000Y-111400000I0J200000D01*
G01*
X156890000Y-110850000D01*
G75*
G02*
X157090000Y-110650000I200000J0D01*
G01*
X157490000Y-110650000D01*
G75*
G02*
X157690000Y-110850000I0J-200000D01*
G01*
G37*
G36*
G01*
X159340000Y-110850000D02*
X159340000Y-111400000D01*
G75*
G02*
X159140000Y-111600000I-200000J0D01*
G01*
X158740000Y-111600000D01*
G75*
G02*
X158540000Y-111400000I0J200000D01*
G01*
X158540000Y-110850000D01*
G75*
G02*
X158740000Y-110650000I200000J0D01*
G01*
X159140000Y-110650000D01*
G75*
G02*
X159340000Y-110850000I0J-200000D01*
G01*
G37*
G36*
G01*
X158565400Y-104161000D02*
X158565400Y-103611000D01*
G75*
G02*
X158765400Y-103411000I200000J0D01*
G01*
X159165400Y-103411000D01*
G75*
G02*
X159365400Y-103611000I0J-200000D01*
G01*
X159365400Y-104161000D01*
G75*
G02*
X159165400Y-104361000I-200000J0D01*
G01*
X158765400Y-104361000D01*
G75*
G02*
X158565400Y-104161000I0J200000D01*
G01*
G37*
G36*
G01*
X156915400Y-104161000D02*
X156915400Y-103611000D01*
G75*
G02*
X157115400Y-103411000I200000J0D01*
G01*
X157515400Y-103411000D01*
G75*
G02*
X157715400Y-103611000I0J-200000D01*
G01*
X157715400Y-104161000D01*
G75*
G02*
X157515400Y-104361000I-200000J0D01*
G01*
X157115400Y-104361000D01*
G75*
G02*
X156915400Y-104161000I0J200000D01*
G01*
G37*
G36*
G01*
X158540000Y-109622000D02*
X158540000Y-109072000D01*
G75*
G02*
X158740000Y-108872000I200000J0D01*
G01*
X159140000Y-108872000D01*
G75*
G02*
X159340000Y-109072000I0J-200000D01*
G01*
X159340000Y-109622000D01*
G75*
G02*
X159140000Y-109822000I-200000J0D01*
G01*
X158740000Y-109822000D01*
G75*
G02*
X158540000Y-109622000I0J200000D01*
G01*
G37*
G36*
G01*
X156890000Y-109622000D02*
X156890000Y-109072000D01*
G75*
G02*
X157090000Y-108872000I200000J0D01*
G01*
X157490000Y-108872000D01*
G75*
G02*
X157690000Y-109072000I0J-200000D01*
G01*
X157690000Y-109622000D01*
G75*
G02*
X157490000Y-109822000I-200000J0D01*
G01*
X157090000Y-109822000D01*
G75*
G02*
X156890000Y-109622000I0J200000D01*
G01*
G37*
G36*
G01*
X151721000Y-114152000D02*
X151721000Y-114702000D01*
G75*
G02*
X151521000Y-114902000I-200000J0D01*
G01*
X151121000Y-114902000D01*
G75*
G02*
X150921000Y-114702000I0J200000D01*
G01*
X150921000Y-114152000D01*
G75*
G02*
X151121000Y-113952000I200000J0D01*
G01*
X151521000Y-113952000D01*
G75*
G02*
X151721000Y-114152000I0J-200000D01*
G01*
G37*
G36*
G01*
X153371000Y-114152000D02*
X153371000Y-114702000D01*
G75*
G02*
X153171000Y-114902000I-200000J0D01*
G01*
X152771000Y-114902000D01*
G75*
G02*
X152571000Y-114702000I0J200000D01*
G01*
X152571000Y-114152000D01*
G75*
G02*
X152771000Y-113952000I200000J0D01*
G01*
X153171000Y-113952000D01*
G75*
G02*
X153371000Y-114152000I0J-200000D01*
G01*
G37*
G36*
G01*
X159491000Y-93644000D02*
X160041000Y-93644000D01*
G75*
G02*
X160241000Y-93844000I0J-200000D01*
G01*
X160241000Y-94244000D01*
G75*
G02*
X160041000Y-94444000I-200000J0D01*
G01*
X159491000Y-94444000D01*
G75*
G02*
X159291000Y-94244000I0J200000D01*
G01*
X159291000Y-93844000D01*
G75*
G02*
X159491000Y-93644000I200000J0D01*
G01*
G37*
G36*
G01*
X159491000Y-95294000D02*
X160041000Y-95294000D01*
G75*
G02*
X160241000Y-95494000I0J-200000D01*
G01*
X160241000Y-95894000D01*
G75*
G02*
X160041000Y-96094000I-200000J0D01*
G01*
X159491000Y-96094000D01*
G75*
G02*
X159291000Y-95894000I0J200000D01*
G01*
X159291000Y-95494000D01*
G75*
G02*
X159491000Y-95294000I200000J0D01*
G01*
G37*
G36*
G01*
X176828000Y-106091400D02*
X176828000Y-105541400D01*
G75*
G02*
X177028000Y-105341400I200000J0D01*
G01*
X177428000Y-105341400D01*
G75*
G02*
X177628000Y-105541400I0J-200000D01*
G01*
X177628000Y-106091400D01*
G75*
G02*
X177428000Y-106291400I-200000J0D01*
G01*
X177028000Y-106291400D01*
G75*
G02*
X176828000Y-106091400I0J200000D01*
G01*
G37*
G36*
G01*
X175178000Y-106091400D02*
X175178000Y-105541400D01*
G75*
G02*
X175378000Y-105341400I200000J0D01*
G01*
X175778000Y-105341400D01*
G75*
G02*
X175978000Y-105541400I0J-200000D01*
G01*
X175978000Y-106091400D01*
G75*
G02*
X175778000Y-106291400I-200000J0D01*
G01*
X175378000Y-106291400D01*
G75*
G02*
X175178000Y-106091400I0J200000D01*
G01*
G37*
G36*
G01*
X168763500Y-86889000D02*
X168763500Y-86339000D01*
G75*
G02*
X168963500Y-86139000I200000J0D01*
G01*
X169363500Y-86139000D01*
G75*
G02*
X169563500Y-86339000I0J-200000D01*
G01*
X169563500Y-86889000D01*
G75*
G02*
X169363500Y-87089000I-200000J0D01*
G01*
X168963500Y-87089000D01*
G75*
G02*
X168763500Y-86889000I0J200000D01*
G01*
G37*
G36*
G01*
X167113500Y-86889000D02*
X167113500Y-86339000D01*
G75*
G02*
X167313500Y-86139000I200000J0D01*
G01*
X167713500Y-86139000D01*
G75*
G02*
X167913500Y-86339000I0J-200000D01*
G01*
X167913500Y-86889000D01*
G75*
G02*
X167713500Y-87089000I-200000J0D01*
G01*
X167313500Y-87089000D01*
G75*
G02*
X167113500Y-86889000I0J200000D01*
G01*
G37*
G36*
G01*
X173018000Y-102484600D02*
X173018000Y-101934600D01*
G75*
G02*
X173218000Y-101734600I200000J0D01*
G01*
X173618000Y-101734600D01*
G75*
G02*
X173818000Y-101934600I0J-200000D01*
G01*
X173818000Y-102484600D01*
G75*
G02*
X173618000Y-102684600I-200000J0D01*
G01*
X173218000Y-102684600D01*
G75*
G02*
X173018000Y-102484600I0J200000D01*
G01*
G37*
G36*
G01*
X171368000Y-102484600D02*
X171368000Y-101934600D01*
G75*
G02*
X171568000Y-101734600I200000J0D01*
G01*
X171968000Y-101734600D01*
G75*
G02*
X172168000Y-101934600I0J-200000D01*
G01*
X172168000Y-102484600D01*
G75*
G02*
X171968000Y-102684600I-200000J0D01*
G01*
X171568000Y-102684600D01*
G75*
G02*
X171368000Y-102484600I0J200000D01*
G01*
G37*
G36*
G01*
X175343000Y-100309000D02*
X175343000Y-100859000D01*
G75*
G02*
X175143000Y-101059000I-200000J0D01*
G01*
X174743000Y-101059000D01*
G75*
G02*
X174543000Y-100859000I0J200000D01*
G01*
X174543000Y-100309000D01*
G75*
G02*
X174743000Y-100109000I200000J0D01*
G01*
X175143000Y-100109000D01*
G75*
G02*
X175343000Y-100309000I0J-200000D01*
G01*
G37*
G36*
G01*
X176993000Y-100309000D02*
X176993000Y-100859000D01*
G75*
G02*
X176793000Y-101059000I-200000J0D01*
G01*
X176393000Y-101059000D01*
G75*
G02*
X176193000Y-100859000I0J200000D01*
G01*
X176193000Y-100309000D01*
G75*
G02*
X176393000Y-100109000I200000J0D01*
G01*
X176793000Y-100109000D01*
G75*
G02*
X176993000Y-100309000I0J-200000D01*
G01*
G37*
G36*
G01*
X178518000Y-100309000D02*
X178518000Y-100859000D01*
G75*
G02*
X178318000Y-101059000I-200000J0D01*
G01*
X177918000Y-101059000D01*
G75*
G02*
X177718000Y-100859000I0J200000D01*
G01*
X177718000Y-100309000D01*
G75*
G02*
X177918000Y-100109000I200000J0D01*
G01*
X178318000Y-100109000D01*
G75*
G02*
X178518000Y-100309000I0J-200000D01*
G01*
G37*
G36*
G01*
X180168000Y-100309000D02*
X180168000Y-100859000D01*
G75*
G02*
X179968000Y-101059000I-200000J0D01*
G01*
X179568000Y-101059000D01*
G75*
G02*
X179368000Y-100859000I0J200000D01*
G01*
X179368000Y-100309000D01*
G75*
G02*
X179568000Y-100109000I200000J0D01*
G01*
X179968000Y-100109000D01*
G75*
G02*
X180168000Y-100309000I0J-200000D01*
G01*
G37*
G36*
G01*
X179368000Y-99208000D02*
X179368000Y-98658000D01*
G75*
G02*
X179568000Y-98458000I200000J0D01*
G01*
X179968000Y-98458000D01*
G75*
G02*
X180168000Y-98658000I0J-200000D01*
G01*
X180168000Y-99208000D01*
G75*
G02*
X179968000Y-99408000I-200000J0D01*
G01*
X179568000Y-99408000D01*
G75*
G02*
X179368000Y-99208000I0J200000D01*
G01*
G37*
G36*
G01*
X177718000Y-99208000D02*
X177718000Y-98658000D01*
G75*
G02*
X177918000Y-98458000I200000J0D01*
G01*
X178318000Y-98458000D01*
G75*
G02*
X178518000Y-98658000I0J-200000D01*
G01*
X178518000Y-99208000D01*
G75*
G02*
X178318000Y-99408000I-200000J0D01*
G01*
X177918000Y-99408000D01*
G75*
G02*
X177718000Y-99208000I0J200000D01*
G01*
G37*
G36*
G01*
X154007000Y-86847000D02*
X154007000Y-87397000D01*
G75*
G02*
X153807000Y-87597000I-200000J0D01*
G01*
X153407000Y-87597000D01*
G75*
G02*
X153207000Y-87397000I0J200000D01*
G01*
X153207000Y-86847000D01*
G75*
G02*
X153407000Y-86647000I200000J0D01*
G01*
X153807000Y-86647000D01*
G75*
G02*
X154007000Y-86847000I0J-200000D01*
G01*
G37*
G36*
G01*
X155657000Y-86847000D02*
X155657000Y-87397000D01*
G75*
G02*
X155457000Y-87597000I-200000J0D01*
G01*
X155057000Y-87597000D01*
G75*
G02*
X154857000Y-87397000I0J200000D01*
G01*
X154857000Y-86847000D01*
G75*
G02*
X155057000Y-86647000I200000J0D01*
G01*
X155457000Y-86647000D01*
G75*
G02*
X155657000Y-86847000I0J-200000D01*
G01*
G37*
G36*
G01*
X183153500Y-91101500D02*
X183153500Y-91651500D01*
G75*
G02*
X182953500Y-91851500I-200000J0D01*
G01*
X182553500Y-91851500D01*
G75*
G02*
X182353500Y-91651500I0J200000D01*
G01*
X182353500Y-91101500D01*
G75*
G02*
X182553500Y-90901500I200000J0D01*
G01*
X182953500Y-90901500D01*
G75*
G02*
X183153500Y-91101500I0J-200000D01*
G01*
G37*
G36*
G01*
X184803500Y-91101500D02*
X184803500Y-91651500D01*
G75*
G02*
X184603500Y-91851500I-200000J0D01*
G01*
X184203500Y-91851500D01*
G75*
G02*
X184003500Y-91651500I0J200000D01*
G01*
X184003500Y-91101500D01*
G75*
G02*
X184203500Y-90901500I200000J0D01*
G01*
X184603500Y-90901500D01*
G75*
G02*
X184803500Y-91101500I0J-200000D01*
G01*
G37*
G36*
G01*
X186711000Y-79585000D02*
X186161000Y-79585000D01*
G75*
G02*
X185961000Y-79385000I0J200000D01*
G01*
X185961000Y-78985000D01*
G75*
G02*
X186161000Y-78785000I200000J0D01*
G01*
X186711000Y-78785000D01*
G75*
G02*
X186911000Y-78985000I0J-200000D01*
G01*
X186911000Y-79385000D01*
G75*
G02*
X186711000Y-79585000I-200000J0D01*
G01*
G37*
G36*
G01*
X186711000Y-81235000D02*
X186161000Y-81235000D01*
G75*
G02*
X185961000Y-81035000I0J200000D01*
G01*
X185961000Y-80635000D01*
G75*
G02*
X186161000Y-80435000I200000J0D01*
G01*
X186711000Y-80435000D01*
G75*
G02*
X186911000Y-80635000I0J-200000D01*
G01*
X186911000Y-81035000D01*
G75*
G02*
X186711000Y-81235000I-200000J0D01*
G01*
G37*
G36*
G01*
X182322500Y-78520000D02*
X182122500Y-78520000D01*
G75*
G02*
X182022500Y-78420000I0J100000D01*
G01*
X182022500Y-77145000D01*
G75*
G02*
X182122500Y-77045000I100000J0D01*
G01*
X182322500Y-77045000D01*
G75*
G02*
X182422500Y-77145000I0J-100000D01*
G01*
X182422500Y-78420000D01*
G75*
G02*
X182322500Y-78520000I-100000J0D01*
G01*
G37*
G36*
G01*
X182972500Y-78520000D02*
X182772500Y-78520000D01*
G75*
G02*
X182672500Y-78420000I0J100000D01*
G01*
X182672500Y-77145000D01*
G75*
G02*
X182772500Y-77045000I100000J0D01*
G01*
X182972500Y-77045000D01*
G75*
G02*
X183072500Y-77145000I0J-100000D01*
G01*
X183072500Y-78420000D01*
G75*
G02*
X182972500Y-78520000I-100000J0D01*
G01*
G37*
G36*
G01*
X183622500Y-78520000D02*
X183422500Y-78520000D01*
G75*
G02*
X183322500Y-78420000I0J100000D01*
G01*
X183322500Y-77145000D01*
G75*
G02*
X183422500Y-77045000I100000J0D01*
G01*
X183622500Y-77045000D01*
G75*
G02*
X183722500Y-77145000I0J-100000D01*
G01*
X183722500Y-78420000D01*
G75*
G02*
X183622500Y-78520000I-100000J0D01*
G01*
G37*
G36*
G01*
X184272500Y-78520000D02*
X184072500Y-78520000D01*
G75*
G02*
X183972500Y-78420000I0J100000D01*
G01*
X183972500Y-77145000D01*
G75*
G02*
X184072500Y-77045000I100000J0D01*
G01*
X184272500Y-77045000D01*
G75*
G02*
X184372500Y-77145000I0J-100000D01*
G01*
X184372500Y-78420000D01*
G75*
G02*
X184272500Y-78520000I-100000J0D01*
G01*
G37*
G36*
G01*
X184272500Y-84245000D02*
X184072500Y-84245000D01*
G75*
G02*
X183972500Y-84145000I0J100000D01*
G01*
X183972500Y-82870000D01*
G75*
G02*
X184072500Y-82770000I100000J0D01*
G01*
X184272500Y-82770000D01*
G75*
G02*
X184372500Y-82870000I0J-100000D01*
G01*
X184372500Y-84145000D01*
G75*
G02*
X184272500Y-84245000I-100000J0D01*
G01*
G37*
G36*
G01*
X183622500Y-84245000D02*
X183422500Y-84245000D01*
G75*
G02*
X183322500Y-84145000I0J100000D01*
G01*
X183322500Y-82870000D01*
G75*
G02*
X183422500Y-82770000I100000J0D01*
G01*
X183622500Y-82770000D01*
G75*
G02*
X183722500Y-82870000I0J-100000D01*
G01*
X183722500Y-84145000D01*
G75*
G02*
X183622500Y-84245000I-100000J0D01*
G01*
G37*
G36*
G01*
X182972500Y-84245000D02*
X182772500Y-84245000D01*
G75*
G02*
X182672500Y-84145000I0J100000D01*
G01*
X182672500Y-82870000D01*
G75*
G02*
X182772500Y-82770000I100000J0D01*
G01*
X182972500Y-82770000D01*
G75*
G02*
X183072500Y-82870000I0J-100000D01*
G01*
X183072500Y-84145000D01*
G75*
G02*
X182972500Y-84245000I-100000J0D01*
G01*
G37*
G36*
G01*
X182322500Y-84245000D02*
X182122500Y-84245000D01*
G75*
G02*
X182022500Y-84145000I0J100000D01*
G01*
X182022500Y-82870000D01*
G75*
G02*
X182122500Y-82770000I100000J0D01*
G01*
X182322500Y-82770000D01*
G75*
G02*
X182422500Y-82870000I0J-100000D01*
G01*
X182422500Y-84145000D01*
G75*
G02*
X182322500Y-84245000I-100000J0D01*
G01*
G37*
G36*
G01*
X154082000Y-88643750D02*
X154082000Y-89156250D01*
G75*
G02*
X153863250Y-89375000I-218750J0D01*
G01*
X153425750Y-89375000D01*
G75*
G02*
X153207000Y-89156250I0J218750D01*
G01*
X153207000Y-88643750D01*
G75*
G02*
X153425750Y-88425000I218750J0D01*
G01*
X153863250Y-88425000D01*
G75*
G02*
X154082000Y-88643750I0J-218750D01*
G01*
G37*
G36*
G01*
X155657000Y-88643750D02*
X155657000Y-89156250D01*
G75*
G02*
X155438250Y-89375000I-218750J0D01*
G01*
X155000750Y-89375000D01*
G75*
G02*
X154782000Y-89156250I0J218750D01*
G01*
X154782000Y-88643750D01*
G75*
G02*
X155000750Y-88425000I218750J0D01*
G01*
X155438250Y-88425000D01*
G75*
G02*
X155657000Y-88643750I0J-218750D01*
G01*
G37*
G36*
G01*
X182595000Y-99189250D02*
X182595000Y-98676750D01*
G75*
G02*
X182813750Y-98458000I218750J0D01*
G01*
X183251250Y-98458000D01*
G75*
G02*
X183470000Y-98676750I0J-218750D01*
G01*
X183470000Y-99189250D01*
G75*
G02*
X183251250Y-99408000I-218750J0D01*
G01*
X182813750Y-99408000D01*
G75*
G02*
X182595000Y-99189250I0J218750D01*
G01*
G37*
G36*
G01*
X181020000Y-99189250D02*
X181020000Y-98676750D01*
G75*
G02*
X181238750Y-98458000I218750J0D01*
G01*
X181676250Y-98458000D01*
G75*
G02*
X181895000Y-98676750I0J-218750D01*
G01*
X181895000Y-99189250D01*
G75*
G02*
X181676250Y-99408000I-218750J0D01*
G01*
X181238750Y-99408000D01*
G75*
G02*
X181020000Y-99189250I0J218750D01*
G01*
G37*
G36*
G01*
X158540000Y-101240000D02*
X158540000Y-100690000D01*
G75*
G02*
X158740000Y-100490000I200000J0D01*
G01*
X159140000Y-100490000D01*
G75*
G02*
X159340000Y-100690000I0J-200000D01*
G01*
X159340000Y-101240000D01*
G75*
G02*
X159140000Y-101440000I-200000J0D01*
G01*
X158740000Y-101440000D01*
G75*
G02*
X158540000Y-101240000I0J200000D01*
G01*
G37*
G36*
G01*
X156890000Y-101240000D02*
X156890000Y-100690000D01*
G75*
G02*
X157090000Y-100490000I200000J0D01*
G01*
X157490000Y-100490000D01*
G75*
G02*
X157690000Y-100690000I0J-200000D01*
G01*
X157690000Y-101240000D01*
G75*
G02*
X157490000Y-101440000I-200000J0D01*
G01*
X157090000Y-101440000D01*
G75*
G02*
X156890000Y-101240000I0J200000D01*
G01*
G37*
G36*
G01*
X159491000Y-97327000D02*
X160041000Y-97327000D01*
G75*
G02*
X160241000Y-97527000I0J-200000D01*
G01*
X160241000Y-97927000D01*
G75*
G02*
X160041000Y-98127000I-200000J0D01*
G01*
X159491000Y-98127000D01*
G75*
G02*
X159291000Y-97927000I0J200000D01*
G01*
X159291000Y-97527000D01*
G75*
G02*
X159491000Y-97327000I200000J0D01*
G01*
G37*
G36*
G01*
X159491000Y-98977000D02*
X160041000Y-98977000D01*
G75*
G02*
X160241000Y-99177000I0J-200000D01*
G01*
X160241000Y-99577000D01*
G75*
G02*
X160041000Y-99777000I-200000J0D01*
G01*
X159491000Y-99777000D01*
G75*
G02*
X159291000Y-99577000I0J200000D01*
G01*
X159291000Y-99177000D01*
G75*
G02*
X159491000Y-98977000I200000J0D01*
G01*
G37*
G36*
G01*
X186695502Y-92166500D02*
X185795498Y-92166500D01*
G75*
G02*
X185545500Y-91916502I0J249998D01*
G01*
X185545500Y-91391498D01*
G75*
G02*
X185795498Y-91141500I249998J0D01*
G01*
X186695502Y-91141500D01*
G75*
G02*
X186945500Y-91391498I0J-249998D01*
G01*
X186945500Y-91916502D01*
G75*
G02*
X186695502Y-92166500I-249998J0D01*
G01*
G37*
G36*
G01*
X186695502Y-90341500D02*
X185795498Y-90341500D01*
G75*
G02*
X185545500Y-90091502I0J249998D01*
G01*
X185545500Y-89566498D01*
G75*
G02*
X185795498Y-89316500I249998J0D01*
G01*
X186695502Y-89316500D01*
G75*
G02*
X186945500Y-89566498I0J-249998D01*
G01*
X186945500Y-90091502D01*
G75*
G02*
X186695502Y-90341500I-249998J0D01*
G01*
G37*
X164084000Y-95588000D03*
X165034000Y-95588000D03*
X163134000Y-95588000D03*
X163134000Y-93388000D03*
X164084000Y-93388000D03*
X165034000Y-93388000D03*
X168402000Y-100373000D03*
X167452000Y-100373000D03*
X169352000Y-100373000D03*
X169352000Y-102573000D03*
X168402000Y-102573000D03*
X167452000Y-102573000D03*
X164084000Y-99525000D03*
X165034000Y-99525000D03*
X163134000Y-99525000D03*
X163134000Y-97325000D03*
X164084000Y-97325000D03*
X165034000Y-97325000D03*
G36*
G01*
X161692000Y-96094000D02*
X161142000Y-96094000D01*
G75*
G02*
X160942000Y-95894000I0J200000D01*
G01*
X160942000Y-95494000D01*
G75*
G02*
X161142000Y-95294000I200000J0D01*
G01*
X161692000Y-95294000D01*
G75*
G02*
X161892000Y-95494000I0J-200000D01*
G01*
X161892000Y-95894000D01*
G75*
G02*
X161692000Y-96094000I-200000J0D01*
G01*
G37*
G36*
G01*
X161692000Y-94444000D02*
X161142000Y-94444000D01*
G75*
G02*
X160942000Y-94244000I0J200000D01*
G01*
X160942000Y-93844000D01*
G75*
G02*
X161142000Y-93644000I200000J0D01*
G01*
X161692000Y-93644000D01*
G75*
G02*
X161892000Y-93844000I0J-200000D01*
G01*
X161892000Y-94244000D01*
G75*
G02*
X161692000Y-94444000I-200000J0D01*
G01*
G37*
G36*
G01*
X161692000Y-99777000D02*
X161142000Y-99777000D01*
G75*
G02*
X160942000Y-99577000I0J200000D01*
G01*
X160942000Y-99177000D01*
G75*
G02*
X161142000Y-98977000I200000J0D01*
G01*
X161692000Y-98977000D01*
G75*
G02*
X161892000Y-99177000I0J-200000D01*
G01*
X161892000Y-99577000D01*
G75*
G02*
X161692000Y-99777000I-200000J0D01*
G01*
G37*
G36*
G01*
X161692000Y-98127000D02*
X161142000Y-98127000D01*
G75*
G02*
X160942000Y-97927000I0J200000D01*
G01*
X160942000Y-97527000D01*
G75*
G02*
X161142000Y-97327000I200000J0D01*
G01*
X161692000Y-97327000D01*
G75*
G02*
X161892000Y-97527000I0J-200000D01*
G01*
X161892000Y-97927000D01*
G75*
G02*
X161692000Y-98127000I-200000J0D01*
G01*
G37*
D22*
X167576500Y-77724000D03*
D21*
X170116500Y-77724000D03*
G36*
G01*
X154157000Y-93136000D02*
X154707000Y-93136000D01*
G75*
G02*
X154907000Y-93336000I0J-200000D01*
G01*
X154907000Y-93736000D01*
G75*
G02*
X154707000Y-93936000I-200000J0D01*
G01*
X154157000Y-93936000D01*
G75*
G02*
X153957000Y-93736000I0J200000D01*
G01*
X153957000Y-93336000D01*
G75*
G02*
X154157000Y-93136000I200000J0D01*
G01*
G37*
G36*
G01*
X154157000Y-94786000D02*
X154707000Y-94786000D01*
G75*
G02*
X154907000Y-94986000I0J-200000D01*
G01*
X154907000Y-95386000D01*
G75*
G02*
X154707000Y-95586000I-200000J0D01*
G01*
X154157000Y-95586000D01*
G75*
G02*
X153957000Y-95386000I0J200000D01*
G01*
X153957000Y-94986000D01*
G75*
G02*
X154157000Y-94786000I200000J0D01*
G01*
G37*
G36*
G01*
X184803500Y-89539000D02*
X184803500Y-90039000D01*
G75*
G02*
X184578500Y-90264000I-225000J0D01*
G01*
X184128500Y-90264000D01*
G75*
G02*
X183903500Y-90039000I0J225000D01*
G01*
X183903500Y-89539000D01*
G75*
G02*
X184128500Y-89314000I225000J0D01*
G01*
X184578500Y-89314000D01*
G75*
G02*
X184803500Y-89539000I0J-225000D01*
G01*
G37*
G36*
G01*
X183253500Y-89539000D02*
X183253500Y-90039000D01*
G75*
G02*
X183028500Y-90264000I-225000J0D01*
G01*
X182578500Y-90264000D01*
G75*
G02*
X182353500Y-90039000I0J225000D01*
G01*
X182353500Y-89539000D01*
G75*
G02*
X182578500Y-89314000I225000J0D01*
G01*
X183028500Y-89314000D01*
G75*
G02*
X183253500Y-89539000I0J-225000D01*
G01*
G37*
G36*
G01*
X168585000Y-93984000D02*
X168585000Y-94484000D01*
G75*
G02*
X168360000Y-94709000I-225000J0D01*
G01*
X167910000Y-94709000D01*
G75*
G02*
X167685000Y-94484000I0J225000D01*
G01*
X167685000Y-93984000D01*
G75*
G02*
X167910000Y-93759000I225000J0D01*
G01*
X168360000Y-93759000D01*
G75*
G02*
X168585000Y-93984000I0J-225000D01*
G01*
G37*
G36*
G01*
X170135000Y-93984000D02*
X170135000Y-94484000D01*
G75*
G02*
X169910000Y-94709000I-225000J0D01*
G01*
X169460000Y-94709000D01*
G75*
G02*
X169235000Y-94484000I0J225000D01*
G01*
X169235000Y-93984000D01*
G75*
G02*
X169460000Y-93759000I225000J0D01*
G01*
X169910000Y-93759000D01*
G75*
G02*
X170135000Y-93984000I0J-225000D01*
G01*
G37*
G36*
G01*
X183822000Y-95537000D02*
X183822000Y-96487000D01*
G75*
G02*
X183572000Y-96737000I-250000J0D01*
G01*
X183072000Y-96737000D01*
G75*
G02*
X182822000Y-96487000I0J250000D01*
G01*
X182822000Y-95537000D01*
G75*
G02*
X183072000Y-95287000I250000J0D01*
G01*
X183572000Y-95287000D01*
G75*
G02*
X183822000Y-95537000I0J-250000D01*
G01*
G37*
G36*
G01*
X181922000Y-95537000D02*
X181922000Y-96487000D01*
G75*
G02*
X181672000Y-96737000I-250000J0D01*
G01*
X181172000Y-96737000D01*
G75*
G02*
X180922000Y-96487000I0J250000D01*
G01*
X180922000Y-95537000D01*
G75*
G02*
X181172000Y-95287000I250000J0D01*
G01*
X181672000Y-95287000D01*
G75*
G02*
X181922000Y-95537000I0J-250000D01*
G01*
G37*
G36*
G01*
X169803000Y-96565000D02*
X170303000Y-96565000D01*
G75*
G02*
X170528000Y-96790000I0J-225000D01*
G01*
X170528000Y-97240000D01*
G75*
G02*
X170303000Y-97465000I-225000J0D01*
G01*
X169803000Y-97465000D01*
G75*
G02*
X169578000Y-97240000I0J225000D01*
G01*
X169578000Y-96790000D01*
G75*
G02*
X169803000Y-96565000I225000J0D01*
G01*
G37*
G36*
G01*
X169803000Y-98115000D02*
X170303000Y-98115000D01*
G75*
G02*
X170528000Y-98340000I0J-225000D01*
G01*
X170528000Y-98790000D01*
G75*
G02*
X170303000Y-99015000I-225000J0D01*
G01*
X169803000Y-99015000D01*
G75*
G02*
X169578000Y-98790000I0J225000D01*
G01*
X169578000Y-98340000D01*
G75*
G02*
X169803000Y-98115000I225000J0D01*
G01*
G37*
G36*
G01*
X171890500Y-83876000D02*
X171390500Y-83876000D01*
G75*
G02*
X171165500Y-83651000I0J225000D01*
G01*
X171165500Y-83201000D01*
G75*
G02*
X171390500Y-82976000I225000J0D01*
G01*
X171890500Y-82976000D01*
G75*
G02*
X172115500Y-83201000I0J-225000D01*
G01*
X172115500Y-83651000D01*
G75*
G02*
X171890500Y-83876000I-225000J0D01*
G01*
G37*
G36*
G01*
X171890500Y-85426000D02*
X171390500Y-85426000D01*
G75*
G02*
X171165500Y-85201000I0J225000D01*
G01*
X171165500Y-84751000D01*
G75*
G02*
X171390500Y-84526000I225000J0D01*
G01*
X171890500Y-84526000D01*
G75*
G02*
X172115500Y-84751000I0J-225000D01*
G01*
X172115500Y-85201000D01*
G75*
G02*
X171890500Y-85426000I-225000J0D01*
G01*
G37*
G36*
G01*
X178092000Y-86852999D02*
X178092000Y-88153001D01*
G75*
G02*
X177842001Y-88403000I-249999J0D01*
G01*
X177191999Y-88403000D01*
G75*
G02*
X176942000Y-88153001I0J249999D01*
G01*
X176942000Y-86852999D01*
G75*
G02*
X177191999Y-86603000I249999J0D01*
G01*
X177842001Y-86603000D01*
G75*
G02*
X178092000Y-86852999I0J-249999D01*
G01*
G37*
G36*
G01*
X181042000Y-86852999D02*
X181042000Y-88153001D01*
G75*
G02*
X180792001Y-88403000I-249999J0D01*
G01*
X180141999Y-88403000D01*
G75*
G02*
X179892000Y-88153001I0J249999D01*
G01*
X179892000Y-86852999D01*
G75*
G02*
X180141999Y-86603000I249999J0D01*
G01*
X180792001Y-86603000D01*
G75*
G02*
X181042000Y-86852999I0J-249999D01*
G01*
G37*
G36*
G01*
X188051601Y-86909200D02*
X186801599Y-86909200D01*
G75*
G02*
X186551600Y-86659201I0J249999D01*
G01*
X186551600Y-85959199D01*
G75*
G02*
X186801599Y-85709200I249999J0D01*
G01*
X188051601Y-85709200D01*
G75*
G02*
X188301600Y-85959199I0J-249999D01*
G01*
X188301600Y-86659201D01*
G75*
G02*
X188051601Y-86909200I-249999J0D01*
G01*
G37*
D41*
X187426600Y-84309200D03*
M02*
