G04 #@! TF.GenerationSoftware,KiCad,Pcbnew,(5.1.8)-1*
G04 #@! TF.CreationDate,2021-02-03T20:38:12+01:00*
G04 #@! TF.ProjectId,SuperPower-uC-KiCad,53757065-7250-46f7-9765-722d75432d4b,rev?*
G04 #@! TF.SameCoordinates,Original*
G04 #@! TF.FileFunction,Copper,L3,Inr*
G04 #@! TF.FilePolarity,Positive*
%FSLAX46Y46*%
G04 Gerber Fmt 4.6, Leading zero omitted, Abs format (unit mm)*
G04 Created by KiCad (PCBNEW (5.1.8)-1) date 2021-02-03 20:38:12*
%MOMM*%
%LPD*%
G01*
G04 APERTURE LIST*
G04 #@! TA.AperFunction,ComponentPad*
%ADD10O,1.600000X0.800000*%
G04 #@! TD*
G04 #@! TA.AperFunction,ComponentPad*
%ADD11O,1.900000X0.800000*%
G04 #@! TD*
G04 #@! TA.AperFunction,ComponentPad*
%ADD12C,0.650000*%
G04 #@! TD*
G04 #@! TA.AperFunction,ComponentPad*
%ADD13C,0.500000*%
G04 #@! TD*
G04 #@! TA.AperFunction,ComponentPad*
%ADD14O,1.700000X1.700000*%
G04 #@! TD*
G04 #@! TA.AperFunction,ComponentPad*
%ADD15R,1.700000X1.700000*%
G04 #@! TD*
G04 #@! TA.AperFunction,WasherPad*
%ADD16C,3.000000*%
G04 #@! TD*
G04 #@! TA.AperFunction,ComponentPad*
%ADD17O,1.000000X1.000000*%
G04 #@! TD*
G04 #@! TA.AperFunction,ComponentPad*
%ADD18R,1.000000X1.000000*%
G04 #@! TD*
G04 #@! TA.AperFunction,ComponentPad*
%ADD19O,1.750000X1.200000*%
G04 #@! TD*
G04 #@! TA.AperFunction,ViaPad*
%ADD20C,0.800000*%
G04 #@! TD*
G04 #@! TA.AperFunction,ViaPad*
%ADD21C,0.410000*%
G04 #@! TD*
G04 #@! TA.AperFunction,ViaPad*
%ADD22C,0.610000*%
G04 #@! TD*
G04 #@! TA.AperFunction,ViaPad*
%ADD23C,0.500000*%
G04 #@! TD*
G04 #@! TA.AperFunction,Conductor*
%ADD24C,0.250000*%
G04 #@! TD*
G04 #@! TA.AperFunction,Conductor*
%ADD25C,0.254000*%
G04 #@! TD*
G04 #@! TA.AperFunction,Conductor*
%ADD26C,0.100000*%
G04 #@! TD*
G04 #@! TA.AperFunction,Conductor*
%ADD27C,0.200000*%
G04 #@! TD*
G04 APERTURE END LIST*
D10*
X150465000Y-102228400D03*
X150515000Y-110878400D03*
D11*
X154415000Y-102228400D03*
X154415000Y-110878400D03*
D12*
X122527260Y-89596760D03*
X124362260Y-89596760D03*
X121609760Y-90514260D03*
X121609760Y-92349260D03*
X123444760Y-90514260D03*
X125279760Y-90514260D03*
X123444760Y-92349260D03*
X125279760Y-92349260D03*
X122527260Y-91431760D03*
X122527260Y-93266760D03*
X124362260Y-91431760D03*
X124362260Y-93266760D03*
D13*
X127476760Y-111322360D03*
X126476760Y-111322360D03*
X125476760Y-111322360D03*
X127476760Y-110322360D03*
X126476760Y-110322360D03*
X125476760Y-110322360D03*
X127476760Y-109322360D03*
X126476760Y-109322360D03*
X125476760Y-109322360D03*
D14*
X192024000Y-97155000D03*
X192024000Y-99695000D03*
X192024000Y-102235000D03*
D15*
X192024000Y-104775000D03*
D13*
X175090400Y-93472200D03*
X174015400Y-93472200D03*
X172940400Y-93472200D03*
X175090400Y-92422200D03*
X174015400Y-92422200D03*
X172940400Y-92422200D03*
X175090400Y-91372200D03*
X174015400Y-91372200D03*
X172940400Y-91372200D03*
X175090400Y-90322200D03*
X174015400Y-90322200D03*
X172940400Y-90322200D03*
D16*
X150622000Y-86360000D03*
X150622000Y-89662000D03*
D14*
X186436000Y-120015000D03*
X183896000Y-120015000D03*
X181356000Y-120015000D03*
X178816000Y-120015000D03*
X176276000Y-120015000D03*
X173736000Y-120015000D03*
X171196000Y-120015000D03*
X168656000Y-120015000D03*
X166116000Y-120015000D03*
X163576000Y-120015000D03*
X161036000Y-120015000D03*
X158496000Y-120015000D03*
D15*
X155956000Y-120015000D03*
D14*
X139319000Y-120015000D03*
X136779000Y-120015000D03*
X134239000Y-120015000D03*
X131699000Y-120015000D03*
X129159000Y-120015000D03*
X126619000Y-120015000D03*
X124079000Y-120015000D03*
X121539000Y-120015000D03*
X118999000Y-120015000D03*
X116459000Y-120015000D03*
X113919000Y-120015000D03*
X111379000Y-120015000D03*
D15*
X108839000Y-120015000D03*
D14*
X144399000Y-117475000D03*
X144399000Y-114935000D03*
X144399000Y-112395000D03*
X144399000Y-109855000D03*
X144399000Y-107315000D03*
X144399000Y-104775000D03*
X144399000Y-102235000D03*
X144399000Y-99695000D03*
X144399000Y-97155000D03*
X144399000Y-94615000D03*
X144399000Y-92075000D03*
X144399000Y-89535000D03*
X144399000Y-86995000D03*
D15*
X144399000Y-84455000D03*
D14*
X103759000Y-117475000D03*
X103759000Y-114935000D03*
X103759000Y-112395000D03*
X103759000Y-109855000D03*
X103759000Y-107315000D03*
X103759000Y-104775000D03*
X103759000Y-102235000D03*
X103759000Y-99695000D03*
X103759000Y-97155000D03*
X103759000Y-94615000D03*
X103759000Y-92075000D03*
X103759000Y-89535000D03*
X103759000Y-86995000D03*
D15*
X103759000Y-84455000D03*
D14*
X192024000Y-93345000D03*
D15*
X192024000Y-90805000D03*
D17*
X176022000Y-103378000D03*
D18*
X177292000Y-103378000D03*
D14*
X155829000Y-77851000D03*
D15*
X158369000Y-77851000D03*
X167576500Y-77724000D03*
D14*
X170116500Y-77724000D03*
G04 #@! TA.AperFunction,ComponentPad*
G36*
G01*
X188051601Y-86909200D02*
X186801599Y-86909200D01*
G75*
G02*
X186551600Y-86659201I0J249999D01*
G01*
X186551600Y-85959199D01*
G75*
G02*
X186801599Y-85709200I249999J0D01*
G01*
X188051601Y-85709200D01*
G75*
G02*
X188301600Y-85959199I0J-249999D01*
G01*
X188301600Y-86659201D01*
G75*
G02*
X188051601Y-86909200I-249999J0D01*
G01*
G37*
G04 #@! TD.AperFunction*
D19*
X187426600Y-84309200D03*
D20*
X146812000Y-83566000D03*
X146812000Y-82804000D03*
X146812000Y-82042000D03*
X148590000Y-83566000D03*
X148590000Y-82804000D03*
X148590000Y-82042000D03*
D21*
X148590000Y-81280000D03*
X146812000Y-81280000D03*
X148590000Y-84328000D03*
X146812000Y-84328000D03*
D20*
X183769000Y-82232500D03*
X182847793Y-82264151D03*
X156845000Y-87249000D03*
X157670500Y-87249000D03*
X156845000Y-85534500D03*
X157670500Y-85534500D03*
X158496000Y-87249000D03*
X158496000Y-85534500D03*
X191262000Y-115062000D03*
X146812000Y-114046000D03*
X146812000Y-114808000D03*
X148590000Y-114808000D03*
X148590000Y-114046000D03*
D21*
X148590000Y-116332000D03*
X146812000Y-116332000D03*
X146812000Y-113284000D03*
X148590000Y-113284000D03*
D20*
X146812000Y-115570000D03*
X181356000Y-97282000D03*
X180721000Y-100584000D03*
X172466000Y-98933000D03*
X169164000Y-98171000D03*
X156337000Y-100965000D03*
X159639000Y-101981000D03*
X160020000Y-109220000D03*
X163194989Y-117982989D03*
X165354000Y-117983000D03*
X173863000Y-107442000D03*
X174371000Y-105791000D03*
X178186464Y-106385525D03*
X187198000Y-115316000D03*
X158242000Y-108585000D03*
X160024660Y-92333660D03*
D22*
X120777000Y-106807000D03*
X120142000Y-117983000D03*
X119888000Y-113533010D03*
D20*
X130810000Y-83947000D03*
X117983000Y-83947000D03*
X117533914Y-101912914D03*
X133731000Y-111760000D03*
X133731000Y-112776000D03*
X133731000Y-113792000D03*
X125603000Y-118110000D03*
X127000000Y-118110000D03*
D22*
X119761000Y-116459000D03*
X118491000Y-114681000D03*
D20*
X154432000Y-92583000D03*
X183769000Y-111633000D03*
X163830000Y-113665000D03*
X153416000Y-85979000D03*
X188849000Y-93853000D03*
X155194000Y-96901000D03*
D22*
X167449500Y-93726000D03*
D20*
X187388500Y-79184500D03*
X182395722Y-79413030D03*
X183354307Y-79356807D03*
X164755990Y-91567000D03*
X170053000Y-109220000D03*
X170053004Y-107061000D03*
X170053000Y-105092500D03*
X188658500Y-111506000D03*
X190658755Y-111664755D03*
X192087500Y-111760000D03*
X186503042Y-111629458D03*
D22*
X176403000Y-117411500D03*
D20*
X160909029Y-117983029D03*
D22*
X168148985Y-82042985D03*
D20*
X137922000Y-111506000D03*
X167476590Y-118146410D03*
X179698254Y-106809574D03*
D22*
X165354000Y-108585000D03*
X165988998Y-108585002D03*
D20*
X180705723Y-111109723D03*
X173863000Y-113030000D03*
X173863000Y-113919000D03*
X173863000Y-114808000D03*
X173863000Y-115697000D03*
X184277000Y-101473000D03*
X183451500Y-101473000D03*
X182626000Y-101473000D03*
X185102500Y-101473000D03*
X185928000Y-101473000D03*
X176657000Y-79883000D03*
X175831500Y-79883000D03*
X175006000Y-79883000D03*
X177482500Y-79883000D03*
X178308000Y-79883000D03*
X161861500Y-81380500D03*
D22*
X166751000Y-79629000D03*
D20*
X156026791Y-92618111D03*
D22*
X182445944Y-110218529D03*
X165293187Y-112399436D03*
X164079010Y-110610609D03*
D20*
X148590000Y-115570000D03*
X151320500Y-113411000D03*
X151320500Y-115443000D03*
X150368000Y-114427000D03*
D22*
X156146500Y-110347503D03*
D20*
X156177979Y-111125000D03*
D22*
X153485980Y-110056591D03*
X153416000Y-103060500D03*
D20*
X175450498Y-112077500D03*
D22*
X176212500Y-87122000D03*
X176593500Y-87820500D03*
D20*
X161036000Y-91821000D03*
D22*
X156145734Y-102874507D03*
D20*
X158091239Y-102455744D03*
D22*
X162623500Y-110617000D03*
D20*
X180594000Y-113284000D03*
X185039000Y-92329000D03*
D22*
X170179504Y-81406504D03*
D20*
X154940000Y-97917000D03*
X154940000Y-99695000D03*
X154940000Y-98806000D03*
D22*
X170751500Y-94742000D03*
X170831617Y-93968527D03*
X169655593Y-90675114D03*
X183007000Y-97155000D03*
X171093825Y-90058868D03*
X178303268Y-93533300D03*
X172720000Y-96901000D03*
X178879500Y-96437974D03*
D20*
X170561000Y-84963000D03*
D22*
X171069096Y-89100958D03*
D20*
X170815000Y-102235000D03*
X170307000Y-100330000D03*
D22*
X171005500Y-86614000D03*
X171005500Y-87249000D03*
X171005500Y-87884000D03*
X170307000Y-86614000D03*
X170307000Y-87249000D03*
X170307000Y-87884000D03*
X177482500Y-85661500D03*
X176847500Y-85661500D03*
X176212500Y-85661500D03*
X171986077Y-88726794D03*
X170815000Y-91694000D03*
X170815000Y-90995500D03*
X179788584Y-90802747D03*
X179782587Y-92404398D03*
X123063000Y-111452360D03*
X133350000Y-110109000D03*
D20*
X160401000Y-86741000D03*
D22*
X169862500Y-95821500D03*
X167044990Y-94551500D03*
D20*
X166116000Y-86296500D03*
X160240839Y-87850839D03*
X162560000Y-88011000D03*
X164211000Y-88011000D03*
D22*
X176777555Y-94617148D03*
X165798500Y-81343500D03*
X159829500Y-81597500D03*
D20*
X159448500Y-88011000D03*
X167386000Y-101600000D03*
X168402000Y-101600000D03*
X163562844Y-100622032D03*
X160147000Y-100203000D03*
X162687000Y-94742000D03*
X160147000Y-96520000D03*
X168402000Y-99313988D03*
X166206000Y-89027000D03*
X167386000Y-99377500D03*
D22*
X136784900Y-112389100D03*
X134874000Y-104902000D03*
X178943000Y-99695000D03*
D20*
X159639000Y-110490000D03*
X151003000Y-96837500D03*
X150050502Y-97218500D03*
D22*
X156146500Y-108935253D03*
X156146500Y-104330500D03*
X156146500Y-103695500D03*
X156146500Y-109537500D03*
D20*
X159956500Y-104457500D03*
D22*
X176281000Y-96140488D03*
X168338500Y-83312000D03*
X125603000Y-103378000D03*
X129413000Y-89027000D03*
X127254000Y-103378000D03*
X130810000Y-87757000D03*
X175510433Y-95625477D03*
X166565015Y-84067515D03*
X134747000Y-101600000D03*
X116395500Y-106870500D03*
D20*
X153289000Y-92583000D03*
X158369000Y-95885000D03*
X184594500Y-79375000D03*
X182260997Y-84899500D03*
D22*
X125606760Y-114300000D03*
X122936000Y-114681000D03*
X128452046Y-106889832D03*
X122682000Y-106299000D03*
D20*
X162069000Y-108267500D03*
X161019000Y-108267500D03*
D22*
X178319868Y-94440867D03*
X180552630Y-92655694D03*
X163671471Y-112717969D03*
X162966393Y-109137710D03*
D23*
X181927500Y-108077000D03*
X181927500Y-107505500D03*
X181927500Y-106934000D03*
D22*
X180657500Y-105600500D03*
X180657500Y-104330500D03*
X180657500Y-103695500D03*
X180657500Y-104965500D03*
X187833000Y-103695500D03*
D23*
X183007000Y-108077000D03*
X183007000Y-106934000D03*
D22*
X187833000Y-105600500D03*
X187833000Y-104965500D03*
X187833000Y-104330500D03*
D23*
X183007000Y-107505500D03*
D22*
X169672000Y-118046500D03*
X170307000Y-118046500D03*
X170942000Y-118046500D03*
X171577000Y-118046500D03*
D23*
X167449500Y-112903000D03*
X168021000Y-112903000D03*
X168592500Y-112903000D03*
D22*
X169672000Y-110807500D03*
X170307000Y-110807500D03*
X170942000Y-110807500D03*
X171577000Y-110807500D03*
D23*
X167449500Y-111887000D03*
X168021000Y-111887000D03*
X168592500Y-111887000D03*
D22*
X118237000Y-109855000D03*
X122047000Y-104394000D03*
D20*
X185482998Y-80835000D03*
X183339194Y-84977694D03*
D22*
X162560000Y-107061000D03*
D20*
X160020000Y-113474500D03*
X158115000Y-113728500D03*
X159766000Y-114363500D03*
X167640000Y-115316000D03*
X165242578Y-116275430D03*
X160972500Y-116205000D03*
X167132000Y-114236500D03*
X190246000Y-112649000D03*
X185928000Y-113156986D03*
X180086000Y-117729000D03*
X180467000Y-115697000D03*
X185667800Y-107892700D03*
X187699800Y-107880300D03*
X189731800Y-107880300D03*
X191763800Y-107880300D03*
D22*
X178435000Y-92392500D03*
X176756325Y-89975664D03*
X119490155Y-118650716D03*
X115125500Y-114236500D03*
X119634000Y-104013000D03*
X116078000Y-112268000D03*
X117729000Y-92837000D03*
X133477000Y-106553000D03*
X119765990Y-99442907D03*
X119765990Y-98552000D03*
X115824000Y-110490000D03*
X118110000Y-85344000D03*
X117114108Y-105444177D03*
X123909926Y-113592684D03*
D20*
X188595000Y-90678000D03*
D22*
X177450462Y-91789538D03*
X181356239Y-89788761D03*
X181356000Y-90424000D03*
X181356000Y-91059000D03*
X177418990Y-91122510D03*
D24*
X183007000Y-97155000D02*
X179385300Y-93533300D01*
X179385300Y-93533300D02*
X178303268Y-93533300D01*
X131445000Y-106553000D02*
X117729000Y-92837000D01*
X133477000Y-106553000D02*
X131445000Y-106553000D01*
D25*
X178054000Y-88265000D02*
X177426831Y-88265000D01*
X177497376Y-88094688D01*
X177533500Y-87913082D01*
X177533500Y-87727918D01*
X177497376Y-87546312D01*
X177426517Y-87375243D01*
X177323645Y-87221285D01*
X177192715Y-87090355D01*
X177152500Y-87063484D01*
X177152500Y-87029418D01*
X177116376Y-86847812D01*
X177045517Y-86676743D01*
X176942645Y-86522785D01*
X176811715Y-86391855D01*
X176657757Y-86288983D01*
X176486688Y-86218124D01*
X176305082Y-86182000D01*
X176119918Y-86182000D01*
X175938312Y-86218124D01*
X175767243Y-86288983D01*
X175613285Y-86391855D01*
X175482355Y-86522785D01*
X175379483Y-86676743D01*
X175308624Y-86847812D01*
X175272500Y-87029418D01*
X175272500Y-87214582D01*
X175308624Y-87396188D01*
X175379483Y-87567257D01*
X175482355Y-87721215D01*
X175613285Y-87852145D01*
X175653500Y-87879016D01*
X175653500Y-87913082D01*
X175689624Y-88094688D01*
X175760169Y-88265000D01*
X175514000Y-88265000D01*
X175390118Y-88277201D01*
X175270996Y-88313336D01*
X175161213Y-88372017D01*
X175064987Y-88450987D01*
X174986017Y-88547213D01*
X174927336Y-88656996D01*
X174891201Y-88776118D01*
X174879000Y-88900000D01*
X174879000Y-89461912D01*
X174832255Y-89471210D01*
X174671195Y-89537923D01*
X174552900Y-89616966D01*
X174434605Y-89537923D01*
X174273545Y-89471210D01*
X174102565Y-89437200D01*
X173928235Y-89437200D01*
X173757255Y-89471210D01*
X173596195Y-89537923D01*
X173477900Y-89616966D01*
X173359605Y-89537923D01*
X173198545Y-89471210D01*
X173027565Y-89437200D01*
X172853235Y-89437200D01*
X172682255Y-89471210D01*
X172521195Y-89537923D01*
X172376245Y-89634776D01*
X172252976Y-89758045D01*
X172156123Y-89902995D01*
X172089410Y-90064055D01*
X172055400Y-90235035D01*
X172055400Y-90409365D01*
X172089410Y-90580345D01*
X172156123Y-90741405D01*
X172226813Y-90847200D01*
X172156123Y-90952995D01*
X172089410Y-91114055D01*
X172055400Y-91285035D01*
X172055400Y-91459365D01*
X172089410Y-91630345D01*
X172156123Y-91791405D01*
X172226813Y-91897200D01*
X172156123Y-92002995D01*
X172089410Y-92164055D01*
X172055400Y-92335035D01*
X172055400Y-92509365D01*
X172089410Y-92680345D01*
X172156123Y-92841405D01*
X172226813Y-92947200D01*
X172156123Y-93052995D01*
X172089410Y-93214055D01*
X172055400Y-93385035D01*
X172055400Y-93559365D01*
X172089410Y-93730345D01*
X172156123Y-93891405D01*
X172252976Y-94036355D01*
X172376245Y-94159624D01*
X172521195Y-94256477D01*
X172682255Y-94323190D01*
X172853235Y-94357200D01*
X173027565Y-94357200D01*
X173198545Y-94323190D01*
X173359605Y-94256477D01*
X173477900Y-94177434D01*
X173596195Y-94256477D01*
X173757255Y-94323190D01*
X173928235Y-94357200D01*
X174102565Y-94357200D01*
X174273545Y-94323190D01*
X174434605Y-94256477D01*
X174552900Y-94177434D01*
X174671195Y-94256477D01*
X174832255Y-94323190D01*
X174879000Y-94332488D01*
X174879000Y-94927550D01*
X174780288Y-95026262D01*
X174677416Y-95180220D01*
X174606557Y-95351289D01*
X174570433Y-95532895D01*
X174570433Y-95718059D01*
X174606557Y-95899665D01*
X174677416Y-96070734D01*
X174780288Y-96224692D01*
X174879000Y-96323404D01*
X174879000Y-96901000D01*
X174891201Y-97024882D01*
X174927336Y-97144004D01*
X174986017Y-97253787D01*
X175064987Y-97350013D01*
X175161213Y-97428983D01*
X175260000Y-97481786D01*
X175260000Y-101232330D01*
X174229975Y-101346777D01*
X174205620Y-101351938D01*
X174182739Y-101361752D01*
X174162213Y-101375841D01*
X174144830Y-101393664D01*
X174131257Y-101414535D01*
X174122018Y-101437654D01*
X174117000Y-101473000D01*
X174117000Y-103378000D01*
X169164000Y-103378000D01*
X169164000Y-102301711D01*
X169205937Y-102259774D01*
X169319205Y-102090256D01*
X169397226Y-101901898D01*
X169437000Y-101701939D01*
X169437000Y-101498061D01*
X169397226Y-101298102D01*
X169319205Y-101109744D01*
X169205937Y-100940226D01*
X169164000Y-100898289D01*
X169164000Y-100015699D01*
X169205937Y-99973762D01*
X169319205Y-99804244D01*
X169397226Y-99615886D01*
X169437000Y-99415927D01*
X169437000Y-99212049D01*
X169429332Y-99173499D01*
X169465898Y-99166226D01*
X169654256Y-99088205D01*
X169823774Y-98974937D01*
X169967650Y-98831061D01*
X171431000Y-98831061D01*
X171431000Y-99034939D01*
X171470774Y-99234898D01*
X171548795Y-99423256D01*
X171662063Y-99592774D01*
X171806226Y-99736937D01*
X171975744Y-99850205D01*
X172164102Y-99928226D01*
X172364061Y-99968000D01*
X172567939Y-99968000D01*
X172767898Y-99928226D01*
X172956256Y-99850205D01*
X173125774Y-99736937D01*
X173269937Y-99592774D01*
X173383205Y-99423256D01*
X173461226Y-99234898D01*
X173501000Y-99034939D01*
X173501000Y-98831061D01*
X173461226Y-98631102D01*
X173383205Y-98442744D01*
X173269937Y-98273226D01*
X173125774Y-98129063D01*
X172956256Y-98015795D01*
X172767898Y-97937774D01*
X172567939Y-97898000D01*
X172364061Y-97898000D01*
X172164102Y-97937774D01*
X171975744Y-98015795D01*
X171806226Y-98129063D01*
X171662063Y-98273226D01*
X171548795Y-98442744D01*
X171470774Y-98631102D01*
X171431000Y-98831061D01*
X169967650Y-98831061D01*
X169967937Y-98830774D01*
X170081205Y-98661256D01*
X170159226Y-98472898D01*
X170199000Y-98272939D01*
X170199000Y-98069061D01*
X170159226Y-97869102D01*
X170081205Y-97680744D01*
X169967937Y-97511226D01*
X169823774Y-97367063D01*
X169654256Y-97253795D01*
X169465898Y-97175774D01*
X169265939Y-97136000D01*
X169164000Y-97136000D01*
X169164000Y-96808418D01*
X171780000Y-96808418D01*
X171780000Y-96993582D01*
X171816124Y-97175188D01*
X171886983Y-97346257D01*
X171989855Y-97500215D01*
X172120785Y-97631145D01*
X172274743Y-97734017D01*
X172445812Y-97804876D01*
X172627418Y-97841000D01*
X172812582Y-97841000D01*
X172994188Y-97804876D01*
X173165257Y-97734017D01*
X173319215Y-97631145D01*
X173450145Y-97500215D01*
X173553017Y-97346257D01*
X173623876Y-97175188D01*
X173660000Y-96993582D01*
X173660000Y-96808418D01*
X173623876Y-96626812D01*
X173553017Y-96455743D01*
X173450145Y-96301785D01*
X173319215Y-96170855D01*
X173165257Y-96067983D01*
X172994188Y-95997124D01*
X172812582Y-95961000D01*
X172627418Y-95961000D01*
X172445812Y-95997124D01*
X172274743Y-96067983D01*
X172120785Y-96170855D01*
X171989855Y-96301785D01*
X171886983Y-96455743D01*
X171816124Y-96626812D01*
X171780000Y-96808418D01*
X169164000Y-96808418D01*
X169164000Y-96647000D01*
X169161560Y-96622224D01*
X169154333Y-96598399D01*
X169142597Y-96576443D01*
X169126803Y-96557197D01*
X169107557Y-96541403D01*
X169085601Y-96529667D01*
X169061776Y-96522440D01*
X169037000Y-96520000D01*
X166814500Y-96520000D01*
X166814500Y-95728918D01*
X168922500Y-95728918D01*
X168922500Y-95914082D01*
X168958624Y-96095688D01*
X169029483Y-96266757D01*
X169132355Y-96420715D01*
X169263285Y-96551645D01*
X169417243Y-96654517D01*
X169588312Y-96725376D01*
X169769918Y-96761500D01*
X169955082Y-96761500D01*
X170136688Y-96725376D01*
X170307757Y-96654517D01*
X170461715Y-96551645D01*
X170592645Y-96420715D01*
X170695517Y-96266757D01*
X170766376Y-96095688D01*
X170802500Y-95914082D01*
X170802500Y-95728918D01*
X170793167Y-95682000D01*
X170844082Y-95682000D01*
X171025688Y-95645876D01*
X171196757Y-95575017D01*
X171350715Y-95472145D01*
X171481645Y-95341215D01*
X171584517Y-95187257D01*
X171655376Y-95016188D01*
X171691500Y-94834582D01*
X171691500Y-94649418D01*
X171655376Y-94467812D01*
X171645104Y-94443013D01*
X171664634Y-94413784D01*
X171735493Y-94242715D01*
X171771617Y-94061109D01*
X171771617Y-93875945D01*
X171735493Y-93694339D01*
X171664634Y-93523270D01*
X171561762Y-93369312D01*
X171430832Y-93238382D01*
X171276874Y-93135510D01*
X171105805Y-93064651D01*
X170924199Y-93028527D01*
X170739035Y-93028527D01*
X170557429Y-93064651D01*
X170386360Y-93135510D01*
X170232402Y-93238382D01*
X170101472Y-93369312D01*
X169998600Y-93523270D01*
X169927741Y-93694339D01*
X169891617Y-93875945D01*
X169891617Y-94061109D01*
X169927741Y-94242715D01*
X169938013Y-94267514D01*
X169918483Y-94296743D01*
X169847624Y-94467812D01*
X169811500Y-94649418D01*
X169811500Y-94834582D01*
X169820833Y-94881500D01*
X169769918Y-94881500D01*
X169588312Y-94917624D01*
X169417243Y-94988483D01*
X169263285Y-95091355D01*
X169132355Y-95222285D01*
X169029483Y-95376243D01*
X168958624Y-95547312D01*
X168922500Y-95728918D01*
X166814500Y-95728918D01*
X166814500Y-95464068D01*
X166952408Y-95491500D01*
X167137572Y-95491500D01*
X167319178Y-95455376D01*
X167490247Y-95384517D01*
X167644205Y-95281645D01*
X167775135Y-95150715D01*
X167878007Y-94996757D01*
X167948866Y-94825688D01*
X167984990Y-94644082D01*
X167984990Y-94498725D01*
X168048715Y-94456145D01*
X168179645Y-94325215D01*
X168282517Y-94171257D01*
X168353376Y-94000188D01*
X168389500Y-93818582D01*
X168389500Y-93633418D01*
X168353376Y-93451812D01*
X168282517Y-93280743D01*
X168179645Y-93126785D01*
X168048715Y-92995855D01*
X167894757Y-92892983D01*
X167723688Y-92822124D01*
X167542082Y-92786000D01*
X167356918Y-92786000D01*
X167175312Y-92822124D01*
X167004243Y-92892983D01*
X166850285Y-92995855D01*
X166814500Y-93031640D01*
X166814500Y-92202000D01*
X169037000Y-92202000D01*
X169061776Y-92199560D01*
X169085601Y-92192333D01*
X169107557Y-92180597D01*
X169126803Y-92164803D01*
X169142597Y-92145557D01*
X169154333Y-92123601D01*
X169161560Y-92099776D01*
X169164000Y-92075000D01*
X169164000Y-91477170D01*
X169210336Y-91508131D01*
X169381405Y-91578990D01*
X169563011Y-91615114D01*
X169748175Y-91615114D01*
X169929781Y-91578990D01*
X170100850Y-91508131D01*
X170254808Y-91405259D01*
X170385738Y-91274329D01*
X170488610Y-91120371D01*
X170559469Y-90949302D01*
X170580003Y-90846071D01*
X170648568Y-90891885D01*
X170819637Y-90962744D01*
X171001243Y-90998868D01*
X171186407Y-90998868D01*
X171368013Y-90962744D01*
X171539082Y-90891885D01*
X171693040Y-90789013D01*
X171823970Y-90658083D01*
X171926842Y-90504125D01*
X171997701Y-90333056D01*
X172033825Y-90151450D01*
X172033825Y-89966286D01*
X171997701Y-89784680D01*
X171926842Y-89613611D01*
X171891961Y-89561408D01*
X171902113Y-89546215D01*
X171972972Y-89375146D01*
X172009096Y-89193540D01*
X172009096Y-89008376D01*
X171972972Y-88826770D01*
X171902113Y-88655701D01*
X171799241Y-88501743D01*
X171668311Y-88370813D01*
X171514353Y-88267941D01*
X171343284Y-88197082D01*
X171161678Y-88160958D01*
X170976514Y-88160958D01*
X170794908Y-88197082D01*
X170623839Y-88267941D01*
X170469881Y-88370813D01*
X170338951Y-88501743D01*
X170236079Y-88655701D01*
X170165220Y-88826770D01*
X170129096Y-89008376D01*
X170129096Y-89193540D01*
X170165220Y-89375146D01*
X170236079Y-89546215D01*
X170270960Y-89598418D01*
X170260808Y-89613611D01*
X170189949Y-89784680D01*
X170169415Y-89887911D01*
X170100850Y-89842097D01*
X169929781Y-89771238D01*
X169748175Y-89735114D01*
X169563011Y-89735114D01*
X169381405Y-89771238D01*
X169210336Y-89842097D01*
X169164000Y-89873058D01*
X169164000Y-84861061D01*
X169526000Y-84861061D01*
X169526000Y-85064939D01*
X169565774Y-85264898D01*
X169643795Y-85453256D01*
X169757063Y-85622774D01*
X169901226Y-85766937D01*
X170070744Y-85880205D01*
X170259102Y-85958226D01*
X170459061Y-85998000D01*
X170662939Y-85998000D01*
X170862898Y-85958226D01*
X171051256Y-85880205D01*
X171220774Y-85766937D01*
X171364937Y-85622774D01*
X171478205Y-85453256D01*
X171556226Y-85264898D01*
X171596000Y-85064939D01*
X171596000Y-84861061D01*
X171556226Y-84661102D01*
X171478205Y-84472744D01*
X171364937Y-84303226D01*
X171220774Y-84159063D01*
X171051256Y-84045795D01*
X170862898Y-83967774D01*
X170662939Y-83928000D01*
X170459061Y-83928000D01*
X170259102Y-83967774D01*
X170070744Y-84045795D01*
X169901226Y-84159063D01*
X169757063Y-84303226D01*
X169643795Y-84472744D01*
X169565774Y-84661102D01*
X169526000Y-84861061D01*
X169164000Y-84861061D01*
X169164000Y-83820000D01*
X178054000Y-83820000D01*
X178054000Y-88265000D01*
G04 #@! TA.AperFunction,Conductor*
D26*
G36*
X178054000Y-88265000D02*
G01*
X177426831Y-88265000D01*
X177497376Y-88094688D01*
X177533500Y-87913082D01*
X177533500Y-87727918D01*
X177497376Y-87546312D01*
X177426517Y-87375243D01*
X177323645Y-87221285D01*
X177192715Y-87090355D01*
X177152500Y-87063484D01*
X177152500Y-87029418D01*
X177116376Y-86847812D01*
X177045517Y-86676743D01*
X176942645Y-86522785D01*
X176811715Y-86391855D01*
X176657757Y-86288983D01*
X176486688Y-86218124D01*
X176305082Y-86182000D01*
X176119918Y-86182000D01*
X175938312Y-86218124D01*
X175767243Y-86288983D01*
X175613285Y-86391855D01*
X175482355Y-86522785D01*
X175379483Y-86676743D01*
X175308624Y-86847812D01*
X175272500Y-87029418D01*
X175272500Y-87214582D01*
X175308624Y-87396188D01*
X175379483Y-87567257D01*
X175482355Y-87721215D01*
X175613285Y-87852145D01*
X175653500Y-87879016D01*
X175653500Y-87913082D01*
X175689624Y-88094688D01*
X175760169Y-88265000D01*
X175514000Y-88265000D01*
X175390118Y-88277201D01*
X175270996Y-88313336D01*
X175161213Y-88372017D01*
X175064987Y-88450987D01*
X174986017Y-88547213D01*
X174927336Y-88656996D01*
X174891201Y-88776118D01*
X174879000Y-88900000D01*
X174879000Y-89461912D01*
X174832255Y-89471210D01*
X174671195Y-89537923D01*
X174552900Y-89616966D01*
X174434605Y-89537923D01*
X174273545Y-89471210D01*
X174102565Y-89437200D01*
X173928235Y-89437200D01*
X173757255Y-89471210D01*
X173596195Y-89537923D01*
X173477900Y-89616966D01*
X173359605Y-89537923D01*
X173198545Y-89471210D01*
X173027565Y-89437200D01*
X172853235Y-89437200D01*
X172682255Y-89471210D01*
X172521195Y-89537923D01*
X172376245Y-89634776D01*
X172252976Y-89758045D01*
X172156123Y-89902995D01*
X172089410Y-90064055D01*
X172055400Y-90235035D01*
X172055400Y-90409365D01*
X172089410Y-90580345D01*
X172156123Y-90741405D01*
X172226813Y-90847200D01*
X172156123Y-90952995D01*
X172089410Y-91114055D01*
X172055400Y-91285035D01*
X172055400Y-91459365D01*
X172089410Y-91630345D01*
X172156123Y-91791405D01*
X172226813Y-91897200D01*
X172156123Y-92002995D01*
X172089410Y-92164055D01*
X172055400Y-92335035D01*
X172055400Y-92509365D01*
X172089410Y-92680345D01*
X172156123Y-92841405D01*
X172226813Y-92947200D01*
X172156123Y-93052995D01*
X172089410Y-93214055D01*
X172055400Y-93385035D01*
X172055400Y-93559365D01*
X172089410Y-93730345D01*
X172156123Y-93891405D01*
X172252976Y-94036355D01*
X172376245Y-94159624D01*
X172521195Y-94256477D01*
X172682255Y-94323190D01*
X172853235Y-94357200D01*
X173027565Y-94357200D01*
X173198545Y-94323190D01*
X173359605Y-94256477D01*
X173477900Y-94177434D01*
X173596195Y-94256477D01*
X173757255Y-94323190D01*
X173928235Y-94357200D01*
X174102565Y-94357200D01*
X174273545Y-94323190D01*
X174434605Y-94256477D01*
X174552900Y-94177434D01*
X174671195Y-94256477D01*
X174832255Y-94323190D01*
X174879000Y-94332488D01*
X174879000Y-94927550D01*
X174780288Y-95026262D01*
X174677416Y-95180220D01*
X174606557Y-95351289D01*
X174570433Y-95532895D01*
X174570433Y-95718059D01*
X174606557Y-95899665D01*
X174677416Y-96070734D01*
X174780288Y-96224692D01*
X174879000Y-96323404D01*
X174879000Y-96901000D01*
X174891201Y-97024882D01*
X174927336Y-97144004D01*
X174986017Y-97253787D01*
X175064987Y-97350013D01*
X175161213Y-97428983D01*
X175260000Y-97481786D01*
X175260000Y-101232330D01*
X174229975Y-101346777D01*
X174205620Y-101351938D01*
X174182739Y-101361752D01*
X174162213Y-101375841D01*
X174144830Y-101393664D01*
X174131257Y-101414535D01*
X174122018Y-101437654D01*
X174117000Y-101473000D01*
X174117000Y-103378000D01*
X169164000Y-103378000D01*
X169164000Y-102301711D01*
X169205937Y-102259774D01*
X169319205Y-102090256D01*
X169397226Y-101901898D01*
X169437000Y-101701939D01*
X169437000Y-101498061D01*
X169397226Y-101298102D01*
X169319205Y-101109744D01*
X169205937Y-100940226D01*
X169164000Y-100898289D01*
X169164000Y-100015699D01*
X169205937Y-99973762D01*
X169319205Y-99804244D01*
X169397226Y-99615886D01*
X169437000Y-99415927D01*
X169437000Y-99212049D01*
X169429332Y-99173499D01*
X169465898Y-99166226D01*
X169654256Y-99088205D01*
X169823774Y-98974937D01*
X169967650Y-98831061D01*
X171431000Y-98831061D01*
X171431000Y-99034939D01*
X171470774Y-99234898D01*
X171548795Y-99423256D01*
X171662063Y-99592774D01*
X171806226Y-99736937D01*
X171975744Y-99850205D01*
X172164102Y-99928226D01*
X172364061Y-99968000D01*
X172567939Y-99968000D01*
X172767898Y-99928226D01*
X172956256Y-99850205D01*
X173125774Y-99736937D01*
X173269937Y-99592774D01*
X173383205Y-99423256D01*
X173461226Y-99234898D01*
X173501000Y-99034939D01*
X173501000Y-98831061D01*
X173461226Y-98631102D01*
X173383205Y-98442744D01*
X173269937Y-98273226D01*
X173125774Y-98129063D01*
X172956256Y-98015795D01*
X172767898Y-97937774D01*
X172567939Y-97898000D01*
X172364061Y-97898000D01*
X172164102Y-97937774D01*
X171975744Y-98015795D01*
X171806226Y-98129063D01*
X171662063Y-98273226D01*
X171548795Y-98442744D01*
X171470774Y-98631102D01*
X171431000Y-98831061D01*
X169967650Y-98831061D01*
X169967937Y-98830774D01*
X170081205Y-98661256D01*
X170159226Y-98472898D01*
X170199000Y-98272939D01*
X170199000Y-98069061D01*
X170159226Y-97869102D01*
X170081205Y-97680744D01*
X169967937Y-97511226D01*
X169823774Y-97367063D01*
X169654256Y-97253795D01*
X169465898Y-97175774D01*
X169265939Y-97136000D01*
X169164000Y-97136000D01*
X169164000Y-96808418D01*
X171780000Y-96808418D01*
X171780000Y-96993582D01*
X171816124Y-97175188D01*
X171886983Y-97346257D01*
X171989855Y-97500215D01*
X172120785Y-97631145D01*
X172274743Y-97734017D01*
X172445812Y-97804876D01*
X172627418Y-97841000D01*
X172812582Y-97841000D01*
X172994188Y-97804876D01*
X173165257Y-97734017D01*
X173319215Y-97631145D01*
X173450145Y-97500215D01*
X173553017Y-97346257D01*
X173623876Y-97175188D01*
X173660000Y-96993582D01*
X173660000Y-96808418D01*
X173623876Y-96626812D01*
X173553017Y-96455743D01*
X173450145Y-96301785D01*
X173319215Y-96170855D01*
X173165257Y-96067983D01*
X172994188Y-95997124D01*
X172812582Y-95961000D01*
X172627418Y-95961000D01*
X172445812Y-95997124D01*
X172274743Y-96067983D01*
X172120785Y-96170855D01*
X171989855Y-96301785D01*
X171886983Y-96455743D01*
X171816124Y-96626812D01*
X171780000Y-96808418D01*
X169164000Y-96808418D01*
X169164000Y-96647000D01*
X169161560Y-96622224D01*
X169154333Y-96598399D01*
X169142597Y-96576443D01*
X169126803Y-96557197D01*
X169107557Y-96541403D01*
X169085601Y-96529667D01*
X169061776Y-96522440D01*
X169037000Y-96520000D01*
X166814500Y-96520000D01*
X166814500Y-95728918D01*
X168922500Y-95728918D01*
X168922500Y-95914082D01*
X168958624Y-96095688D01*
X169029483Y-96266757D01*
X169132355Y-96420715D01*
X169263285Y-96551645D01*
X169417243Y-96654517D01*
X169588312Y-96725376D01*
X169769918Y-96761500D01*
X169955082Y-96761500D01*
X170136688Y-96725376D01*
X170307757Y-96654517D01*
X170461715Y-96551645D01*
X170592645Y-96420715D01*
X170695517Y-96266757D01*
X170766376Y-96095688D01*
X170802500Y-95914082D01*
X170802500Y-95728918D01*
X170793167Y-95682000D01*
X170844082Y-95682000D01*
X171025688Y-95645876D01*
X171196757Y-95575017D01*
X171350715Y-95472145D01*
X171481645Y-95341215D01*
X171584517Y-95187257D01*
X171655376Y-95016188D01*
X171691500Y-94834582D01*
X171691500Y-94649418D01*
X171655376Y-94467812D01*
X171645104Y-94443013D01*
X171664634Y-94413784D01*
X171735493Y-94242715D01*
X171771617Y-94061109D01*
X171771617Y-93875945D01*
X171735493Y-93694339D01*
X171664634Y-93523270D01*
X171561762Y-93369312D01*
X171430832Y-93238382D01*
X171276874Y-93135510D01*
X171105805Y-93064651D01*
X170924199Y-93028527D01*
X170739035Y-93028527D01*
X170557429Y-93064651D01*
X170386360Y-93135510D01*
X170232402Y-93238382D01*
X170101472Y-93369312D01*
X169998600Y-93523270D01*
X169927741Y-93694339D01*
X169891617Y-93875945D01*
X169891617Y-94061109D01*
X169927741Y-94242715D01*
X169938013Y-94267514D01*
X169918483Y-94296743D01*
X169847624Y-94467812D01*
X169811500Y-94649418D01*
X169811500Y-94834582D01*
X169820833Y-94881500D01*
X169769918Y-94881500D01*
X169588312Y-94917624D01*
X169417243Y-94988483D01*
X169263285Y-95091355D01*
X169132355Y-95222285D01*
X169029483Y-95376243D01*
X168958624Y-95547312D01*
X168922500Y-95728918D01*
X166814500Y-95728918D01*
X166814500Y-95464068D01*
X166952408Y-95491500D01*
X167137572Y-95491500D01*
X167319178Y-95455376D01*
X167490247Y-95384517D01*
X167644205Y-95281645D01*
X167775135Y-95150715D01*
X167878007Y-94996757D01*
X167948866Y-94825688D01*
X167984990Y-94644082D01*
X167984990Y-94498725D01*
X168048715Y-94456145D01*
X168179645Y-94325215D01*
X168282517Y-94171257D01*
X168353376Y-94000188D01*
X168389500Y-93818582D01*
X168389500Y-93633418D01*
X168353376Y-93451812D01*
X168282517Y-93280743D01*
X168179645Y-93126785D01*
X168048715Y-92995855D01*
X167894757Y-92892983D01*
X167723688Y-92822124D01*
X167542082Y-92786000D01*
X167356918Y-92786000D01*
X167175312Y-92822124D01*
X167004243Y-92892983D01*
X166850285Y-92995855D01*
X166814500Y-93031640D01*
X166814500Y-92202000D01*
X169037000Y-92202000D01*
X169061776Y-92199560D01*
X169085601Y-92192333D01*
X169107557Y-92180597D01*
X169126803Y-92164803D01*
X169142597Y-92145557D01*
X169154333Y-92123601D01*
X169161560Y-92099776D01*
X169164000Y-92075000D01*
X169164000Y-91477170D01*
X169210336Y-91508131D01*
X169381405Y-91578990D01*
X169563011Y-91615114D01*
X169748175Y-91615114D01*
X169929781Y-91578990D01*
X170100850Y-91508131D01*
X170254808Y-91405259D01*
X170385738Y-91274329D01*
X170488610Y-91120371D01*
X170559469Y-90949302D01*
X170580003Y-90846071D01*
X170648568Y-90891885D01*
X170819637Y-90962744D01*
X171001243Y-90998868D01*
X171186407Y-90998868D01*
X171368013Y-90962744D01*
X171539082Y-90891885D01*
X171693040Y-90789013D01*
X171823970Y-90658083D01*
X171926842Y-90504125D01*
X171997701Y-90333056D01*
X172033825Y-90151450D01*
X172033825Y-89966286D01*
X171997701Y-89784680D01*
X171926842Y-89613611D01*
X171891961Y-89561408D01*
X171902113Y-89546215D01*
X171972972Y-89375146D01*
X172009096Y-89193540D01*
X172009096Y-89008376D01*
X171972972Y-88826770D01*
X171902113Y-88655701D01*
X171799241Y-88501743D01*
X171668311Y-88370813D01*
X171514353Y-88267941D01*
X171343284Y-88197082D01*
X171161678Y-88160958D01*
X170976514Y-88160958D01*
X170794908Y-88197082D01*
X170623839Y-88267941D01*
X170469881Y-88370813D01*
X170338951Y-88501743D01*
X170236079Y-88655701D01*
X170165220Y-88826770D01*
X170129096Y-89008376D01*
X170129096Y-89193540D01*
X170165220Y-89375146D01*
X170236079Y-89546215D01*
X170270960Y-89598418D01*
X170260808Y-89613611D01*
X170189949Y-89784680D01*
X170169415Y-89887911D01*
X170100850Y-89842097D01*
X169929781Y-89771238D01*
X169748175Y-89735114D01*
X169563011Y-89735114D01*
X169381405Y-89771238D01*
X169210336Y-89842097D01*
X169164000Y-89873058D01*
X169164000Y-84861061D01*
X169526000Y-84861061D01*
X169526000Y-85064939D01*
X169565774Y-85264898D01*
X169643795Y-85453256D01*
X169757063Y-85622774D01*
X169901226Y-85766937D01*
X170070744Y-85880205D01*
X170259102Y-85958226D01*
X170459061Y-85998000D01*
X170662939Y-85998000D01*
X170862898Y-85958226D01*
X171051256Y-85880205D01*
X171220774Y-85766937D01*
X171364937Y-85622774D01*
X171478205Y-85453256D01*
X171556226Y-85264898D01*
X171596000Y-85064939D01*
X171596000Y-84861061D01*
X171556226Y-84661102D01*
X171478205Y-84472744D01*
X171364937Y-84303226D01*
X171220774Y-84159063D01*
X171051256Y-84045795D01*
X170862898Y-83967774D01*
X170662939Y-83928000D01*
X170459061Y-83928000D01*
X170259102Y-83967774D01*
X170070744Y-84045795D01*
X169901226Y-84159063D01*
X169757063Y-84303226D01*
X169643795Y-84472744D01*
X169565774Y-84661102D01*
X169526000Y-84861061D01*
X169164000Y-84861061D01*
X169164000Y-83820000D01*
X178054000Y-83820000D01*
X178054000Y-88265000D01*
G37*
G04 #@! TD.AperFunction*
D25*
X161965481Y-88858539D02*
X162069744Y-88928205D01*
X162258102Y-89006226D01*
X162458061Y-89046000D01*
X162661939Y-89046000D01*
X162861898Y-89006226D01*
X163050256Y-88928205D01*
X163142455Y-88866600D01*
X163633580Y-88869964D01*
X163720744Y-88928205D01*
X163909102Y-89006226D01*
X164109061Y-89046000D01*
X164312939Y-89046000D01*
X164512898Y-89006226D01*
X164701256Y-88928205D01*
X164776702Y-88877794D01*
X166560550Y-88890012D01*
X166560516Y-91453142D01*
X166444496Y-91488336D01*
X166334713Y-91547017D01*
X166238487Y-91625987D01*
X166159517Y-91722213D01*
X166100836Y-91831996D01*
X166064701Y-91951118D01*
X166052500Y-92075000D01*
X166052500Y-96647000D01*
X166064701Y-96770882D01*
X166100836Y-96890004D01*
X166159517Y-96999787D01*
X166238487Y-97096013D01*
X166334713Y-97174983D01*
X166444496Y-97233664D01*
X166563618Y-97269799D01*
X166687500Y-97282000D01*
X168402000Y-97282000D01*
X168402000Y-97469289D01*
X168360063Y-97511226D01*
X168246795Y-97680744D01*
X168168774Y-97869102D01*
X168129000Y-98069061D01*
X168129000Y-98272939D01*
X168168774Y-98472898D01*
X168246795Y-98661256D01*
X168360063Y-98830774D01*
X168402000Y-98872711D01*
X168402000Y-103229034D01*
X160585637Y-103349657D01*
X160547983Y-103279213D01*
X160469013Y-103182987D01*
X160372787Y-103104017D01*
X160263004Y-103045336D01*
X160143882Y-103009201D01*
X160020000Y-102997000D01*
X159836459Y-102997000D01*
X159940898Y-102976226D01*
X160129256Y-102898205D01*
X160298774Y-102784937D01*
X160442937Y-102640774D01*
X160556205Y-102471256D01*
X160634226Y-102282898D01*
X160674000Y-102082939D01*
X160674000Y-101879061D01*
X160634226Y-101679102D01*
X160556205Y-101490744D01*
X160442937Y-101321226D01*
X160298774Y-101177063D01*
X160129256Y-101063795D01*
X159940898Y-100985774D01*
X159740939Y-100946000D01*
X159537061Y-100946000D01*
X159337102Y-100985774D01*
X159148744Y-101063795D01*
X159131000Y-101075651D01*
X159131000Y-96586711D01*
X159172937Y-96544774D01*
X159286205Y-96375256D01*
X159364226Y-96186898D01*
X159404000Y-95986939D01*
X159404000Y-95783061D01*
X159364226Y-95583102D01*
X159286205Y-95394744D01*
X159172937Y-95225226D01*
X159131000Y-95183289D01*
X159131000Y-92859154D01*
X159220723Y-92993434D01*
X159364886Y-93137597D01*
X159534404Y-93250865D01*
X159722762Y-93328886D01*
X159922721Y-93368660D01*
X160126599Y-93368660D01*
X160326558Y-93328886D01*
X160514916Y-93250865D01*
X160684434Y-93137597D01*
X160828597Y-92993434D01*
X160922027Y-92853606D01*
X160934061Y-92856000D01*
X161137939Y-92856000D01*
X161337898Y-92816226D01*
X161526256Y-92738205D01*
X161695774Y-92624937D01*
X161839937Y-92480774D01*
X161953205Y-92311256D01*
X162031226Y-92122898D01*
X162071000Y-91922939D01*
X162071000Y-91719061D01*
X162031226Y-91519102D01*
X162008842Y-91465061D01*
X163720990Y-91465061D01*
X163720990Y-91668939D01*
X163760764Y-91868898D01*
X163838785Y-92057256D01*
X163952053Y-92226774D01*
X164096216Y-92370937D01*
X164265734Y-92484205D01*
X164454092Y-92562226D01*
X164654051Y-92602000D01*
X164857929Y-92602000D01*
X165057888Y-92562226D01*
X165246246Y-92484205D01*
X165415764Y-92370937D01*
X165559927Y-92226774D01*
X165673195Y-92057256D01*
X165751216Y-91868898D01*
X165790990Y-91668939D01*
X165790990Y-91465061D01*
X165751216Y-91265102D01*
X165673195Y-91076744D01*
X165559927Y-90907226D01*
X165415764Y-90763063D01*
X165246246Y-90649795D01*
X165057888Y-90571774D01*
X164857929Y-90532000D01*
X164654051Y-90532000D01*
X164454092Y-90571774D01*
X164265734Y-90649795D01*
X164096216Y-90763063D01*
X163952053Y-90907226D01*
X163838785Y-91076744D01*
X163760764Y-91265102D01*
X163720990Y-91465061D01*
X162008842Y-91465061D01*
X161953205Y-91330744D01*
X161839937Y-91161226D01*
X161695774Y-91017063D01*
X161526256Y-90903795D01*
X161337898Y-90825774D01*
X161137939Y-90786000D01*
X160934061Y-90786000D01*
X160734102Y-90825774D01*
X160545744Y-90903795D01*
X160376226Y-91017063D01*
X160232063Y-91161226D01*
X160138633Y-91301054D01*
X160126599Y-91298660D01*
X159922721Y-91298660D01*
X159722762Y-91338434D01*
X159534404Y-91416455D01*
X159364886Y-91529723D01*
X159220723Y-91673886D01*
X159107455Y-91843404D01*
X159040018Y-92006211D01*
X159023983Y-91976213D01*
X158945013Y-91879987D01*
X158877000Y-91824171D01*
X158877000Y-88873920D01*
X158958244Y-88928205D01*
X159146602Y-89006226D01*
X159346561Y-89046000D01*
X159550439Y-89046000D01*
X159750398Y-89006226D01*
X159938756Y-88928205D01*
X160033529Y-88864880D01*
X160138900Y-88885839D01*
X160342778Y-88885839D01*
X160529475Y-88848703D01*
X161965481Y-88858539D01*
G04 #@! TA.AperFunction,Conductor*
D26*
G36*
X161965481Y-88858539D02*
G01*
X162069744Y-88928205D01*
X162258102Y-89006226D01*
X162458061Y-89046000D01*
X162661939Y-89046000D01*
X162861898Y-89006226D01*
X163050256Y-88928205D01*
X163142455Y-88866600D01*
X163633580Y-88869964D01*
X163720744Y-88928205D01*
X163909102Y-89006226D01*
X164109061Y-89046000D01*
X164312939Y-89046000D01*
X164512898Y-89006226D01*
X164701256Y-88928205D01*
X164776702Y-88877794D01*
X166560550Y-88890012D01*
X166560516Y-91453142D01*
X166444496Y-91488336D01*
X166334713Y-91547017D01*
X166238487Y-91625987D01*
X166159517Y-91722213D01*
X166100836Y-91831996D01*
X166064701Y-91951118D01*
X166052500Y-92075000D01*
X166052500Y-96647000D01*
X166064701Y-96770882D01*
X166100836Y-96890004D01*
X166159517Y-96999787D01*
X166238487Y-97096013D01*
X166334713Y-97174983D01*
X166444496Y-97233664D01*
X166563618Y-97269799D01*
X166687500Y-97282000D01*
X168402000Y-97282000D01*
X168402000Y-97469289D01*
X168360063Y-97511226D01*
X168246795Y-97680744D01*
X168168774Y-97869102D01*
X168129000Y-98069061D01*
X168129000Y-98272939D01*
X168168774Y-98472898D01*
X168246795Y-98661256D01*
X168360063Y-98830774D01*
X168402000Y-98872711D01*
X168402000Y-103229034D01*
X160585637Y-103349657D01*
X160547983Y-103279213D01*
X160469013Y-103182987D01*
X160372787Y-103104017D01*
X160263004Y-103045336D01*
X160143882Y-103009201D01*
X160020000Y-102997000D01*
X159836459Y-102997000D01*
X159940898Y-102976226D01*
X160129256Y-102898205D01*
X160298774Y-102784937D01*
X160442937Y-102640774D01*
X160556205Y-102471256D01*
X160634226Y-102282898D01*
X160674000Y-102082939D01*
X160674000Y-101879061D01*
X160634226Y-101679102D01*
X160556205Y-101490744D01*
X160442937Y-101321226D01*
X160298774Y-101177063D01*
X160129256Y-101063795D01*
X159940898Y-100985774D01*
X159740939Y-100946000D01*
X159537061Y-100946000D01*
X159337102Y-100985774D01*
X159148744Y-101063795D01*
X159131000Y-101075651D01*
X159131000Y-96586711D01*
X159172937Y-96544774D01*
X159286205Y-96375256D01*
X159364226Y-96186898D01*
X159404000Y-95986939D01*
X159404000Y-95783061D01*
X159364226Y-95583102D01*
X159286205Y-95394744D01*
X159172937Y-95225226D01*
X159131000Y-95183289D01*
X159131000Y-92859154D01*
X159220723Y-92993434D01*
X159364886Y-93137597D01*
X159534404Y-93250865D01*
X159722762Y-93328886D01*
X159922721Y-93368660D01*
X160126599Y-93368660D01*
X160326558Y-93328886D01*
X160514916Y-93250865D01*
X160684434Y-93137597D01*
X160828597Y-92993434D01*
X160922027Y-92853606D01*
X160934061Y-92856000D01*
X161137939Y-92856000D01*
X161337898Y-92816226D01*
X161526256Y-92738205D01*
X161695774Y-92624937D01*
X161839937Y-92480774D01*
X161953205Y-92311256D01*
X162031226Y-92122898D01*
X162071000Y-91922939D01*
X162071000Y-91719061D01*
X162031226Y-91519102D01*
X162008842Y-91465061D01*
X163720990Y-91465061D01*
X163720990Y-91668939D01*
X163760764Y-91868898D01*
X163838785Y-92057256D01*
X163952053Y-92226774D01*
X164096216Y-92370937D01*
X164265734Y-92484205D01*
X164454092Y-92562226D01*
X164654051Y-92602000D01*
X164857929Y-92602000D01*
X165057888Y-92562226D01*
X165246246Y-92484205D01*
X165415764Y-92370937D01*
X165559927Y-92226774D01*
X165673195Y-92057256D01*
X165751216Y-91868898D01*
X165790990Y-91668939D01*
X165790990Y-91465061D01*
X165751216Y-91265102D01*
X165673195Y-91076744D01*
X165559927Y-90907226D01*
X165415764Y-90763063D01*
X165246246Y-90649795D01*
X165057888Y-90571774D01*
X164857929Y-90532000D01*
X164654051Y-90532000D01*
X164454092Y-90571774D01*
X164265734Y-90649795D01*
X164096216Y-90763063D01*
X163952053Y-90907226D01*
X163838785Y-91076744D01*
X163760764Y-91265102D01*
X163720990Y-91465061D01*
X162008842Y-91465061D01*
X161953205Y-91330744D01*
X161839937Y-91161226D01*
X161695774Y-91017063D01*
X161526256Y-90903795D01*
X161337898Y-90825774D01*
X161137939Y-90786000D01*
X160934061Y-90786000D01*
X160734102Y-90825774D01*
X160545744Y-90903795D01*
X160376226Y-91017063D01*
X160232063Y-91161226D01*
X160138633Y-91301054D01*
X160126599Y-91298660D01*
X159922721Y-91298660D01*
X159722762Y-91338434D01*
X159534404Y-91416455D01*
X159364886Y-91529723D01*
X159220723Y-91673886D01*
X159107455Y-91843404D01*
X159040018Y-92006211D01*
X159023983Y-91976213D01*
X158945013Y-91879987D01*
X158877000Y-91824171D01*
X158877000Y-88873920D01*
X158958244Y-88928205D01*
X159146602Y-89006226D01*
X159346561Y-89046000D01*
X159550439Y-89046000D01*
X159750398Y-89006226D01*
X159938756Y-88928205D01*
X160033529Y-88864880D01*
X160138900Y-88885839D01*
X160342778Y-88885839D01*
X160529475Y-88848703D01*
X161965481Y-88858539D01*
G37*
G04 #@! TD.AperFunction*
D25*
X165655453Y-79220212D02*
X165841077Y-79385211D01*
X165811000Y-79536418D01*
X165811000Y-79721582D01*
X165847124Y-79903188D01*
X165917983Y-80074257D01*
X166020855Y-80228215D01*
X166151785Y-80359145D01*
X166305743Y-80462017D01*
X166476812Y-80532876D01*
X166658418Y-80569000D01*
X166843582Y-80569000D01*
X167025188Y-80532876D01*
X167098185Y-80502640D01*
X167833470Y-81156227D01*
X167703728Y-81209968D01*
X167549770Y-81312840D01*
X167418840Y-81443770D01*
X167315968Y-81597728D01*
X167245109Y-81768797D01*
X167208985Y-81950403D01*
X167208985Y-82135567D01*
X167245109Y-82317173D01*
X167315968Y-82488242D01*
X167418840Y-82642200D01*
X167549770Y-82773130D01*
X167562396Y-82781567D01*
X167505483Y-82866743D01*
X167434624Y-83037812D01*
X167398500Y-83219418D01*
X167398500Y-83404582D01*
X167434624Y-83586188D01*
X167505483Y-83757257D01*
X167608355Y-83911215D01*
X167739285Y-84042145D01*
X167893243Y-84145017D01*
X167894000Y-84145331D01*
X167894000Y-88137127D01*
X166725180Y-88129121D01*
X166696256Y-88109795D01*
X166507898Y-88031774D01*
X166307939Y-87992000D01*
X166104061Y-87992000D01*
X165904102Y-88031774D01*
X165715744Y-88109795D01*
X165697356Y-88122082D01*
X159119717Y-88077029D01*
X159155774Y-88052937D01*
X159299937Y-87908774D01*
X159413205Y-87739256D01*
X159491226Y-87550898D01*
X159531000Y-87350939D01*
X159531000Y-87147061D01*
X159491226Y-86947102D01*
X159413205Y-86758744D01*
X159299937Y-86589226D01*
X159155774Y-86445063D01*
X159075985Y-86391750D01*
X159155774Y-86338437D01*
X159299937Y-86194274D01*
X159413205Y-86024756D01*
X159491226Y-85836398D01*
X159531000Y-85636439D01*
X159531000Y-85432561D01*
X159491226Y-85232602D01*
X159413205Y-85044244D01*
X159299937Y-84874726D01*
X159155774Y-84730563D01*
X158986256Y-84617295D01*
X158797898Y-84539274D01*
X158597939Y-84499500D01*
X158394061Y-84499500D01*
X158194102Y-84539274D01*
X158083250Y-84585191D01*
X157972398Y-84539274D01*
X157772439Y-84499500D01*
X157568561Y-84499500D01*
X157416500Y-84529747D01*
X157416500Y-83974933D01*
X165625015Y-83974933D01*
X165625015Y-84160097D01*
X165661139Y-84341703D01*
X165731998Y-84512772D01*
X165834870Y-84666730D01*
X165965800Y-84797660D01*
X166119758Y-84900532D01*
X166290827Y-84971391D01*
X166472433Y-85007515D01*
X166657597Y-85007515D01*
X166839203Y-84971391D01*
X167010272Y-84900532D01*
X167164230Y-84797660D01*
X167295160Y-84666730D01*
X167398032Y-84512772D01*
X167468891Y-84341703D01*
X167505015Y-84160097D01*
X167505015Y-83974933D01*
X167468891Y-83793327D01*
X167398032Y-83622258D01*
X167295160Y-83468300D01*
X167164230Y-83337370D01*
X167010272Y-83234498D01*
X166839203Y-83163639D01*
X166657597Y-83127515D01*
X166472433Y-83127515D01*
X166290827Y-83163639D01*
X166119758Y-83234498D01*
X165965800Y-83337370D01*
X165834870Y-83468300D01*
X165731998Y-83622258D01*
X165661139Y-83793327D01*
X165625015Y-83974933D01*
X157416500Y-83974933D01*
X157416500Y-81278561D01*
X160826500Y-81278561D01*
X160826500Y-81482439D01*
X160866274Y-81682398D01*
X160944295Y-81870756D01*
X161057563Y-82040274D01*
X161201726Y-82184437D01*
X161371244Y-82297705D01*
X161559602Y-82375726D01*
X161759561Y-82415500D01*
X161963439Y-82415500D01*
X162163398Y-82375726D01*
X162351756Y-82297705D01*
X162521274Y-82184437D01*
X162665437Y-82040274D01*
X162778705Y-81870756D01*
X162856726Y-81682398D01*
X162896500Y-81482439D01*
X162896500Y-81278561D01*
X162856726Y-81078602D01*
X162778705Y-80890244D01*
X162665437Y-80720726D01*
X162521274Y-80576563D01*
X162351756Y-80463295D01*
X162163398Y-80385274D01*
X161963439Y-80345500D01*
X161759561Y-80345500D01*
X161559602Y-80385274D01*
X161371244Y-80463295D01*
X161201726Y-80576563D01*
X161057563Y-80720726D01*
X160944295Y-80890244D01*
X160866274Y-81078602D01*
X160826500Y-81278561D01*
X157416500Y-81278561D01*
X157416500Y-79011621D01*
X157454897Y-79023268D01*
X157519000Y-79029582D01*
X158160250Y-79028000D01*
X158242000Y-78946250D01*
X158242000Y-77978000D01*
X158496000Y-77978000D01*
X158496000Y-78946250D01*
X158577750Y-79028000D01*
X159219000Y-79029582D01*
X159283103Y-79023268D01*
X159344743Y-79004570D01*
X159401550Y-78974206D01*
X159451343Y-78933343D01*
X159492206Y-78883550D01*
X159522570Y-78826743D01*
X159541268Y-78765103D01*
X159547582Y-78701000D01*
X159546000Y-78059750D01*
X159464250Y-77978000D01*
X158496000Y-77978000D01*
X158242000Y-77978000D01*
X158222000Y-77978000D01*
X158222000Y-77724000D01*
X158242000Y-77724000D01*
X158242000Y-77704000D01*
X158496000Y-77704000D01*
X158496000Y-77724000D01*
X159464250Y-77724000D01*
X159546000Y-77642250D01*
X159547429Y-77063200D01*
X162665877Y-77063200D01*
X165655453Y-79220212D01*
G04 #@! TA.AperFunction,Conductor*
D26*
G36*
X165655453Y-79220212D02*
G01*
X165841077Y-79385211D01*
X165811000Y-79536418D01*
X165811000Y-79721582D01*
X165847124Y-79903188D01*
X165917983Y-80074257D01*
X166020855Y-80228215D01*
X166151785Y-80359145D01*
X166305743Y-80462017D01*
X166476812Y-80532876D01*
X166658418Y-80569000D01*
X166843582Y-80569000D01*
X167025188Y-80532876D01*
X167098185Y-80502640D01*
X167833470Y-81156227D01*
X167703728Y-81209968D01*
X167549770Y-81312840D01*
X167418840Y-81443770D01*
X167315968Y-81597728D01*
X167245109Y-81768797D01*
X167208985Y-81950403D01*
X167208985Y-82135567D01*
X167245109Y-82317173D01*
X167315968Y-82488242D01*
X167418840Y-82642200D01*
X167549770Y-82773130D01*
X167562396Y-82781567D01*
X167505483Y-82866743D01*
X167434624Y-83037812D01*
X167398500Y-83219418D01*
X167398500Y-83404582D01*
X167434624Y-83586188D01*
X167505483Y-83757257D01*
X167608355Y-83911215D01*
X167739285Y-84042145D01*
X167893243Y-84145017D01*
X167894000Y-84145331D01*
X167894000Y-88137127D01*
X166725180Y-88129121D01*
X166696256Y-88109795D01*
X166507898Y-88031774D01*
X166307939Y-87992000D01*
X166104061Y-87992000D01*
X165904102Y-88031774D01*
X165715744Y-88109795D01*
X165697356Y-88122082D01*
X159119717Y-88077029D01*
X159155774Y-88052937D01*
X159299937Y-87908774D01*
X159413205Y-87739256D01*
X159491226Y-87550898D01*
X159531000Y-87350939D01*
X159531000Y-87147061D01*
X159491226Y-86947102D01*
X159413205Y-86758744D01*
X159299937Y-86589226D01*
X159155774Y-86445063D01*
X159075985Y-86391750D01*
X159155774Y-86338437D01*
X159299937Y-86194274D01*
X159413205Y-86024756D01*
X159491226Y-85836398D01*
X159531000Y-85636439D01*
X159531000Y-85432561D01*
X159491226Y-85232602D01*
X159413205Y-85044244D01*
X159299937Y-84874726D01*
X159155774Y-84730563D01*
X158986256Y-84617295D01*
X158797898Y-84539274D01*
X158597939Y-84499500D01*
X158394061Y-84499500D01*
X158194102Y-84539274D01*
X158083250Y-84585191D01*
X157972398Y-84539274D01*
X157772439Y-84499500D01*
X157568561Y-84499500D01*
X157416500Y-84529747D01*
X157416500Y-83974933D01*
X165625015Y-83974933D01*
X165625015Y-84160097D01*
X165661139Y-84341703D01*
X165731998Y-84512772D01*
X165834870Y-84666730D01*
X165965800Y-84797660D01*
X166119758Y-84900532D01*
X166290827Y-84971391D01*
X166472433Y-85007515D01*
X166657597Y-85007515D01*
X166839203Y-84971391D01*
X167010272Y-84900532D01*
X167164230Y-84797660D01*
X167295160Y-84666730D01*
X167398032Y-84512772D01*
X167468891Y-84341703D01*
X167505015Y-84160097D01*
X167505015Y-83974933D01*
X167468891Y-83793327D01*
X167398032Y-83622258D01*
X167295160Y-83468300D01*
X167164230Y-83337370D01*
X167010272Y-83234498D01*
X166839203Y-83163639D01*
X166657597Y-83127515D01*
X166472433Y-83127515D01*
X166290827Y-83163639D01*
X166119758Y-83234498D01*
X165965800Y-83337370D01*
X165834870Y-83468300D01*
X165731998Y-83622258D01*
X165661139Y-83793327D01*
X165625015Y-83974933D01*
X157416500Y-83974933D01*
X157416500Y-81278561D01*
X160826500Y-81278561D01*
X160826500Y-81482439D01*
X160866274Y-81682398D01*
X160944295Y-81870756D01*
X161057563Y-82040274D01*
X161201726Y-82184437D01*
X161371244Y-82297705D01*
X161559602Y-82375726D01*
X161759561Y-82415500D01*
X161963439Y-82415500D01*
X162163398Y-82375726D01*
X162351756Y-82297705D01*
X162521274Y-82184437D01*
X162665437Y-82040274D01*
X162778705Y-81870756D01*
X162856726Y-81682398D01*
X162896500Y-81482439D01*
X162896500Y-81278561D01*
X162856726Y-81078602D01*
X162778705Y-80890244D01*
X162665437Y-80720726D01*
X162521274Y-80576563D01*
X162351756Y-80463295D01*
X162163398Y-80385274D01*
X161963439Y-80345500D01*
X161759561Y-80345500D01*
X161559602Y-80385274D01*
X161371244Y-80463295D01*
X161201726Y-80576563D01*
X161057563Y-80720726D01*
X160944295Y-80890244D01*
X160866274Y-81078602D01*
X160826500Y-81278561D01*
X157416500Y-81278561D01*
X157416500Y-79011621D01*
X157454897Y-79023268D01*
X157519000Y-79029582D01*
X158160250Y-79028000D01*
X158242000Y-78946250D01*
X158242000Y-77978000D01*
X158496000Y-77978000D01*
X158496000Y-78946250D01*
X158577750Y-79028000D01*
X159219000Y-79029582D01*
X159283103Y-79023268D01*
X159344743Y-79004570D01*
X159401550Y-78974206D01*
X159451343Y-78933343D01*
X159492206Y-78883550D01*
X159522570Y-78826743D01*
X159541268Y-78765103D01*
X159547582Y-78701000D01*
X159546000Y-78059750D01*
X159464250Y-77978000D01*
X158496000Y-77978000D01*
X158242000Y-77978000D01*
X158222000Y-77978000D01*
X158222000Y-77724000D01*
X158242000Y-77724000D01*
X158242000Y-77704000D01*
X158496000Y-77704000D01*
X158496000Y-77724000D01*
X159464250Y-77724000D01*
X159546000Y-77642250D01*
X159547429Y-77063200D01*
X162665877Y-77063200D01*
X165655453Y-79220212D01*
G37*
G04 #@! TD.AperFunction*
D25*
X152254000Y-92481061D02*
X152254000Y-92684939D01*
X152293774Y-92884898D01*
X152371795Y-93073256D01*
X152485063Y-93242774D01*
X152629226Y-93386937D01*
X152798744Y-93500205D01*
X152987102Y-93578226D01*
X153187061Y-93618000D01*
X153390939Y-93618000D01*
X153590898Y-93578226D01*
X153779256Y-93500205D01*
X153860500Y-93445920D01*
X153941744Y-93500205D01*
X154130102Y-93578226D01*
X154330061Y-93618000D01*
X154533939Y-93618000D01*
X154733898Y-93578226D01*
X154922256Y-93500205D01*
X155091774Y-93386937D01*
X155214031Y-93264680D01*
X155222854Y-93277885D01*
X155367017Y-93422048D01*
X155536535Y-93535316D01*
X155724893Y-93613337D01*
X155924852Y-93653111D01*
X156128730Y-93653111D01*
X156328689Y-93613337D01*
X156517047Y-93535316D01*
X156686565Y-93422048D01*
X156830728Y-93277885D01*
X156943996Y-93108367D01*
X157022017Y-92920009D01*
X157061791Y-92720050D01*
X157061791Y-92516172D01*
X157049822Y-92456000D01*
X158369000Y-92456000D01*
X158369000Y-94850000D01*
X158267061Y-94850000D01*
X158067102Y-94889774D01*
X157878744Y-94967795D01*
X157709226Y-95081063D01*
X157565063Y-95225226D01*
X157451795Y-95394744D01*
X157373774Y-95583102D01*
X157334000Y-95783061D01*
X157334000Y-95986939D01*
X157373774Y-96186898D01*
X157451795Y-96375256D01*
X157565063Y-96544774D01*
X157709226Y-96688937D01*
X157878744Y-96802205D01*
X158067102Y-96880226D01*
X158267061Y-96920000D01*
X158369000Y-96920000D01*
X158369000Y-101455717D01*
X158193178Y-101420744D01*
X157989300Y-101420744D01*
X157789341Y-101460518D01*
X157600983Y-101538539D01*
X157431465Y-101651807D01*
X157287302Y-101795970D01*
X157174034Y-101965488D01*
X157096013Y-102153846D01*
X157056239Y-102353805D01*
X157056239Y-102557683D01*
X157096013Y-102757642D01*
X157174034Y-102946000D01*
X157287302Y-103115518D01*
X157431465Y-103259681D01*
X157600983Y-103372949D01*
X157789341Y-103450970D01*
X157989300Y-103490744D01*
X158193178Y-103490744D01*
X158369000Y-103455771D01*
X158369000Y-103632000D01*
X158371440Y-103656776D01*
X158378667Y-103680601D01*
X158390403Y-103702557D01*
X158406197Y-103721803D01*
X158425443Y-103737597D01*
X158447399Y-103749333D01*
X158471224Y-103756560D01*
X158496000Y-103759000D01*
X159893000Y-103759000D01*
X159893000Y-108189985D01*
X159718102Y-108224774D01*
X159529744Y-108302795D01*
X159360226Y-108416063D01*
X159277000Y-108499289D01*
X159277000Y-108483061D01*
X159237226Y-108283102D01*
X159159205Y-108094744D01*
X159045937Y-107925226D01*
X158901774Y-107781063D01*
X158732256Y-107667795D01*
X158543898Y-107589774D01*
X158343939Y-107550000D01*
X158140061Y-107550000D01*
X157940102Y-107589774D01*
X157751744Y-107667795D01*
X157582226Y-107781063D01*
X157438063Y-107925226D01*
X157324795Y-108094744D01*
X157246774Y-108283102D01*
X157207000Y-108483061D01*
X157207000Y-108686939D01*
X157246774Y-108886898D01*
X157324795Y-109075256D01*
X157438063Y-109244774D01*
X157582226Y-109388937D01*
X157751744Y-109502205D01*
X157940102Y-109580226D01*
X158140061Y-109620000D01*
X158343939Y-109620000D01*
X158543898Y-109580226D01*
X158732256Y-109502205D01*
X158901774Y-109388937D01*
X158985000Y-109305711D01*
X158985000Y-109321939D01*
X159024774Y-109521898D01*
X159102795Y-109710256D01*
X159216063Y-109879774D01*
X159360226Y-110023937D01*
X159529744Y-110137205D01*
X159718102Y-110215226D01*
X159893000Y-110250015D01*
X159893000Y-111506000D01*
X157140440Y-111506000D01*
X157173205Y-111426898D01*
X157212979Y-111226939D01*
X157212979Y-111023061D01*
X157173205Y-110823102D01*
X157095184Y-110634744D01*
X157058654Y-110580073D01*
X157086500Y-110440085D01*
X157086500Y-110254921D01*
X157050376Y-110073315D01*
X156979517Y-109902246D01*
X156876645Y-109748288D01*
X156745715Y-109617358D01*
X156591757Y-109514486D01*
X156420688Y-109443627D01*
X156239082Y-109407503D01*
X156053918Y-109407503D01*
X155872312Y-109443627D01*
X155701243Y-109514486D01*
X155547285Y-109617358D01*
X155416355Y-109748288D01*
X155313483Y-109902246D01*
X155313375Y-109902507D01*
X155167895Y-109858376D01*
X155015838Y-109843400D01*
X154926565Y-109843400D01*
X154974108Y-109728622D01*
X155011000Y-109543152D01*
X155011000Y-109354048D01*
X154974108Y-109168578D01*
X154901741Y-108993869D01*
X154796681Y-108836636D01*
X154662964Y-108702919D01*
X154505731Y-108597859D01*
X154331022Y-108525492D01*
X154145552Y-108488600D01*
X153956448Y-108488600D01*
X153770978Y-108525492D01*
X153596269Y-108597859D01*
X153439036Y-108702919D01*
X153305319Y-108836636D01*
X153200259Y-108993869D01*
X153127892Y-109168578D01*
X153123797Y-109189164D01*
X153040723Y-109223574D01*
X152886765Y-109326446D01*
X152755835Y-109457376D01*
X152652963Y-109611334D01*
X152582104Y-109782403D01*
X152545980Y-109964009D01*
X152545980Y-110149173D01*
X152582104Y-110330779D01*
X152652963Y-110501848D01*
X152755835Y-110655806D01*
X152838750Y-110738721D01*
X152824993Y-110878400D01*
X152844976Y-111081295D01*
X152904159Y-111276393D01*
X153000266Y-111456197D01*
X153129604Y-111613796D01*
X153287203Y-111743134D01*
X153467007Y-111839241D01*
X153662105Y-111898424D01*
X153814162Y-111913400D01*
X155015838Y-111913400D01*
X155167895Y-111898424D01*
X155362993Y-111839241D01*
X155405688Y-111816420D01*
X155518205Y-111928937D01*
X155550476Y-111950500D01*
X149377000Y-111950500D01*
X149377000Y-111610623D01*
X149379604Y-111613796D01*
X149537203Y-111743134D01*
X149717007Y-111839241D01*
X149912105Y-111898424D01*
X150064162Y-111913400D01*
X150965838Y-111913400D01*
X151117895Y-111898424D01*
X151312993Y-111839241D01*
X151492797Y-111743134D01*
X151650396Y-111613796D01*
X151779734Y-111456197D01*
X151875841Y-111276393D01*
X151935024Y-111081295D01*
X151955007Y-110878400D01*
X151935024Y-110675505D01*
X151875841Y-110480407D01*
X151779734Y-110300603D01*
X151650396Y-110143004D01*
X151492797Y-110013666D01*
X151312993Y-109917559D01*
X151117895Y-109858376D01*
X150965838Y-109843400D01*
X150064162Y-109843400D01*
X149912105Y-109858376D01*
X149717007Y-109917559D01*
X149537203Y-110013666D01*
X149379604Y-110143004D01*
X149377000Y-110146177D01*
X149377000Y-103002693D01*
X149487203Y-103093134D01*
X149667007Y-103189241D01*
X149862105Y-103248424D01*
X150014162Y-103263400D01*
X150915838Y-103263400D01*
X151067895Y-103248424D01*
X151262993Y-103189241D01*
X151442797Y-103093134D01*
X151595373Y-102967918D01*
X152476000Y-102967918D01*
X152476000Y-103153082D01*
X152512124Y-103334688D01*
X152582983Y-103505757D01*
X152685855Y-103659715D01*
X152816785Y-103790645D01*
X152970743Y-103893517D01*
X153126979Y-103958232D01*
X153127892Y-103962822D01*
X153200259Y-104137531D01*
X153305319Y-104294764D01*
X153439036Y-104428481D01*
X153596269Y-104533541D01*
X153770978Y-104605908D01*
X153956448Y-104642800D01*
X154145552Y-104642800D01*
X154331022Y-104605908D01*
X154505731Y-104533541D01*
X154662964Y-104428481D01*
X154796681Y-104294764D01*
X154901741Y-104137531D01*
X154974108Y-103962822D01*
X155011000Y-103777352D01*
X155011000Y-103588248D01*
X154974108Y-103402778D01*
X154916376Y-103263400D01*
X155015838Y-103263400D01*
X155167895Y-103248424D01*
X155270300Y-103217360D01*
X155312717Y-103319764D01*
X155415589Y-103473722D01*
X155546519Y-103604652D01*
X155700477Y-103707524D01*
X155871546Y-103778383D01*
X156053152Y-103814507D01*
X156238316Y-103814507D01*
X156419922Y-103778383D01*
X156590991Y-103707524D01*
X156744949Y-103604652D01*
X156875879Y-103473722D01*
X156978751Y-103319764D01*
X157049610Y-103148695D01*
X157085734Y-102967089D01*
X157085734Y-102781925D01*
X157049610Y-102600319D01*
X156978751Y-102429250D01*
X156875879Y-102275292D01*
X156744949Y-102144362D01*
X156590991Y-102041490D01*
X156473992Y-101993028D01*
X156638898Y-101960226D01*
X156827256Y-101882205D01*
X156996774Y-101768937D01*
X157140937Y-101624774D01*
X157254205Y-101455256D01*
X157332226Y-101266898D01*
X157372000Y-101066939D01*
X157372000Y-100863061D01*
X157332226Y-100663102D01*
X157254205Y-100474744D01*
X157140937Y-100305226D01*
X156996774Y-100161063D01*
X156827256Y-100047795D01*
X156638898Y-99969774D01*
X156438939Y-99930000D01*
X156235061Y-99930000D01*
X156035102Y-99969774D01*
X155928103Y-100014095D01*
X155935226Y-99996898D01*
X155975000Y-99796939D01*
X155975000Y-99593061D01*
X155935226Y-99393102D01*
X155876158Y-99250500D01*
X155935226Y-99107898D01*
X155975000Y-98907939D01*
X155975000Y-98704061D01*
X155935226Y-98504102D01*
X155876158Y-98361500D01*
X155935226Y-98218898D01*
X155975000Y-98018939D01*
X155975000Y-97815061D01*
X155936617Y-97622094D01*
X155997937Y-97560774D01*
X156111205Y-97391256D01*
X156189226Y-97202898D01*
X156229000Y-97002939D01*
X156229000Y-96799061D01*
X156189226Y-96599102D01*
X156111205Y-96410744D01*
X155997937Y-96241226D01*
X155853774Y-96097063D01*
X155684256Y-95983795D01*
X155495898Y-95905774D01*
X155295939Y-95866000D01*
X155092061Y-95866000D01*
X154892102Y-95905774D01*
X154703744Y-95983795D01*
X154534226Y-96097063D01*
X154390063Y-96241226D01*
X154276795Y-96410744D01*
X154198774Y-96599102D01*
X154159000Y-96799061D01*
X154159000Y-97002939D01*
X154197383Y-97195906D01*
X154136063Y-97257226D01*
X154022795Y-97426744D01*
X153944774Y-97615102D01*
X153905000Y-97815061D01*
X153905000Y-98018939D01*
X153944774Y-98218898D01*
X154003842Y-98361500D01*
X153944774Y-98504102D01*
X153905000Y-98704061D01*
X153905000Y-98907939D01*
X153944774Y-99107898D01*
X154003842Y-99250500D01*
X153944774Y-99393102D01*
X153905000Y-99593061D01*
X153905000Y-99796939D01*
X153944774Y-99996898D01*
X154022795Y-100185256D01*
X154136063Y-100354774D01*
X154280226Y-100498937D01*
X154449744Y-100612205D01*
X154638102Y-100690226D01*
X154838061Y-100730000D01*
X155041939Y-100730000D01*
X155241898Y-100690226D01*
X155348897Y-100645905D01*
X155341774Y-100663102D01*
X155302000Y-100863061D01*
X155302000Y-101066939D01*
X155340551Y-101260751D01*
X155167895Y-101208376D01*
X155015838Y-101193400D01*
X153814162Y-101193400D01*
X153662105Y-101208376D01*
X153467007Y-101267559D01*
X153287203Y-101363666D01*
X153129604Y-101493004D01*
X153000266Y-101650603D01*
X152904159Y-101830407D01*
X152844976Y-102025505D01*
X152824993Y-102228400D01*
X152833908Y-102318914D01*
X152816785Y-102330355D01*
X152685855Y-102461285D01*
X152582983Y-102615243D01*
X152512124Y-102786312D01*
X152476000Y-102967918D01*
X151595373Y-102967918D01*
X151600396Y-102963796D01*
X151729734Y-102806197D01*
X151825841Y-102626393D01*
X151885024Y-102431295D01*
X151905007Y-102228400D01*
X151885024Y-102025505D01*
X151825841Y-101830407D01*
X151729734Y-101650603D01*
X151600396Y-101493004D01*
X151442797Y-101363666D01*
X151262993Y-101267559D01*
X151067895Y-101208376D01*
X150915838Y-101193400D01*
X150014162Y-101193400D01*
X149862105Y-101208376D01*
X149667007Y-101267559D01*
X149487203Y-101363666D01*
X149377000Y-101454107D01*
X149377000Y-92456000D01*
X152258985Y-92456000D01*
X152254000Y-92481061D01*
G04 #@! TA.AperFunction,Conductor*
D26*
G36*
X152254000Y-92481061D02*
G01*
X152254000Y-92684939D01*
X152293774Y-92884898D01*
X152371795Y-93073256D01*
X152485063Y-93242774D01*
X152629226Y-93386937D01*
X152798744Y-93500205D01*
X152987102Y-93578226D01*
X153187061Y-93618000D01*
X153390939Y-93618000D01*
X153590898Y-93578226D01*
X153779256Y-93500205D01*
X153860500Y-93445920D01*
X153941744Y-93500205D01*
X154130102Y-93578226D01*
X154330061Y-93618000D01*
X154533939Y-93618000D01*
X154733898Y-93578226D01*
X154922256Y-93500205D01*
X155091774Y-93386937D01*
X155214031Y-93264680D01*
X155222854Y-93277885D01*
X155367017Y-93422048D01*
X155536535Y-93535316D01*
X155724893Y-93613337D01*
X155924852Y-93653111D01*
X156128730Y-93653111D01*
X156328689Y-93613337D01*
X156517047Y-93535316D01*
X156686565Y-93422048D01*
X156830728Y-93277885D01*
X156943996Y-93108367D01*
X157022017Y-92920009D01*
X157061791Y-92720050D01*
X157061791Y-92516172D01*
X157049822Y-92456000D01*
X158369000Y-92456000D01*
X158369000Y-94850000D01*
X158267061Y-94850000D01*
X158067102Y-94889774D01*
X157878744Y-94967795D01*
X157709226Y-95081063D01*
X157565063Y-95225226D01*
X157451795Y-95394744D01*
X157373774Y-95583102D01*
X157334000Y-95783061D01*
X157334000Y-95986939D01*
X157373774Y-96186898D01*
X157451795Y-96375256D01*
X157565063Y-96544774D01*
X157709226Y-96688937D01*
X157878744Y-96802205D01*
X158067102Y-96880226D01*
X158267061Y-96920000D01*
X158369000Y-96920000D01*
X158369000Y-101455717D01*
X158193178Y-101420744D01*
X157989300Y-101420744D01*
X157789341Y-101460518D01*
X157600983Y-101538539D01*
X157431465Y-101651807D01*
X157287302Y-101795970D01*
X157174034Y-101965488D01*
X157096013Y-102153846D01*
X157056239Y-102353805D01*
X157056239Y-102557683D01*
X157096013Y-102757642D01*
X157174034Y-102946000D01*
X157287302Y-103115518D01*
X157431465Y-103259681D01*
X157600983Y-103372949D01*
X157789341Y-103450970D01*
X157989300Y-103490744D01*
X158193178Y-103490744D01*
X158369000Y-103455771D01*
X158369000Y-103632000D01*
X158371440Y-103656776D01*
X158378667Y-103680601D01*
X158390403Y-103702557D01*
X158406197Y-103721803D01*
X158425443Y-103737597D01*
X158447399Y-103749333D01*
X158471224Y-103756560D01*
X158496000Y-103759000D01*
X159893000Y-103759000D01*
X159893000Y-108189985D01*
X159718102Y-108224774D01*
X159529744Y-108302795D01*
X159360226Y-108416063D01*
X159277000Y-108499289D01*
X159277000Y-108483061D01*
X159237226Y-108283102D01*
X159159205Y-108094744D01*
X159045937Y-107925226D01*
X158901774Y-107781063D01*
X158732256Y-107667795D01*
X158543898Y-107589774D01*
X158343939Y-107550000D01*
X158140061Y-107550000D01*
X157940102Y-107589774D01*
X157751744Y-107667795D01*
X157582226Y-107781063D01*
X157438063Y-107925226D01*
X157324795Y-108094744D01*
X157246774Y-108283102D01*
X157207000Y-108483061D01*
X157207000Y-108686939D01*
X157246774Y-108886898D01*
X157324795Y-109075256D01*
X157438063Y-109244774D01*
X157582226Y-109388937D01*
X157751744Y-109502205D01*
X157940102Y-109580226D01*
X158140061Y-109620000D01*
X158343939Y-109620000D01*
X158543898Y-109580226D01*
X158732256Y-109502205D01*
X158901774Y-109388937D01*
X158985000Y-109305711D01*
X158985000Y-109321939D01*
X159024774Y-109521898D01*
X159102795Y-109710256D01*
X159216063Y-109879774D01*
X159360226Y-110023937D01*
X159529744Y-110137205D01*
X159718102Y-110215226D01*
X159893000Y-110250015D01*
X159893000Y-111506000D01*
X157140440Y-111506000D01*
X157173205Y-111426898D01*
X157212979Y-111226939D01*
X157212979Y-111023061D01*
X157173205Y-110823102D01*
X157095184Y-110634744D01*
X157058654Y-110580073D01*
X157086500Y-110440085D01*
X157086500Y-110254921D01*
X157050376Y-110073315D01*
X156979517Y-109902246D01*
X156876645Y-109748288D01*
X156745715Y-109617358D01*
X156591757Y-109514486D01*
X156420688Y-109443627D01*
X156239082Y-109407503D01*
X156053918Y-109407503D01*
X155872312Y-109443627D01*
X155701243Y-109514486D01*
X155547285Y-109617358D01*
X155416355Y-109748288D01*
X155313483Y-109902246D01*
X155313375Y-109902507D01*
X155167895Y-109858376D01*
X155015838Y-109843400D01*
X154926565Y-109843400D01*
X154974108Y-109728622D01*
X155011000Y-109543152D01*
X155011000Y-109354048D01*
X154974108Y-109168578D01*
X154901741Y-108993869D01*
X154796681Y-108836636D01*
X154662964Y-108702919D01*
X154505731Y-108597859D01*
X154331022Y-108525492D01*
X154145552Y-108488600D01*
X153956448Y-108488600D01*
X153770978Y-108525492D01*
X153596269Y-108597859D01*
X153439036Y-108702919D01*
X153305319Y-108836636D01*
X153200259Y-108993869D01*
X153127892Y-109168578D01*
X153123797Y-109189164D01*
X153040723Y-109223574D01*
X152886765Y-109326446D01*
X152755835Y-109457376D01*
X152652963Y-109611334D01*
X152582104Y-109782403D01*
X152545980Y-109964009D01*
X152545980Y-110149173D01*
X152582104Y-110330779D01*
X152652963Y-110501848D01*
X152755835Y-110655806D01*
X152838750Y-110738721D01*
X152824993Y-110878400D01*
X152844976Y-111081295D01*
X152904159Y-111276393D01*
X153000266Y-111456197D01*
X153129604Y-111613796D01*
X153287203Y-111743134D01*
X153467007Y-111839241D01*
X153662105Y-111898424D01*
X153814162Y-111913400D01*
X155015838Y-111913400D01*
X155167895Y-111898424D01*
X155362993Y-111839241D01*
X155405688Y-111816420D01*
X155518205Y-111928937D01*
X155550476Y-111950500D01*
X149377000Y-111950500D01*
X149377000Y-111610623D01*
X149379604Y-111613796D01*
X149537203Y-111743134D01*
X149717007Y-111839241D01*
X149912105Y-111898424D01*
X150064162Y-111913400D01*
X150965838Y-111913400D01*
X151117895Y-111898424D01*
X151312993Y-111839241D01*
X151492797Y-111743134D01*
X151650396Y-111613796D01*
X151779734Y-111456197D01*
X151875841Y-111276393D01*
X151935024Y-111081295D01*
X151955007Y-110878400D01*
X151935024Y-110675505D01*
X151875841Y-110480407D01*
X151779734Y-110300603D01*
X151650396Y-110143004D01*
X151492797Y-110013666D01*
X151312993Y-109917559D01*
X151117895Y-109858376D01*
X150965838Y-109843400D01*
X150064162Y-109843400D01*
X149912105Y-109858376D01*
X149717007Y-109917559D01*
X149537203Y-110013666D01*
X149379604Y-110143004D01*
X149377000Y-110146177D01*
X149377000Y-103002693D01*
X149487203Y-103093134D01*
X149667007Y-103189241D01*
X149862105Y-103248424D01*
X150014162Y-103263400D01*
X150915838Y-103263400D01*
X151067895Y-103248424D01*
X151262993Y-103189241D01*
X151442797Y-103093134D01*
X151595373Y-102967918D01*
X152476000Y-102967918D01*
X152476000Y-103153082D01*
X152512124Y-103334688D01*
X152582983Y-103505757D01*
X152685855Y-103659715D01*
X152816785Y-103790645D01*
X152970743Y-103893517D01*
X153126979Y-103958232D01*
X153127892Y-103962822D01*
X153200259Y-104137531D01*
X153305319Y-104294764D01*
X153439036Y-104428481D01*
X153596269Y-104533541D01*
X153770978Y-104605908D01*
X153956448Y-104642800D01*
X154145552Y-104642800D01*
X154331022Y-104605908D01*
X154505731Y-104533541D01*
X154662964Y-104428481D01*
X154796681Y-104294764D01*
X154901741Y-104137531D01*
X154974108Y-103962822D01*
X155011000Y-103777352D01*
X155011000Y-103588248D01*
X154974108Y-103402778D01*
X154916376Y-103263400D01*
X155015838Y-103263400D01*
X155167895Y-103248424D01*
X155270300Y-103217360D01*
X155312717Y-103319764D01*
X155415589Y-103473722D01*
X155546519Y-103604652D01*
X155700477Y-103707524D01*
X155871546Y-103778383D01*
X156053152Y-103814507D01*
X156238316Y-103814507D01*
X156419922Y-103778383D01*
X156590991Y-103707524D01*
X156744949Y-103604652D01*
X156875879Y-103473722D01*
X156978751Y-103319764D01*
X157049610Y-103148695D01*
X157085734Y-102967089D01*
X157085734Y-102781925D01*
X157049610Y-102600319D01*
X156978751Y-102429250D01*
X156875879Y-102275292D01*
X156744949Y-102144362D01*
X156590991Y-102041490D01*
X156473992Y-101993028D01*
X156638898Y-101960226D01*
X156827256Y-101882205D01*
X156996774Y-101768937D01*
X157140937Y-101624774D01*
X157254205Y-101455256D01*
X157332226Y-101266898D01*
X157372000Y-101066939D01*
X157372000Y-100863061D01*
X157332226Y-100663102D01*
X157254205Y-100474744D01*
X157140937Y-100305226D01*
X156996774Y-100161063D01*
X156827256Y-100047795D01*
X156638898Y-99969774D01*
X156438939Y-99930000D01*
X156235061Y-99930000D01*
X156035102Y-99969774D01*
X155928103Y-100014095D01*
X155935226Y-99996898D01*
X155975000Y-99796939D01*
X155975000Y-99593061D01*
X155935226Y-99393102D01*
X155876158Y-99250500D01*
X155935226Y-99107898D01*
X155975000Y-98907939D01*
X155975000Y-98704061D01*
X155935226Y-98504102D01*
X155876158Y-98361500D01*
X155935226Y-98218898D01*
X155975000Y-98018939D01*
X155975000Y-97815061D01*
X155936617Y-97622094D01*
X155997937Y-97560774D01*
X156111205Y-97391256D01*
X156189226Y-97202898D01*
X156229000Y-97002939D01*
X156229000Y-96799061D01*
X156189226Y-96599102D01*
X156111205Y-96410744D01*
X155997937Y-96241226D01*
X155853774Y-96097063D01*
X155684256Y-95983795D01*
X155495898Y-95905774D01*
X155295939Y-95866000D01*
X155092061Y-95866000D01*
X154892102Y-95905774D01*
X154703744Y-95983795D01*
X154534226Y-96097063D01*
X154390063Y-96241226D01*
X154276795Y-96410744D01*
X154198774Y-96599102D01*
X154159000Y-96799061D01*
X154159000Y-97002939D01*
X154197383Y-97195906D01*
X154136063Y-97257226D01*
X154022795Y-97426744D01*
X153944774Y-97615102D01*
X153905000Y-97815061D01*
X153905000Y-98018939D01*
X153944774Y-98218898D01*
X154003842Y-98361500D01*
X153944774Y-98504102D01*
X153905000Y-98704061D01*
X153905000Y-98907939D01*
X153944774Y-99107898D01*
X154003842Y-99250500D01*
X153944774Y-99393102D01*
X153905000Y-99593061D01*
X153905000Y-99796939D01*
X153944774Y-99996898D01*
X154022795Y-100185256D01*
X154136063Y-100354774D01*
X154280226Y-100498937D01*
X154449744Y-100612205D01*
X154638102Y-100690226D01*
X154838061Y-100730000D01*
X155041939Y-100730000D01*
X155241898Y-100690226D01*
X155348897Y-100645905D01*
X155341774Y-100663102D01*
X155302000Y-100863061D01*
X155302000Y-101066939D01*
X155340551Y-101260751D01*
X155167895Y-101208376D01*
X155015838Y-101193400D01*
X153814162Y-101193400D01*
X153662105Y-101208376D01*
X153467007Y-101267559D01*
X153287203Y-101363666D01*
X153129604Y-101493004D01*
X153000266Y-101650603D01*
X152904159Y-101830407D01*
X152844976Y-102025505D01*
X152824993Y-102228400D01*
X152833908Y-102318914D01*
X152816785Y-102330355D01*
X152685855Y-102461285D01*
X152582983Y-102615243D01*
X152512124Y-102786312D01*
X152476000Y-102967918D01*
X151595373Y-102967918D01*
X151600396Y-102963796D01*
X151729734Y-102806197D01*
X151825841Y-102626393D01*
X151885024Y-102431295D01*
X151905007Y-102228400D01*
X151885024Y-102025505D01*
X151825841Y-101830407D01*
X151729734Y-101650603D01*
X151600396Y-101493004D01*
X151442797Y-101363666D01*
X151262993Y-101267559D01*
X151067895Y-101208376D01*
X150915838Y-101193400D01*
X150014162Y-101193400D01*
X149862105Y-101208376D01*
X149667007Y-101267559D01*
X149487203Y-101363666D01*
X149377000Y-101454107D01*
X149377000Y-92456000D01*
X152258985Y-92456000D01*
X152254000Y-92481061D01*
G37*
G04 #@! TD.AperFunction*
D27*
X192940000Y-116762007D02*
X192564613Y-116511182D01*
X192064145Y-116303881D01*
X191532851Y-116198200D01*
X190991149Y-116198200D01*
X190459855Y-116303881D01*
X189959387Y-116511182D01*
X189508977Y-116812136D01*
X189125936Y-117195177D01*
X188824982Y-117645587D01*
X188726642Y-117883000D01*
X180594000Y-117883000D01*
X180574491Y-117884921D01*
X180555732Y-117890612D01*
X180538443Y-117899853D01*
X180523289Y-117912289D01*
X180510853Y-117927443D01*
X180501612Y-117944732D01*
X180495921Y-117963491D01*
X180494000Y-117983000D01*
X180494000Y-119250655D01*
X180462737Y-119281918D01*
X180336884Y-119470271D01*
X180250194Y-119679557D01*
X180206000Y-119901735D01*
X180206000Y-120128265D01*
X180250194Y-120350443D01*
X180336884Y-120559729D01*
X180462737Y-120748082D01*
X180494000Y-120779345D01*
X180494000Y-121188600D01*
X177265000Y-121188600D01*
X177265000Y-120604801D01*
X177295116Y-120559729D01*
X177381806Y-120350443D01*
X177407842Y-120219549D01*
X177684337Y-120219549D01*
X177745987Y-120436395D01*
X177848757Y-120637047D01*
X177988698Y-120813794D01*
X178160431Y-120959844D01*
X178357357Y-121069584D01*
X178571909Y-121138797D01*
X178611451Y-121146662D01*
X178791000Y-121089709D01*
X178791000Y-120040000D01*
X178841000Y-120040000D01*
X178841000Y-121089709D01*
X179020549Y-121146662D01*
X179060091Y-121138797D01*
X179274643Y-121069584D01*
X179471569Y-120959844D01*
X179643302Y-120813794D01*
X179783243Y-120637047D01*
X179886013Y-120436395D01*
X179947663Y-120219549D01*
X179890729Y-120040000D01*
X178841000Y-120040000D01*
X178791000Y-120040000D01*
X177741271Y-120040000D01*
X177684337Y-120219549D01*
X177407842Y-120219549D01*
X177426000Y-120128265D01*
X177426000Y-119901735D01*
X177407843Y-119810451D01*
X177684337Y-119810451D01*
X177741271Y-119990000D01*
X178791000Y-119990000D01*
X178791000Y-118940291D01*
X178841000Y-118940291D01*
X178841000Y-119990000D01*
X179890729Y-119990000D01*
X179947663Y-119810451D01*
X179886013Y-119593605D01*
X179783243Y-119392953D01*
X179643302Y-119216206D01*
X179471569Y-119070156D01*
X179274643Y-118960416D01*
X179060091Y-118891203D01*
X179020549Y-118883338D01*
X178841000Y-118940291D01*
X178791000Y-118940291D01*
X178611451Y-118883338D01*
X178571909Y-118891203D01*
X178357357Y-118960416D01*
X178160431Y-119070156D01*
X177988698Y-119216206D01*
X177848757Y-119392953D01*
X177745987Y-119593605D01*
X177684337Y-119810451D01*
X177407843Y-119810451D01*
X177381806Y-119679557D01*
X177295116Y-119470271D01*
X177265000Y-119425199D01*
X177265000Y-115247056D01*
X186498000Y-115247056D01*
X186498000Y-115384944D01*
X186524901Y-115520182D01*
X186577668Y-115647574D01*
X186654274Y-115762224D01*
X186751776Y-115859726D01*
X186866426Y-115936332D01*
X186993818Y-115989099D01*
X187129056Y-116016000D01*
X187266944Y-116016000D01*
X187402182Y-115989099D01*
X187529574Y-115936332D01*
X187644224Y-115859726D01*
X187741726Y-115762224D01*
X187818332Y-115647574D01*
X187871099Y-115520182D01*
X187898000Y-115384944D01*
X187898000Y-115247056D01*
X187871099Y-115111818D01*
X187821907Y-114993056D01*
X190562000Y-114993056D01*
X190562000Y-115130944D01*
X190588901Y-115266182D01*
X190641668Y-115393574D01*
X190718274Y-115508224D01*
X190815776Y-115605726D01*
X190930426Y-115682332D01*
X191057818Y-115735099D01*
X191193056Y-115762000D01*
X191330944Y-115762000D01*
X191466182Y-115735099D01*
X191593574Y-115682332D01*
X191708224Y-115605726D01*
X191805726Y-115508224D01*
X191882332Y-115393574D01*
X191935099Y-115266182D01*
X191962000Y-115130944D01*
X191962000Y-114993056D01*
X191935099Y-114857818D01*
X191882332Y-114730426D01*
X191805726Y-114615776D01*
X191708224Y-114518274D01*
X191593574Y-114441668D01*
X191466182Y-114388901D01*
X191330944Y-114362000D01*
X191193056Y-114362000D01*
X191057818Y-114388901D01*
X190930426Y-114441668D01*
X190815776Y-114518274D01*
X190718274Y-114615776D01*
X190641668Y-114730426D01*
X190588901Y-114857818D01*
X190562000Y-114993056D01*
X187821907Y-114993056D01*
X187818332Y-114984426D01*
X187741726Y-114869776D01*
X187644224Y-114772274D01*
X187529574Y-114695668D01*
X187402182Y-114642901D01*
X187266944Y-114616000D01*
X187129056Y-114616000D01*
X186993818Y-114642901D01*
X186866426Y-114695668D01*
X186751776Y-114772274D01*
X186654274Y-114869776D01*
X186577668Y-114984426D01*
X186524901Y-115111818D01*
X186498000Y-115247056D01*
X177265000Y-115247056D01*
X177265000Y-113215056D01*
X179894000Y-113215056D01*
X179894000Y-113352944D01*
X179920901Y-113488182D01*
X179973668Y-113615574D01*
X180050274Y-113730224D01*
X180147776Y-113827726D01*
X180262426Y-113904332D01*
X180389818Y-113957099D01*
X180525056Y-113984000D01*
X180662944Y-113984000D01*
X180798182Y-113957099D01*
X180925574Y-113904332D01*
X181040224Y-113827726D01*
X181137726Y-113730224D01*
X181214332Y-113615574D01*
X181267099Y-113488182D01*
X181294000Y-113352944D01*
X181294000Y-113215056D01*
X181267099Y-113079818D01*
X181214332Y-112952426D01*
X181137726Y-112837776D01*
X181040224Y-112740274D01*
X180925574Y-112663668D01*
X180798182Y-112610901D01*
X180662944Y-112584000D01*
X180525056Y-112584000D01*
X180389818Y-112610901D01*
X180262426Y-112663668D01*
X180147776Y-112740274D01*
X180050274Y-112837776D01*
X179973668Y-112952426D01*
X179920901Y-113079818D01*
X179894000Y-113215056D01*
X177265000Y-113215056D01*
X177265000Y-111669500D01*
X180283521Y-111669500D01*
X180374149Y-111730055D01*
X180501541Y-111782822D01*
X180636779Y-111809723D01*
X180774667Y-111809723D01*
X180909905Y-111782822D01*
X181037297Y-111730055D01*
X181127925Y-111669500D01*
X183069000Y-111669500D01*
X183069000Y-111701944D01*
X183095901Y-111837182D01*
X183148668Y-111964574D01*
X183225274Y-112079224D01*
X183322776Y-112176726D01*
X183437426Y-112253332D01*
X183564818Y-112306099D01*
X183700056Y-112333000D01*
X183837944Y-112333000D01*
X183973182Y-112306099D01*
X184100574Y-112253332D01*
X184215224Y-112176726D01*
X184312726Y-112079224D01*
X184389332Y-111964574D01*
X184442099Y-111837182D01*
X184469000Y-111701944D01*
X184469000Y-111669500D01*
X184594500Y-111669500D01*
X184614009Y-111667579D01*
X184632768Y-111661888D01*
X184650057Y-111652647D01*
X184665211Y-111640211D01*
X184677647Y-111625057D01*
X184686888Y-111607768D01*
X184692579Y-111589009D01*
X184694485Y-111571254D01*
X184694673Y-111560514D01*
X185803042Y-111560514D01*
X185803042Y-111698402D01*
X185829943Y-111833640D01*
X185882710Y-111961032D01*
X185959316Y-112075682D01*
X186056818Y-112173184D01*
X186171468Y-112249790D01*
X186298860Y-112302557D01*
X186434098Y-112329458D01*
X186571986Y-112329458D01*
X186707224Y-112302557D01*
X186834616Y-112249790D01*
X186949266Y-112173184D01*
X187046768Y-112075682D01*
X187123374Y-111961032D01*
X187176141Y-111833640D01*
X187203042Y-111698402D01*
X187203042Y-111560514D01*
X187178485Y-111437056D01*
X187958500Y-111437056D01*
X187958500Y-111574944D01*
X187985401Y-111710182D01*
X188038168Y-111837574D01*
X188114774Y-111952224D01*
X188212276Y-112049726D01*
X188326926Y-112126332D01*
X188454318Y-112179099D01*
X188589556Y-112206000D01*
X188727444Y-112206000D01*
X188862682Y-112179099D01*
X188990074Y-112126332D01*
X189104724Y-112049726D01*
X189202226Y-111952224D01*
X189278832Y-111837574D01*
X189331599Y-111710182D01*
X189354349Y-111595811D01*
X189958755Y-111595811D01*
X189958755Y-111733699D01*
X189985656Y-111868937D01*
X190038423Y-111996329D01*
X190115029Y-112110979D01*
X190212531Y-112208481D01*
X190327181Y-112285087D01*
X190454573Y-112337854D01*
X190589811Y-112364755D01*
X190727699Y-112364755D01*
X190862937Y-112337854D01*
X190990329Y-112285087D01*
X191104979Y-112208481D01*
X191202481Y-112110979D01*
X191279087Y-111996329D01*
X191331854Y-111868937D01*
X191358755Y-111733699D01*
X191358755Y-111691056D01*
X191387500Y-111691056D01*
X191387500Y-111828944D01*
X191414401Y-111964182D01*
X191467168Y-112091574D01*
X191543774Y-112206224D01*
X191641276Y-112303726D01*
X191755926Y-112380332D01*
X191883318Y-112433099D01*
X192018556Y-112460000D01*
X192156444Y-112460000D01*
X192291682Y-112433099D01*
X192419074Y-112380332D01*
X192533724Y-112303726D01*
X192631226Y-112206224D01*
X192707832Y-112091574D01*
X192760599Y-111964182D01*
X192787500Y-111828944D01*
X192787500Y-111691056D01*
X192760599Y-111555818D01*
X192707832Y-111428426D01*
X192631226Y-111313776D01*
X192533724Y-111216274D01*
X192419074Y-111139668D01*
X192291682Y-111086901D01*
X192156444Y-111060000D01*
X192018556Y-111060000D01*
X191883318Y-111086901D01*
X191755926Y-111139668D01*
X191641276Y-111216274D01*
X191543774Y-111313776D01*
X191467168Y-111428426D01*
X191414401Y-111555818D01*
X191387500Y-111691056D01*
X191358755Y-111691056D01*
X191358755Y-111595811D01*
X191331854Y-111460573D01*
X191279087Y-111333181D01*
X191202481Y-111218531D01*
X191104979Y-111121029D01*
X190990329Y-111044423D01*
X190862937Y-110991656D01*
X190727699Y-110964755D01*
X190589811Y-110964755D01*
X190454573Y-110991656D01*
X190327181Y-111044423D01*
X190212531Y-111121029D01*
X190115029Y-111218531D01*
X190038423Y-111333181D01*
X189985656Y-111460573D01*
X189958755Y-111595811D01*
X189354349Y-111595811D01*
X189358500Y-111574944D01*
X189358500Y-111437056D01*
X189331599Y-111301818D01*
X189278832Y-111174426D01*
X189202226Y-111059776D01*
X189104724Y-110962274D01*
X188990074Y-110885668D01*
X188862682Y-110832901D01*
X188727444Y-110806000D01*
X188589556Y-110806000D01*
X188454318Y-110832901D01*
X188326926Y-110885668D01*
X188212276Y-110962274D01*
X188114774Y-111059776D01*
X188038168Y-111174426D01*
X187985401Y-111301818D01*
X187958500Y-111437056D01*
X187178485Y-111437056D01*
X187176141Y-111425276D01*
X187123374Y-111297884D01*
X187046768Y-111183234D01*
X186949266Y-111085732D01*
X186834616Y-111009126D01*
X186707224Y-110956359D01*
X186571986Y-110929458D01*
X186434098Y-110929458D01*
X186298860Y-110956359D01*
X186171468Y-111009126D01*
X186056818Y-111085732D01*
X185959316Y-111183234D01*
X185882710Y-111297884D01*
X185829943Y-111425276D01*
X185803042Y-111560514D01*
X184694673Y-111560514D01*
X184757276Y-107992146D01*
X185334422Y-107415000D01*
X192940000Y-107415000D01*
X192940000Y-116762007D01*
G04 #@! TA.AperFunction,Conductor*
D26*
G36*
X192940000Y-116762007D02*
G01*
X192564613Y-116511182D01*
X192064145Y-116303881D01*
X191532851Y-116198200D01*
X190991149Y-116198200D01*
X190459855Y-116303881D01*
X189959387Y-116511182D01*
X189508977Y-116812136D01*
X189125936Y-117195177D01*
X188824982Y-117645587D01*
X188726642Y-117883000D01*
X180594000Y-117883000D01*
X180574491Y-117884921D01*
X180555732Y-117890612D01*
X180538443Y-117899853D01*
X180523289Y-117912289D01*
X180510853Y-117927443D01*
X180501612Y-117944732D01*
X180495921Y-117963491D01*
X180494000Y-117983000D01*
X180494000Y-119250655D01*
X180462737Y-119281918D01*
X180336884Y-119470271D01*
X180250194Y-119679557D01*
X180206000Y-119901735D01*
X180206000Y-120128265D01*
X180250194Y-120350443D01*
X180336884Y-120559729D01*
X180462737Y-120748082D01*
X180494000Y-120779345D01*
X180494000Y-121188600D01*
X177265000Y-121188600D01*
X177265000Y-120604801D01*
X177295116Y-120559729D01*
X177381806Y-120350443D01*
X177407842Y-120219549D01*
X177684337Y-120219549D01*
X177745987Y-120436395D01*
X177848757Y-120637047D01*
X177988698Y-120813794D01*
X178160431Y-120959844D01*
X178357357Y-121069584D01*
X178571909Y-121138797D01*
X178611451Y-121146662D01*
X178791000Y-121089709D01*
X178791000Y-120040000D01*
X178841000Y-120040000D01*
X178841000Y-121089709D01*
X179020549Y-121146662D01*
X179060091Y-121138797D01*
X179274643Y-121069584D01*
X179471569Y-120959844D01*
X179643302Y-120813794D01*
X179783243Y-120637047D01*
X179886013Y-120436395D01*
X179947663Y-120219549D01*
X179890729Y-120040000D01*
X178841000Y-120040000D01*
X178791000Y-120040000D01*
X177741271Y-120040000D01*
X177684337Y-120219549D01*
X177407842Y-120219549D01*
X177426000Y-120128265D01*
X177426000Y-119901735D01*
X177407843Y-119810451D01*
X177684337Y-119810451D01*
X177741271Y-119990000D01*
X178791000Y-119990000D01*
X178791000Y-118940291D01*
X178841000Y-118940291D01*
X178841000Y-119990000D01*
X179890729Y-119990000D01*
X179947663Y-119810451D01*
X179886013Y-119593605D01*
X179783243Y-119392953D01*
X179643302Y-119216206D01*
X179471569Y-119070156D01*
X179274643Y-118960416D01*
X179060091Y-118891203D01*
X179020549Y-118883338D01*
X178841000Y-118940291D01*
X178791000Y-118940291D01*
X178611451Y-118883338D01*
X178571909Y-118891203D01*
X178357357Y-118960416D01*
X178160431Y-119070156D01*
X177988698Y-119216206D01*
X177848757Y-119392953D01*
X177745987Y-119593605D01*
X177684337Y-119810451D01*
X177407843Y-119810451D01*
X177381806Y-119679557D01*
X177295116Y-119470271D01*
X177265000Y-119425199D01*
X177265000Y-115247056D01*
X186498000Y-115247056D01*
X186498000Y-115384944D01*
X186524901Y-115520182D01*
X186577668Y-115647574D01*
X186654274Y-115762224D01*
X186751776Y-115859726D01*
X186866426Y-115936332D01*
X186993818Y-115989099D01*
X187129056Y-116016000D01*
X187266944Y-116016000D01*
X187402182Y-115989099D01*
X187529574Y-115936332D01*
X187644224Y-115859726D01*
X187741726Y-115762224D01*
X187818332Y-115647574D01*
X187871099Y-115520182D01*
X187898000Y-115384944D01*
X187898000Y-115247056D01*
X187871099Y-115111818D01*
X187821907Y-114993056D01*
X190562000Y-114993056D01*
X190562000Y-115130944D01*
X190588901Y-115266182D01*
X190641668Y-115393574D01*
X190718274Y-115508224D01*
X190815776Y-115605726D01*
X190930426Y-115682332D01*
X191057818Y-115735099D01*
X191193056Y-115762000D01*
X191330944Y-115762000D01*
X191466182Y-115735099D01*
X191593574Y-115682332D01*
X191708224Y-115605726D01*
X191805726Y-115508224D01*
X191882332Y-115393574D01*
X191935099Y-115266182D01*
X191962000Y-115130944D01*
X191962000Y-114993056D01*
X191935099Y-114857818D01*
X191882332Y-114730426D01*
X191805726Y-114615776D01*
X191708224Y-114518274D01*
X191593574Y-114441668D01*
X191466182Y-114388901D01*
X191330944Y-114362000D01*
X191193056Y-114362000D01*
X191057818Y-114388901D01*
X190930426Y-114441668D01*
X190815776Y-114518274D01*
X190718274Y-114615776D01*
X190641668Y-114730426D01*
X190588901Y-114857818D01*
X190562000Y-114993056D01*
X187821907Y-114993056D01*
X187818332Y-114984426D01*
X187741726Y-114869776D01*
X187644224Y-114772274D01*
X187529574Y-114695668D01*
X187402182Y-114642901D01*
X187266944Y-114616000D01*
X187129056Y-114616000D01*
X186993818Y-114642901D01*
X186866426Y-114695668D01*
X186751776Y-114772274D01*
X186654274Y-114869776D01*
X186577668Y-114984426D01*
X186524901Y-115111818D01*
X186498000Y-115247056D01*
X177265000Y-115247056D01*
X177265000Y-113215056D01*
X179894000Y-113215056D01*
X179894000Y-113352944D01*
X179920901Y-113488182D01*
X179973668Y-113615574D01*
X180050274Y-113730224D01*
X180147776Y-113827726D01*
X180262426Y-113904332D01*
X180389818Y-113957099D01*
X180525056Y-113984000D01*
X180662944Y-113984000D01*
X180798182Y-113957099D01*
X180925574Y-113904332D01*
X181040224Y-113827726D01*
X181137726Y-113730224D01*
X181214332Y-113615574D01*
X181267099Y-113488182D01*
X181294000Y-113352944D01*
X181294000Y-113215056D01*
X181267099Y-113079818D01*
X181214332Y-112952426D01*
X181137726Y-112837776D01*
X181040224Y-112740274D01*
X180925574Y-112663668D01*
X180798182Y-112610901D01*
X180662944Y-112584000D01*
X180525056Y-112584000D01*
X180389818Y-112610901D01*
X180262426Y-112663668D01*
X180147776Y-112740274D01*
X180050274Y-112837776D01*
X179973668Y-112952426D01*
X179920901Y-113079818D01*
X179894000Y-113215056D01*
X177265000Y-113215056D01*
X177265000Y-111669500D01*
X180283521Y-111669500D01*
X180374149Y-111730055D01*
X180501541Y-111782822D01*
X180636779Y-111809723D01*
X180774667Y-111809723D01*
X180909905Y-111782822D01*
X181037297Y-111730055D01*
X181127925Y-111669500D01*
X183069000Y-111669500D01*
X183069000Y-111701944D01*
X183095901Y-111837182D01*
X183148668Y-111964574D01*
X183225274Y-112079224D01*
X183322776Y-112176726D01*
X183437426Y-112253332D01*
X183564818Y-112306099D01*
X183700056Y-112333000D01*
X183837944Y-112333000D01*
X183973182Y-112306099D01*
X184100574Y-112253332D01*
X184215224Y-112176726D01*
X184312726Y-112079224D01*
X184389332Y-111964574D01*
X184442099Y-111837182D01*
X184469000Y-111701944D01*
X184469000Y-111669500D01*
X184594500Y-111669500D01*
X184614009Y-111667579D01*
X184632768Y-111661888D01*
X184650057Y-111652647D01*
X184665211Y-111640211D01*
X184677647Y-111625057D01*
X184686888Y-111607768D01*
X184692579Y-111589009D01*
X184694485Y-111571254D01*
X184694673Y-111560514D01*
X185803042Y-111560514D01*
X185803042Y-111698402D01*
X185829943Y-111833640D01*
X185882710Y-111961032D01*
X185959316Y-112075682D01*
X186056818Y-112173184D01*
X186171468Y-112249790D01*
X186298860Y-112302557D01*
X186434098Y-112329458D01*
X186571986Y-112329458D01*
X186707224Y-112302557D01*
X186834616Y-112249790D01*
X186949266Y-112173184D01*
X187046768Y-112075682D01*
X187123374Y-111961032D01*
X187176141Y-111833640D01*
X187203042Y-111698402D01*
X187203042Y-111560514D01*
X187178485Y-111437056D01*
X187958500Y-111437056D01*
X187958500Y-111574944D01*
X187985401Y-111710182D01*
X188038168Y-111837574D01*
X188114774Y-111952224D01*
X188212276Y-112049726D01*
X188326926Y-112126332D01*
X188454318Y-112179099D01*
X188589556Y-112206000D01*
X188727444Y-112206000D01*
X188862682Y-112179099D01*
X188990074Y-112126332D01*
X189104724Y-112049726D01*
X189202226Y-111952224D01*
X189278832Y-111837574D01*
X189331599Y-111710182D01*
X189354349Y-111595811D01*
X189958755Y-111595811D01*
X189958755Y-111733699D01*
X189985656Y-111868937D01*
X190038423Y-111996329D01*
X190115029Y-112110979D01*
X190212531Y-112208481D01*
X190327181Y-112285087D01*
X190454573Y-112337854D01*
X190589811Y-112364755D01*
X190727699Y-112364755D01*
X190862937Y-112337854D01*
X190990329Y-112285087D01*
X191104979Y-112208481D01*
X191202481Y-112110979D01*
X191279087Y-111996329D01*
X191331854Y-111868937D01*
X191358755Y-111733699D01*
X191358755Y-111691056D01*
X191387500Y-111691056D01*
X191387500Y-111828944D01*
X191414401Y-111964182D01*
X191467168Y-112091574D01*
X191543774Y-112206224D01*
X191641276Y-112303726D01*
X191755926Y-112380332D01*
X191883318Y-112433099D01*
X192018556Y-112460000D01*
X192156444Y-112460000D01*
X192291682Y-112433099D01*
X192419074Y-112380332D01*
X192533724Y-112303726D01*
X192631226Y-112206224D01*
X192707832Y-112091574D01*
X192760599Y-111964182D01*
X192787500Y-111828944D01*
X192787500Y-111691056D01*
X192760599Y-111555818D01*
X192707832Y-111428426D01*
X192631226Y-111313776D01*
X192533724Y-111216274D01*
X192419074Y-111139668D01*
X192291682Y-111086901D01*
X192156444Y-111060000D01*
X192018556Y-111060000D01*
X191883318Y-111086901D01*
X191755926Y-111139668D01*
X191641276Y-111216274D01*
X191543774Y-111313776D01*
X191467168Y-111428426D01*
X191414401Y-111555818D01*
X191387500Y-111691056D01*
X191358755Y-111691056D01*
X191358755Y-111595811D01*
X191331854Y-111460573D01*
X191279087Y-111333181D01*
X191202481Y-111218531D01*
X191104979Y-111121029D01*
X190990329Y-111044423D01*
X190862937Y-110991656D01*
X190727699Y-110964755D01*
X190589811Y-110964755D01*
X190454573Y-110991656D01*
X190327181Y-111044423D01*
X190212531Y-111121029D01*
X190115029Y-111218531D01*
X190038423Y-111333181D01*
X189985656Y-111460573D01*
X189958755Y-111595811D01*
X189354349Y-111595811D01*
X189358500Y-111574944D01*
X189358500Y-111437056D01*
X189331599Y-111301818D01*
X189278832Y-111174426D01*
X189202226Y-111059776D01*
X189104724Y-110962274D01*
X188990074Y-110885668D01*
X188862682Y-110832901D01*
X188727444Y-110806000D01*
X188589556Y-110806000D01*
X188454318Y-110832901D01*
X188326926Y-110885668D01*
X188212276Y-110962274D01*
X188114774Y-111059776D01*
X188038168Y-111174426D01*
X187985401Y-111301818D01*
X187958500Y-111437056D01*
X187178485Y-111437056D01*
X187176141Y-111425276D01*
X187123374Y-111297884D01*
X187046768Y-111183234D01*
X186949266Y-111085732D01*
X186834616Y-111009126D01*
X186707224Y-110956359D01*
X186571986Y-110929458D01*
X186434098Y-110929458D01*
X186298860Y-110956359D01*
X186171468Y-111009126D01*
X186056818Y-111085732D01*
X185959316Y-111183234D01*
X185882710Y-111297884D01*
X185829943Y-111425276D01*
X185803042Y-111560514D01*
X184694673Y-111560514D01*
X184757276Y-107992146D01*
X185334422Y-107415000D01*
X192940000Y-107415000D01*
X192940000Y-116762007D01*
G37*
G04 #@! TD.AperFunction*
D25*
X189104963Y-77172966D02*
X188801054Y-77627797D01*
X188591718Y-78133179D01*
X188485000Y-78669689D01*
X188485000Y-79216711D01*
X188591718Y-79753221D01*
X188801054Y-80258603D01*
X189104963Y-80713434D01*
X189491766Y-81100237D01*
X189946597Y-81404146D01*
X190451979Y-81613482D01*
X190988489Y-81720200D01*
X191535511Y-81720200D01*
X192072021Y-81613482D01*
X192577403Y-81404146D01*
X193032234Y-81100237D01*
X193167400Y-80965071D01*
X193167400Y-89810231D01*
X193147206Y-89772450D01*
X193106343Y-89722657D01*
X193056550Y-89681794D01*
X192999743Y-89651430D01*
X192938103Y-89632732D01*
X192874000Y-89626418D01*
X192232750Y-89628000D01*
X192151000Y-89709750D01*
X192151000Y-90678000D01*
X192171000Y-90678000D01*
X192171000Y-90932000D01*
X192151000Y-90932000D01*
X192151000Y-90952000D01*
X191897000Y-90952000D01*
X191897000Y-90932000D01*
X190928750Y-90932000D01*
X190847000Y-91013750D01*
X190845418Y-91655000D01*
X190851732Y-91719103D01*
X190870430Y-91780743D01*
X190900794Y-91837550D01*
X190941657Y-91887343D01*
X190991450Y-91928206D01*
X191048257Y-91958570D01*
X191109897Y-91977268D01*
X191174000Y-91983582D01*
X191431798Y-91982946D01*
X191320589Y-92029010D01*
X191077368Y-92191525D01*
X190870525Y-92398368D01*
X190708010Y-92641589D01*
X190596068Y-92911842D01*
X190539000Y-93198740D01*
X190539000Y-93491260D01*
X190596068Y-93778158D01*
X190708010Y-94048411D01*
X190870525Y-94291632D01*
X191077368Y-94498475D01*
X191320589Y-94660990D01*
X191590842Y-94772932D01*
X191877740Y-94830000D01*
X192170260Y-94830000D01*
X192457158Y-94772932D01*
X192727411Y-94660990D01*
X192970632Y-94498475D01*
X193167400Y-94301707D01*
X193167400Y-96198293D01*
X192970632Y-96001525D01*
X192727411Y-95839010D01*
X192457158Y-95727068D01*
X192170260Y-95670000D01*
X191877740Y-95670000D01*
X191590842Y-95727068D01*
X191320589Y-95839010D01*
X191077368Y-96001525D01*
X190870525Y-96208368D01*
X190708010Y-96451589D01*
X190596068Y-96721842D01*
X190585693Y-96774000D01*
X183866633Y-96774000D01*
X183840017Y-96709743D01*
X183737145Y-96555785D01*
X183606215Y-96424855D01*
X183452257Y-96321983D01*
X183281188Y-96251124D01*
X183152285Y-96225483D01*
X180677863Y-93751061D01*
X187814000Y-93751061D01*
X187814000Y-93954939D01*
X187853774Y-94154898D01*
X187931795Y-94343256D01*
X188045063Y-94512774D01*
X188189226Y-94656937D01*
X188358744Y-94770205D01*
X188547102Y-94848226D01*
X188747061Y-94888000D01*
X188950939Y-94888000D01*
X189150898Y-94848226D01*
X189339256Y-94770205D01*
X189508774Y-94656937D01*
X189652937Y-94512774D01*
X189766205Y-94343256D01*
X189844226Y-94154898D01*
X189884000Y-93954939D01*
X189884000Y-93751061D01*
X189844226Y-93551102D01*
X189766205Y-93362744D01*
X189652937Y-93193226D01*
X189508774Y-93049063D01*
X189339256Y-92935795D01*
X189150898Y-92857774D01*
X188950939Y-92818000D01*
X188747061Y-92818000D01*
X188547102Y-92857774D01*
X188358744Y-92935795D01*
X188189226Y-93049063D01*
X188045063Y-93193226D01*
X187931795Y-93362744D01*
X187853774Y-93551102D01*
X187814000Y-93751061D01*
X180677863Y-93751061D01*
X180522495Y-93595694D01*
X180645212Y-93595694D01*
X180826818Y-93559570D01*
X180997887Y-93488711D01*
X181151845Y-93385839D01*
X181282775Y-93254909D01*
X181385647Y-93100951D01*
X181456506Y-92929882D01*
X181492630Y-92748276D01*
X181492630Y-92563112D01*
X181456506Y-92381506D01*
X181392533Y-92227061D01*
X184004000Y-92227061D01*
X184004000Y-92430939D01*
X184043774Y-92630898D01*
X184121795Y-92819256D01*
X184235063Y-92988774D01*
X184379226Y-93132937D01*
X184548744Y-93246205D01*
X184737102Y-93324226D01*
X184937061Y-93364000D01*
X185140939Y-93364000D01*
X185340898Y-93324226D01*
X185529256Y-93246205D01*
X185698774Y-93132937D01*
X185842937Y-92988774D01*
X185956205Y-92819256D01*
X186034226Y-92630898D01*
X186074000Y-92430939D01*
X186074000Y-92227061D01*
X186034226Y-92027102D01*
X185956205Y-91838744D01*
X185842937Y-91669226D01*
X185698774Y-91525063D01*
X185529256Y-91411795D01*
X185340898Y-91333774D01*
X185140939Y-91294000D01*
X184937061Y-91294000D01*
X184737102Y-91333774D01*
X184548744Y-91411795D01*
X184379226Y-91525063D01*
X184235063Y-91669226D01*
X184121795Y-91838744D01*
X184043774Y-92027102D01*
X184004000Y-92227061D01*
X181392533Y-92227061D01*
X181385647Y-92210437D01*
X181282775Y-92056479D01*
X181151845Y-91925549D01*
X180997887Y-91822677D01*
X180826818Y-91751818D01*
X180645212Y-91715694D01*
X180460048Y-91715694D01*
X180429349Y-91721800D01*
X180381802Y-91674253D01*
X180279020Y-91605576D01*
X180387799Y-91532892D01*
X180518729Y-91401962D01*
X180621601Y-91248004D01*
X180692460Y-91076935D01*
X180728584Y-90895329D01*
X180728584Y-90710165D01*
X180692460Y-90528559D01*
X180621601Y-90357490D01*
X180518729Y-90203532D01*
X180387799Y-90072602D01*
X180233841Y-89969730D01*
X180198280Y-89955000D01*
X190845418Y-89955000D01*
X190847000Y-90596250D01*
X190928750Y-90678000D01*
X191897000Y-90678000D01*
X191897000Y-89709750D01*
X191815250Y-89628000D01*
X191174000Y-89626418D01*
X191109897Y-89632732D01*
X191048257Y-89651430D01*
X190991450Y-89681794D01*
X190941657Y-89722657D01*
X190900794Y-89772450D01*
X190870430Y-89829257D01*
X190851732Y-89890897D01*
X190845418Y-89955000D01*
X180198280Y-89955000D01*
X180062772Y-89898871D01*
X179881166Y-89862747D01*
X179696002Y-89862747D01*
X179514396Y-89898871D01*
X179343327Y-89969730D01*
X179189369Y-90072602D01*
X179058439Y-90203532D01*
X178955567Y-90357490D01*
X178884708Y-90528559D01*
X178848584Y-90710165D01*
X178848584Y-90895329D01*
X178884708Y-91076935D01*
X178955567Y-91248004D01*
X179058439Y-91401962D01*
X179189369Y-91532892D01*
X179292151Y-91601569D01*
X179183372Y-91674253D01*
X179114743Y-91742883D01*
X179034215Y-91662355D01*
X178880257Y-91559483D01*
X178709188Y-91488624D01*
X178527582Y-91452500D01*
X178342418Y-91452500D01*
X178160812Y-91488624D01*
X177989743Y-91559483D01*
X177835785Y-91662355D01*
X177704855Y-91793285D01*
X177601983Y-91947243D01*
X177531124Y-92118312D01*
X177495000Y-92299918D01*
X177495000Y-92485082D01*
X177531124Y-92666688D01*
X177601983Y-92837757D01*
X177629007Y-92878201D01*
X177573123Y-92934085D01*
X177470251Y-93088043D01*
X177399392Y-93259112D01*
X177363268Y-93440718D01*
X177363268Y-93625882D01*
X177399392Y-93807488D01*
X177470251Y-93978557D01*
X177474131Y-93984364D01*
X177376770Y-93887003D01*
X177222812Y-93784131D01*
X177051743Y-93713272D01*
X176870137Y-93677148D01*
X176684973Y-93677148D01*
X176503367Y-93713272D01*
X176332298Y-93784131D01*
X176178340Y-93887003D01*
X176047410Y-94017933D01*
X175944538Y-94171891D01*
X175873679Y-94342960D01*
X175837555Y-94524566D01*
X175837555Y-94709730D01*
X175844881Y-94746562D01*
X175784621Y-94721601D01*
X175641000Y-94693033D01*
X175641000Y-94168681D01*
X175654555Y-94159624D01*
X175777824Y-94036355D01*
X175874677Y-93891405D01*
X175941390Y-93730345D01*
X175975400Y-93559365D01*
X175975400Y-93385035D01*
X175941390Y-93214055D01*
X175874677Y-93052995D01*
X175803987Y-92947200D01*
X175874677Y-92841405D01*
X175941390Y-92680345D01*
X175975400Y-92509365D01*
X175975400Y-92335035D01*
X175941390Y-92164055D01*
X175874677Y-92002995D01*
X175803987Y-91897200D01*
X175874677Y-91791405D01*
X175941390Y-91630345D01*
X175975400Y-91459365D01*
X175975400Y-91285035D01*
X175941390Y-91114055D01*
X175874677Y-90952995D01*
X175803987Y-90847200D01*
X175874677Y-90741405D01*
X175941390Y-90580345D01*
X175961679Y-90478347D01*
X176026180Y-90574879D01*
X176157110Y-90705809D01*
X176311068Y-90808681D01*
X176482137Y-90879540D01*
X176663743Y-90915664D01*
X176848907Y-90915664D01*
X177030513Y-90879540D01*
X177201582Y-90808681D01*
X177355540Y-90705809D01*
X177486470Y-90574879D01*
X177589342Y-90420921D01*
X177660201Y-90249852D01*
X177696325Y-90068246D01*
X177696325Y-89883082D01*
X177660201Y-89701476D01*
X177589342Y-89530407D01*
X177486470Y-89376449D01*
X177355540Y-89245519D01*
X177201582Y-89142647D01*
X177030513Y-89071788D01*
X176848907Y-89035664D01*
X176663743Y-89035664D01*
X176482137Y-89071788D01*
X176311068Y-89142647D01*
X176157110Y-89245519D01*
X176026180Y-89376449D01*
X175923308Y-89530407D01*
X175852449Y-89701476D01*
X175826659Y-89831131D01*
X175777824Y-89758045D01*
X175654555Y-89634776D01*
X175641000Y-89625719D01*
X175641000Y-89027000D01*
X180657500Y-89027000D01*
X180682276Y-89024560D01*
X180706101Y-89017333D01*
X180728057Y-89005597D01*
X180747303Y-88989803D01*
X180763097Y-88970557D01*
X180774833Y-88948601D01*
X180782060Y-88924776D01*
X180784500Y-88900000D01*
X180784500Y-86909200D01*
X186223018Y-86909200D01*
X186229332Y-86973303D01*
X186248030Y-87034943D01*
X186278394Y-87091750D01*
X186319257Y-87141543D01*
X186369050Y-87182406D01*
X186425857Y-87212770D01*
X186487497Y-87231468D01*
X186551600Y-87237782D01*
X187217850Y-87236200D01*
X187299600Y-87154450D01*
X187299600Y-86436200D01*
X187553600Y-86436200D01*
X187553600Y-87154450D01*
X187635350Y-87236200D01*
X188301600Y-87237782D01*
X188365703Y-87231468D01*
X188427343Y-87212770D01*
X188484150Y-87182406D01*
X188533943Y-87141543D01*
X188574806Y-87091750D01*
X188605170Y-87034943D01*
X188623868Y-86973303D01*
X188630182Y-86909200D01*
X188628600Y-86517950D01*
X188546850Y-86436200D01*
X187553600Y-86436200D01*
X187299600Y-86436200D01*
X186306350Y-86436200D01*
X186224600Y-86517950D01*
X186223018Y-86909200D01*
X180784500Y-86909200D01*
X180784500Y-84797561D01*
X181225997Y-84797561D01*
X181225997Y-85001439D01*
X181265771Y-85201398D01*
X181343792Y-85389756D01*
X181457060Y-85559274D01*
X181601223Y-85703437D01*
X181770741Y-85816705D01*
X181959099Y-85894726D01*
X182159058Y-85934500D01*
X182362936Y-85934500D01*
X182562895Y-85894726D01*
X182739314Y-85821651D01*
X182848938Y-85894899D01*
X183037296Y-85972920D01*
X183237255Y-86012694D01*
X183441133Y-86012694D01*
X183641092Y-85972920D01*
X183829450Y-85894899D01*
X183998968Y-85781631D01*
X184143131Y-85637468D01*
X184256399Y-85467950D01*
X184334420Y-85279592D01*
X184374194Y-85079633D01*
X184374194Y-84875755D01*
X184334420Y-84675796D01*
X184256399Y-84487438D01*
X184143131Y-84317920D01*
X184134411Y-84309200D01*
X185910625Y-84309200D01*
X185934470Y-84551302D01*
X186005089Y-84784101D01*
X186119767Y-84998649D01*
X186274098Y-85186702D01*
X186462151Y-85341033D01*
X186538604Y-85381898D01*
X186487497Y-85386932D01*
X186425857Y-85405630D01*
X186369050Y-85435994D01*
X186319257Y-85476857D01*
X186278394Y-85526650D01*
X186248030Y-85583457D01*
X186229332Y-85645097D01*
X186223018Y-85709200D01*
X186224600Y-86100450D01*
X186306350Y-86182200D01*
X187299600Y-86182200D01*
X187299600Y-86162200D01*
X187553600Y-86162200D01*
X187553600Y-86182200D01*
X188546850Y-86182200D01*
X188628600Y-86100450D01*
X188630182Y-85709200D01*
X188623868Y-85645097D01*
X188605170Y-85583457D01*
X188574806Y-85526650D01*
X188533943Y-85476857D01*
X188484150Y-85435994D01*
X188427343Y-85405630D01*
X188365703Y-85386932D01*
X188314596Y-85381898D01*
X188391049Y-85341033D01*
X188579102Y-85186702D01*
X188733433Y-84998649D01*
X188848111Y-84784101D01*
X188918730Y-84551302D01*
X188942575Y-84309200D01*
X188918730Y-84067098D01*
X188848111Y-83834299D01*
X188733433Y-83619751D01*
X188579102Y-83431698D01*
X188391049Y-83277367D01*
X188176501Y-83162689D01*
X187943702Y-83092070D01*
X187762265Y-83074200D01*
X187090935Y-83074200D01*
X186909498Y-83092070D01*
X186676699Y-83162689D01*
X186462151Y-83277367D01*
X186274098Y-83431698D01*
X186119767Y-83619751D01*
X186005089Y-83834299D01*
X185934470Y-84067098D01*
X185910625Y-84309200D01*
X184134411Y-84309200D01*
X183998968Y-84173757D01*
X183829450Y-84060489D01*
X183641092Y-83982468D01*
X183441133Y-83942694D01*
X183237255Y-83942694D01*
X183037296Y-83982468D01*
X182860877Y-84055543D01*
X182751253Y-83982295D01*
X182562895Y-83904274D01*
X182362936Y-83864500D01*
X182159058Y-83864500D01*
X181959099Y-83904274D01*
X181770741Y-83982295D01*
X181601223Y-84095563D01*
X181457060Y-84239726D01*
X181343792Y-84409244D01*
X181265771Y-84597602D01*
X181225997Y-84797561D01*
X180784500Y-84797561D01*
X180784500Y-82162212D01*
X181812793Y-82162212D01*
X181812793Y-82366090D01*
X181852567Y-82566049D01*
X181930588Y-82754407D01*
X182043856Y-82923925D01*
X182188019Y-83068088D01*
X182357537Y-83181356D01*
X182545895Y-83259377D01*
X182745854Y-83299151D01*
X182949732Y-83299151D01*
X183149691Y-83259377D01*
X183338049Y-83181356D01*
X183344595Y-83176982D01*
X183467102Y-83227726D01*
X183667061Y-83267500D01*
X183870939Y-83267500D01*
X184070898Y-83227726D01*
X184259256Y-83149705D01*
X184428774Y-83036437D01*
X184572937Y-82892274D01*
X184686205Y-82722756D01*
X184764226Y-82534398D01*
X184804000Y-82334439D01*
X184804000Y-82130561D01*
X184764226Y-81930602D01*
X184686205Y-81742244D01*
X184572937Y-81572726D01*
X184428774Y-81428563D01*
X184259256Y-81315295D01*
X184070898Y-81237274D01*
X183870939Y-81197500D01*
X183667061Y-81197500D01*
X183467102Y-81237274D01*
X183278744Y-81315295D01*
X183272198Y-81319669D01*
X183149691Y-81268925D01*
X182949732Y-81229151D01*
X182745854Y-81229151D01*
X182545895Y-81268925D01*
X182357537Y-81346946D01*
X182188019Y-81460214D01*
X182043856Y-81604377D01*
X181930588Y-81773895D01*
X181852567Y-81962253D01*
X181812793Y-82162212D01*
X180784500Y-82162212D01*
X180784500Y-79311091D01*
X181360722Y-79311091D01*
X181360722Y-79514969D01*
X181400496Y-79714928D01*
X181478517Y-79903286D01*
X181591785Y-80072804D01*
X181735948Y-80216967D01*
X181905466Y-80330235D01*
X182093824Y-80408256D01*
X182293783Y-80448030D01*
X182497661Y-80448030D01*
X182697620Y-80408256D01*
X182885978Y-80330235D01*
X182929530Y-80301135D01*
X183052409Y-80352033D01*
X183252368Y-80391807D01*
X183456246Y-80391807D01*
X183656205Y-80352033D01*
X183844563Y-80274012D01*
X183960790Y-80196352D01*
X184104244Y-80292205D01*
X184292602Y-80370226D01*
X184492561Y-80410000D01*
X184538763Y-80410000D01*
X184487772Y-80533102D01*
X184447998Y-80733061D01*
X184447998Y-80936939D01*
X184487772Y-81136898D01*
X184565793Y-81325256D01*
X184679061Y-81494774D01*
X184823224Y-81638937D01*
X184992742Y-81752205D01*
X185181100Y-81830226D01*
X185381059Y-81870000D01*
X185584937Y-81870000D01*
X185784896Y-81830226D01*
X185973254Y-81752205D01*
X186142772Y-81638937D01*
X186286935Y-81494774D01*
X186400203Y-81325256D01*
X186478224Y-81136898D01*
X186517998Y-80936939D01*
X186517998Y-80733061D01*
X186478224Y-80533102D01*
X186400203Y-80344744D01*
X186286935Y-80175226D01*
X186142772Y-80031063D01*
X185973254Y-79917795D01*
X185784896Y-79839774D01*
X185584937Y-79800000D01*
X185538735Y-79800000D01*
X185589726Y-79676898D01*
X185629500Y-79476939D01*
X185629500Y-79273061D01*
X185591608Y-79082561D01*
X186353500Y-79082561D01*
X186353500Y-79286439D01*
X186393274Y-79486398D01*
X186471295Y-79674756D01*
X186584563Y-79844274D01*
X186728726Y-79988437D01*
X186898244Y-80101705D01*
X187086602Y-80179726D01*
X187286561Y-80219500D01*
X187490439Y-80219500D01*
X187690398Y-80179726D01*
X187878756Y-80101705D01*
X188048274Y-79988437D01*
X188192437Y-79844274D01*
X188305705Y-79674756D01*
X188383726Y-79486398D01*
X188423500Y-79286439D01*
X188423500Y-79082561D01*
X188383726Y-78882602D01*
X188305705Y-78694244D01*
X188192437Y-78524726D01*
X188048274Y-78380563D01*
X187878756Y-78267295D01*
X187690398Y-78189274D01*
X187490439Y-78149500D01*
X187286561Y-78149500D01*
X187086602Y-78189274D01*
X186898244Y-78267295D01*
X186728726Y-78380563D01*
X186584563Y-78524726D01*
X186471295Y-78694244D01*
X186393274Y-78882602D01*
X186353500Y-79082561D01*
X185591608Y-79082561D01*
X185589726Y-79073102D01*
X185511705Y-78884744D01*
X185398437Y-78715226D01*
X185254274Y-78571063D01*
X185084756Y-78457795D01*
X184896398Y-78379774D01*
X184696439Y-78340000D01*
X184492561Y-78340000D01*
X184292602Y-78379774D01*
X184104244Y-78457795D01*
X183988017Y-78535455D01*
X183844563Y-78439602D01*
X183656205Y-78361581D01*
X183456246Y-78321807D01*
X183252368Y-78321807D01*
X183052409Y-78361581D01*
X182864051Y-78439602D01*
X182820499Y-78468702D01*
X182697620Y-78417804D01*
X182497661Y-78378030D01*
X182293783Y-78378030D01*
X182093824Y-78417804D01*
X181905466Y-78495825D01*
X181735948Y-78609093D01*
X181591785Y-78753256D01*
X181478517Y-78922774D01*
X181400496Y-79111132D01*
X181360722Y-79311091D01*
X180784500Y-79311091D01*
X180784500Y-77063200D01*
X189214729Y-77063200D01*
X189104963Y-77172966D01*
G04 #@! TA.AperFunction,Conductor*
D26*
G36*
X189104963Y-77172966D02*
G01*
X188801054Y-77627797D01*
X188591718Y-78133179D01*
X188485000Y-78669689D01*
X188485000Y-79216711D01*
X188591718Y-79753221D01*
X188801054Y-80258603D01*
X189104963Y-80713434D01*
X189491766Y-81100237D01*
X189946597Y-81404146D01*
X190451979Y-81613482D01*
X190988489Y-81720200D01*
X191535511Y-81720200D01*
X192072021Y-81613482D01*
X192577403Y-81404146D01*
X193032234Y-81100237D01*
X193167400Y-80965071D01*
X193167400Y-89810231D01*
X193147206Y-89772450D01*
X193106343Y-89722657D01*
X193056550Y-89681794D01*
X192999743Y-89651430D01*
X192938103Y-89632732D01*
X192874000Y-89626418D01*
X192232750Y-89628000D01*
X192151000Y-89709750D01*
X192151000Y-90678000D01*
X192171000Y-90678000D01*
X192171000Y-90932000D01*
X192151000Y-90932000D01*
X192151000Y-90952000D01*
X191897000Y-90952000D01*
X191897000Y-90932000D01*
X190928750Y-90932000D01*
X190847000Y-91013750D01*
X190845418Y-91655000D01*
X190851732Y-91719103D01*
X190870430Y-91780743D01*
X190900794Y-91837550D01*
X190941657Y-91887343D01*
X190991450Y-91928206D01*
X191048257Y-91958570D01*
X191109897Y-91977268D01*
X191174000Y-91983582D01*
X191431798Y-91982946D01*
X191320589Y-92029010D01*
X191077368Y-92191525D01*
X190870525Y-92398368D01*
X190708010Y-92641589D01*
X190596068Y-92911842D01*
X190539000Y-93198740D01*
X190539000Y-93491260D01*
X190596068Y-93778158D01*
X190708010Y-94048411D01*
X190870525Y-94291632D01*
X191077368Y-94498475D01*
X191320589Y-94660990D01*
X191590842Y-94772932D01*
X191877740Y-94830000D01*
X192170260Y-94830000D01*
X192457158Y-94772932D01*
X192727411Y-94660990D01*
X192970632Y-94498475D01*
X193167400Y-94301707D01*
X193167400Y-96198293D01*
X192970632Y-96001525D01*
X192727411Y-95839010D01*
X192457158Y-95727068D01*
X192170260Y-95670000D01*
X191877740Y-95670000D01*
X191590842Y-95727068D01*
X191320589Y-95839010D01*
X191077368Y-96001525D01*
X190870525Y-96208368D01*
X190708010Y-96451589D01*
X190596068Y-96721842D01*
X190585693Y-96774000D01*
X183866633Y-96774000D01*
X183840017Y-96709743D01*
X183737145Y-96555785D01*
X183606215Y-96424855D01*
X183452257Y-96321983D01*
X183281188Y-96251124D01*
X183152285Y-96225483D01*
X180677863Y-93751061D01*
X187814000Y-93751061D01*
X187814000Y-93954939D01*
X187853774Y-94154898D01*
X187931795Y-94343256D01*
X188045063Y-94512774D01*
X188189226Y-94656937D01*
X188358744Y-94770205D01*
X188547102Y-94848226D01*
X188747061Y-94888000D01*
X188950939Y-94888000D01*
X189150898Y-94848226D01*
X189339256Y-94770205D01*
X189508774Y-94656937D01*
X189652937Y-94512774D01*
X189766205Y-94343256D01*
X189844226Y-94154898D01*
X189884000Y-93954939D01*
X189884000Y-93751061D01*
X189844226Y-93551102D01*
X189766205Y-93362744D01*
X189652937Y-93193226D01*
X189508774Y-93049063D01*
X189339256Y-92935795D01*
X189150898Y-92857774D01*
X188950939Y-92818000D01*
X188747061Y-92818000D01*
X188547102Y-92857774D01*
X188358744Y-92935795D01*
X188189226Y-93049063D01*
X188045063Y-93193226D01*
X187931795Y-93362744D01*
X187853774Y-93551102D01*
X187814000Y-93751061D01*
X180677863Y-93751061D01*
X180522495Y-93595694D01*
X180645212Y-93595694D01*
X180826818Y-93559570D01*
X180997887Y-93488711D01*
X181151845Y-93385839D01*
X181282775Y-93254909D01*
X181385647Y-93100951D01*
X181456506Y-92929882D01*
X181492630Y-92748276D01*
X181492630Y-92563112D01*
X181456506Y-92381506D01*
X181392533Y-92227061D01*
X184004000Y-92227061D01*
X184004000Y-92430939D01*
X184043774Y-92630898D01*
X184121795Y-92819256D01*
X184235063Y-92988774D01*
X184379226Y-93132937D01*
X184548744Y-93246205D01*
X184737102Y-93324226D01*
X184937061Y-93364000D01*
X185140939Y-93364000D01*
X185340898Y-93324226D01*
X185529256Y-93246205D01*
X185698774Y-93132937D01*
X185842937Y-92988774D01*
X185956205Y-92819256D01*
X186034226Y-92630898D01*
X186074000Y-92430939D01*
X186074000Y-92227061D01*
X186034226Y-92027102D01*
X185956205Y-91838744D01*
X185842937Y-91669226D01*
X185698774Y-91525063D01*
X185529256Y-91411795D01*
X185340898Y-91333774D01*
X185140939Y-91294000D01*
X184937061Y-91294000D01*
X184737102Y-91333774D01*
X184548744Y-91411795D01*
X184379226Y-91525063D01*
X184235063Y-91669226D01*
X184121795Y-91838744D01*
X184043774Y-92027102D01*
X184004000Y-92227061D01*
X181392533Y-92227061D01*
X181385647Y-92210437D01*
X181282775Y-92056479D01*
X181151845Y-91925549D01*
X180997887Y-91822677D01*
X180826818Y-91751818D01*
X180645212Y-91715694D01*
X180460048Y-91715694D01*
X180429349Y-91721800D01*
X180381802Y-91674253D01*
X180279020Y-91605576D01*
X180387799Y-91532892D01*
X180518729Y-91401962D01*
X180621601Y-91248004D01*
X180692460Y-91076935D01*
X180728584Y-90895329D01*
X180728584Y-90710165D01*
X180692460Y-90528559D01*
X180621601Y-90357490D01*
X180518729Y-90203532D01*
X180387799Y-90072602D01*
X180233841Y-89969730D01*
X180198280Y-89955000D01*
X190845418Y-89955000D01*
X190847000Y-90596250D01*
X190928750Y-90678000D01*
X191897000Y-90678000D01*
X191897000Y-89709750D01*
X191815250Y-89628000D01*
X191174000Y-89626418D01*
X191109897Y-89632732D01*
X191048257Y-89651430D01*
X190991450Y-89681794D01*
X190941657Y-89722657D01*
X190900794Y-89772450D01*
X190870430Y-89829257D01*
X190851732Y-89890897D01*
X190845418Y-89955000D01*
X180198280Y-89955000D01*
X180062772Y-89898871D01*
X179881166Y-89862747D01*
X179696002Y-89862747D01*
X179514396Y-89898871D01*
X179343327Y-89969730D01*
X179189369Y-90072602D01*
X179058439Y-90203532D01*
X178955567Y-90357490D01*
X178884708Y-90528559D01*
X178848584Y-90710165D01*
X178848584Y-90895329D01*
X178884708Y-91076935D01*
X178955567Y-91248004D01*
X179058439Y-91401962D01*
X179189369Y-91532892D01*
X179292151Y-91601569D01*
X179183372Y-91674253D01*
X179114743Y-91742883D01*
X179034215Y-91662355D01*
X178880257Y-91559483D01*
X178709188Y-91488624D01*
X178527582Y-91452500D01*
X178342418Y-91452500D01*
X178160812Y-91488624D01*
X177989743Y-91559483D01*
X177835785Y-91662355D01*
X177704855Y-91793285D01*
X177601983Y-91947243D01*
X177531124Y-92118312D01*
X177495000Y-92299918D01*
X177495000Y-92485082D01*
X177531124Y-92666688D01*
X177601983Y-92837757D01*
X177629007Y-92878201D01*
X177573123Y-92934085D01*
X177470251Y-93088043D01*
X177399392Y-93259112D01*
X177363268Y-93440718D01*
X177363268Y-93625882D01*
X177399392Y-93807488D01*
X177470251Y-93978557D01*
X177474131Y-93984364D01*
X177376770Y-93887003D01*
X177222812Y-93784131D01*
X177051743Y-93713272D01*
X176870137Y-93677148D01*
X176684973Y-93677148D01*
X176503367Y-93713272D01*
X176332298Y-93784131D01*
X176178340Y-93887003D01*
X176047410Y-94017933D01*
X175944538Y-94171891D01*
X175873679Y-94342960D01*
X175837555Y-94524566D01*
X175837555Y-94709730D01*
X175844881Y-94746562D01*
X175784621Y-94721601D01*
X175641000Y-94693033D01*
X175641000Y-94168681D01*
X175654555Y-94159624D01*
X175777824Y-94036355D01*
X175874677Y-93891405D01*
X175941390Y-93730345D01*
X175975400Y-93559365D01*
X175975400Y-93385035D01*
X175941390Y-93214055D01*
X175874677Y-93052995D01*
X175803987Y-92947200D01*
X175874677Y-92841405D01*
X175941390Y-92680345D01*
X175975400Y-92509365D01*
X175975400Y-92335035D01*
X175941390Y-92164055D01*
X175874677Y-92002995D01*
X175803987Y-91897200D01*
X175874677Y-91791405D01*
X175941390Y-91630345D01*
X175975400Y-91459365D01*
X175975400Y-91285035D01*
X175941390Y-91114055D01*
X175874677Y-90952995D01*
X175803987Y-90847200D01*
X175874677Y-90741405D01*
X175941390Y-90580345D01*
X175961679Y-90478347D01*
X176026180Y-90574879D01*
X176157110Y-90705809D01*
X176311068Y-90808681D01*
X176482137Y-90879540D01*
X176663743Y-90915664D01*
X176848907Y-90915664D01*
X177030513Y-90879540D01*
X177201582Y-90808681D01*
X177355540Y-90705809D01*
X177486470Y-90574879D01*
X177589342Y-90420921D01*
X177660201Y-90249852D01*
X177696325Y-90068246D01*
X177696325Y-89883082D01*
X177660201Y-89701476D01*
X177589342Y-89530407D01*
X177486470Y-89376449D01*
X177355540Y-89245519D01*
X177201582Y-89142647D01*
X177030513Y-89071788D01*
X176848907Y-89035664D01*
X176663743Y-89035664D01*
X176482137Y-89071788D01*
X176311068Y-89142647D01*
X176157110Y-89245519D01*
X176026180Y-89376449D01*
X175923308Y-89530407D01*
X175852449Y-89701476D01*
X175826659Y-89831131D01*
X175777824Y-89758045D01*
X175654555Y-89634776D01*
X175641000Y-89625719D01*
X175641000Y-89027000D01*
X180657500Y-89027000D01*
X180682276Y-89024560D01*
X180706101Y-89017333D01*
X180728057Y-89005597D01*
X180747303Y-88989803D01*
X180763097Y-88970557D01*
X180774833Y-88948601D01*
X180782060Y-88924776D01*
X180784500Y-88900000D01*
X180784500Y-86909200D01*
X186223018Y-86909200D01*
X186229332Y-86973303D01*
X186248030Y-87034943D01*
X186278394Y-87091750D01*
X186319257Y-87141543D01*
X186369050Y-87182406D01*
X186425857Y-87212770D01*
X186487497Y-87231468D01*
X186551600Y-87237782D01*
X187217850Y-87236200D01*
X187299600Y-87154450D01*
X187299600Y-86436200D01*
X187553600Y-86436200D01*
X187553600Y-87154450D01*
X187635350Y-87236200D01*
X188301600Y-87237782D01*
X188365703Y-87231468D01*
X188427343Y-87212770D01*
X188484150Y-87182406D01*
X188533943Y-87141543D01*
X188574806Y-87091750D01*
X188605170Y-87034943D01*
X188623868Y-86973303D01*
X188630182Y-86909200D01*
X188628600Y-86517950D01*
X188546850Y-86436200D01*
X187553600Y-86436200D01*
X187299600Y-86436200D01*
X186306350Y-86436200D01*
X186224600Y-86517950D01*
X186223018Y-86909200D01*
X180784500Y-86909200D01*
X180784500Y-84797561D01*
X181225997Y-84797561D01*
X181225997Y-85001439D01*
X181265771Y-85201398D01*
X181343792Y-85389756D01*
X181457060Y-85559274D01*
X181601223Y-85703437D01*
X181770741Y-85816705D01*
X181959099Y-85894726D01*
X182159058Y-85934500D01*
X182362936Y-85934500D01*
X182562895Y-85894726D01*
X182739314Y-85821651D01*
X182848938Y-85894899D01*
X183037296Y-85972920D01*
X183237255Y-86012694D01*
X183441133Y-86012694D01*
X183641092Y-85972920D01*
X183829450Y-85894899D01*
X183998968Y-85781631D01*
X184143131Y-85637468D01*
X184256399Y-85467950D01*
X184334420Y-85279592D01*
X184374194Y-85079633D01*
X184374194Y-84875755D01*
X184334420Y-84675796D01*
X184256399Y-84487438D01*
X184143131Y-84317920D01*
X184134411Y-84309200D01*
X185910625Y-84309200D01*
X185934470Y-84551302D01*
X186005089Y-84784101D01*
X186119767Y-84998649D01*
X186274098Y-85186702D01*
X186462151Y-85341033D01*
X186538604Y-85381898D01*
X186487497Y-85386932D01*
X186425857Y-85405630D01*
X186369050Y-85435994D01*
X186319257Y-85476857D01*
X186278394Y-85526650D01*
X186248030Y-85583457D01*
X186229332Y-85645097D01*
X186223018Y-85709200D01*
X186224600Y-86100450D01*
X186306350Y-86182200D01*
X187299600Y-86182200D01*
X187299600Y-86162200D01*
X187553600Y-86162200D01*
X187553600Y-86182200D01*
X188546850Y-86182200D01*
X188628600Y-86100450D01*
X188630182Y-85709200D01*
X188623868Y-85645097D01*
X188605170Y-85583457D01*
X188574806Y-85526650D01*
X188533943Y-85476857D01*
X188484150Y-85435994D01*
X188427343Y-85405630D01*
X188365703Y-85386932D01*
X188314596Y-85381898D01*
X188391049Y-85341033D01*
X188579102Y-85186702D01*
X188733433Y-84998649D01*
X188848111Y-84784101D01*
X188918730Y-84551302D01*
X188942575Y-84309200D01*
X188918730Y-84067098D01*
X188848111Y-83834299D01*
X188733433Y-83619751D01*
X188579102Y-83431698D01*
X188391049Y-83277367D01*
X188176501Y-83162689D01*
X187943702Y-83092070D01*
X187762265Y-83074200D01*
X187090935Y-83074200D01*
X186909498Y-83092070D01*
X186676699Y-83162689D01*
X186462151Y-83277367D01*
X186274098Y-83431698D01*
X186119767Y-83619751D01*
X186005089Y-83834299D01*
X185934470Y-84067098D01*
X185910625Y-84309200D01*
X184134411Y-84309200D01*
X183998968Y-84173757D01*
X183829450Y-84060489D01*
X183641092Y-83982468D01*
X183441133Y-83942694D01*
X183237255Y-83942694D01*
X183037296Y-83982468D01*
X182860877Y-84055543D01*
X182751253Y-83982295D01*
X182562895Y-83904274D01*
X182362936Y-83864500D01*
X182159058Y-83864500D01*
X181959099Y-83904274D01*
X181770741Y-83982295D01*
X181601223Y-84095563D01*
X181457060Y-84239726D01*
X181343792Y-84409244D01*
X181265771Y-84597602D01*
X181225997Y-84797561D01*
X180784500Y-84797561D01*
X180784500Y-82162212D01*
X181812793Y-82162212D01*
X181812793Y-82366090D01*
X181852567Y-82566049D01*
X181930588Y-82754407D01*
X182043856Y-82923925D01*
X182188019Y-83068088D01*
X182357537Y-83181356D01*
X182545895Y-83259377D01*
X182745854Y-83299151D01*
X182949732Y-83299151D01*
X183149691Y-83259377D01*
X183338049Y-83181356D01*
X183344595Y-83176982D01*
X183467102Y-83227726D01*
X183667061Y-83267500D01*
X183870939Y-83267500D01*
X184070898Y-83227726D01*
X184259256Y-83149705D01*
X184428774Y-83036437D01*
X184572937Y-82892274D01*
X184686205Y-82722756D01*
X184764226Y-82534398D01*
X184804000Y-82334439D01*
X184804000Y-82130561D01*
X184764226Y-81930602D01*
X184686205Y-81742244D01*
X184572937Y-81572726D01*
X184428774Y-81428563D01*
X184259256Y-81315295D01*
X184070898Y-81237274D01*
X183870939Y-81197500D01*
X183667061Y-81197500D01*
X183467102Y-81237274D01*
X183278744Y-81315295D01*
X183272198Y-81319669D01*
X183149691Y-81268925D01*
X182949732Y-81229151D01*
X182745854Y-81229151D01*
X182545895Y-81268925D01*
X182357537Y-81346946D01*
X182188019Y-81460214D01*
X182043856Y-81604377D01*
X181930588Y-81773895D01*
X181852567Y-81962253D01*
X181812793Y-82162212D01*
X180784500Y-82162212D01*
X180784500Y-79311091D01*
X181360722Y-79311091D01*
X181360722Y-79514969D01*
X181400496Y-79714928D01*
X181478517Y-79903286D01*
X181591785Y-80072804D01*
X181735948Y-80216967D01*
X181905466Y-80330235D01*
X182093824Y-80408256D01*
X182293783Y-80448030D01*
X182497661Y-80448030D01*
X182697620Y-80408256D01*
X182885978Y-80330235D01*
X182929530Y-80301135D01*
X183052409Y-80352033D01*
X183252368Y-80391807D01*
X183456246Y-80391807D01*
X183656205Y-80352033D01*
X183844563Y-80274012D01*
X183960790Y-80196352D01*
X184104244Y-80292205D01*
X184292602Y-80370226D01*
X184492561Y-80410000D01*
X184538763Y-80410000D01*
X184487772Y-80533102D01*
X184447998Y-80733061D01*
X184447998Y-80936939D01*
X184487772Y-81136898D01*
X184565793Y-81325256D01*
X184679061Y-81494774D01*
X184823224Y-81638937D01*
X184992742Y-81752205D01*
X185181100Y-81830226D01*
X185381059Y-81870000D01*
X185584937Y-81870000D01*
X185784896Y-81830226D01*
X185973254Y-81752205D01*
X186142772Y-81638937D01*
X186286935Y-81494774D01*
X186400203Y-81325256D01*
X186478224Y-81136898D01*
X186517998Y-80936939D01*
X186517998Y-80733061D01*
X186478224Y-80533102D01*
X186400203Y-80344744D01*
X186286935Y-80175226D01*
X186142772Y-80031063D01*
X185973254Y-79917795D01*
X185784896Y-79839774D01*
X185584937Y-79800000D01*
X185538735Y-79800000D01*
X185589726Y-79676898D01*
X185629500Y-79476939D01*
X185629500Y-79273061D01*
X185591608Y-79082561D01*
X186353500Y-79082561D01*
X186353500Y-79286439D01*
X186393274Y-79486398D01*
X186471295Y-79674756D01*
X186584563Y-79844274D01*
X186728726Y-79988437D01*
X186898244Y-80101705D01*
X187086602Y-80179726D01*
X187286561Y-80219500D01*
X187490439Y-80219500D01*
X187690398Y-80179726D01*
X187878756Y-80101705D01*
X188048274Y-79988437D01*
X188192437Y-79844274D01*
X188305705Y-79674756D01*
X188383726Y-79486398D01*
X188423500Y-79286439D01*
X188423500Y-79082561D01*
X188383726Y-78882602D01*
X188305705Y-78694244D01*
X188192437Y-78524726D01*
X188048274Y-78380563D01*
X187878756Y-78267295D01*
X187690398Y-78189274D01*
X187490439Y-78149500D01*
X187286561Y-78149500D01*
X187086602Y-78189274D01*
X186898244Y-78267295D01*
X186728726Y-78380563D01*
X186584563Y-78524726D01*
X186471295Y-78694244D01*
X186393274Y-78882602D01*
X186353500Y-79082561D01*
X185591608Y-79082561D01*
X185589726Y-79073102D01*
X185511705Y-78884744D01*
X185398437Y-78715226D01*
X185254274Y-78571063D01*
X185084756Y-78457795D01*
X184896398Y-78379774D01*
X184696439Y-78340000D01*
X184492561Y-78340000D01*
X184292602Y-78379774D01*
X184104244Y-78457795D01*
X183988017Y-78535455D01*
X183844563Y-78439602D01*
X183656205Y-78361581D01*
X183456246Y-78321807D01*
X183252368Y-78321807D01*
X183052409Y-78361581D01*
X182864051Y-78439602D01*
X182820499Y-78468702D01*
X182697620Y-78417804D01*
X182497661Y-78378030D01*
X182293783Y-78378030D01*
X182093824Y-78417804D01*
X181905466Y-78495825D01*
X181735948Y-78609093D01*
X181591785Y-78753256D01*
X181478517Y-78922774D01*
X181400496Y-79111132D01*
X181360722Y-79311091D01*
X180784500Y-79311091D01*
X180784500Y-77063200D01*
X189214729Y-77063200D01*
X189104963Y-77172966D01*
G37*
G04 #@! TD.AperFunction*
D27*
X171794500Y-112041000D02*
X167232000Y-112041000D01*
X167232000Y-111536278D01*
X167342205Y-111370970D01*
X167348061Y-111360978D01*
X167701453Y-110668919D01*
X171794500Y-110638374D01*
X171794500Y-112041000D01*
G04 #@! TA.AperFunction,Conductor*
D26*
G36*
X171794500Y-112041000D02*
G01*
X167232000Y-112041000D01*
X167232000Y-111536278D01*
X167342205Y-111370970D01*
X167348061Y-111360978D01*
X167701453Y-110668919D01*
X171794500Y-110638374D01*
X171794500Y-112041000D01*
G37*
G04 #@! TD.AperFunction*
D27*
X171922069Y-115489145D02*
X171929434Y-116078281D01*
X171914275Y-118200500D01*
X169342866Y-118200500D01*
X169327499Y-115188490D01*
X169325478Y-115168991D01*
X169319692Y-115150261D01*
X169310362Y-115133019D01*
X169292993Y-115113431D01*
X167387993Y-113462431D01*
X167384970Y-113459913D01*
X167105000Y-113235937D01*
X167105000Y-112749000D01*
X168761561Y-112749000D01*
X171922069Y-115489145D01*
G04 #@! TA.AperFunction,Conductor*
D26*
G36*
X171922069Y-115489145D02*
G01*
X171929434Y-116078281D01*
X171914275Y-118200500D01*
X169342866Y-118200500D01*
X169327499Y-115188490D01*
X169325478Y-115168991D01*
X169319692Y-115150261D01*
X169310362Y-115133019D01*
X169292993Y-115113431D01*
X167387993Y-113462431D01*
X167384970Y-113459913D01*
X167105000Y-113235937D01*
X167105000Y-112749000D01*
X168761561Y-112749000D01*
X171922069Y-115489145D01*
G37*
G04 #@! TD.AperFunction*
D27*
X187987000Y-106006800D02*
X186055000Y-106006800D01*
X186035491Y-106008721D01*
X186016732Y-106014412D01*
X185999443Y-106023653D01*
X185988897Y-106031764D01*
X183348305Y-108358000D01*
X182662500Y-108358000D01*
X182662500Y-106943069D01*
X185681936Y-103860728D01*
X185689883Y-103851564D01*
X185977364Y-103476300D01*
X187987000Y-103476300D01*
X187987000Y-106006800D01*
G04 #@! TA.AperFunction,Conductor*
D26*
G36*
X187987000Y-106006800D02*
G01*
X186055000Y-106006800D01*
X186035491Y-106008721D01*
X186016732Y-106014412D01*
X185999443Y-106023653D01*
X185988897Y-106031764D01*
X183348305Y-108358000D01*
X182662500Y-108358000D01*
X182662500Y-106943069D01*
X185681936Y-103860728D01*
X185689883Y-103851564D01*
X185977364Y-103476300D01*
X187987000Y-103476300D01*
X187987000Y-106006800D01*
G37*
G04 #@! TD.AperFunction*
D27*
X182335500Y-106043522D02*
X182315224Y-106732913D01*
X182313059Y-106735579D01*
X182285336Y-106787445D01*
X182268264Y-106843723D01*
X182262500Y-106902250D01*
X182262500Y-108294500D01*
X181583000Y-108294500D01*
X181583000Y-106108500D01*
X181581079Y-106088991D01*
X181575388Y-106070232D01*
X181566147Y-106052943D01*
X181553711Y-106037789D01*
X181538557Y-106025353D01*
X181521268Y-106016112D01*
X181502509Y-106010421D01*
X181483000Y-106008500D01*
X180503500Y-106008500D01*
X180503500Y-103478000D01*
X182335500Y-103478000D01*
X182335500Y-106043522D01*
G04 #@! TA.AperFunction,Conductor*
D26*
G36*
X182335500Y-106043522D02*
G01*
X182315224Y-106732913D01*
X182313059Y-106735579D01*
X182285336Y-106787445D01*
X182268264Y-106843723D01*
X182262500Y-106902250D01*
X182262500Y-108294500D01*
X181583000Y-108294500D01*
X181583000Y-106108500D01*
X181581079Y-106088991D01*
X181575388Y-106070232D01*
X181566147Y-106052943D01*
X181553711Y-106037789D01*
X181538557Y-106025353D01*
X181521268Y-106016112D01*
X181502509Y-106010421D01*
X181483000Y-106008500D01*
X180503500Y-106008500D01*
X180503500Y-103478000D01*
X182335500Y-103478000D01*
X182335500Y-106043522D01*
G37*
G04 #@! TD.AperFunction*
D27*
X161555156Y-113408501D02*
X161556590Y-113428052D01*
X161561809Y-113446947D01*
X161570616Y-113464462D01*
X161582669Y-113479921D01*
X161597507Y-113492732D01*
X161614560Y-113502403D01*
X161633171Y-113508560D01*
X161655125Y-113511000D01*
X163146919Y-113511000D01*
X163130000Y-113596056D01*
X163130000Y-113733944D01*
X163156901Y-113869182D01*
X163209668Y-113996574D01*
X163286274Y-114111224D01*
X163383776Y-114208726D01*
X163498426Y-114285332D01*
X163625818Y-114338099D01*
X163761056Y-114365000D01*
X163898944Y-114365000D01*
X164034182Y-114338099D01*
X164161574Y-114285332D01*
X164276224Y-114208726D01*
X164373726Y-114111224D01*
X164450332Y-113996574D01*
X164503099Y-113869182D01*
X164530000Y-113733944D01*
X164530000Y-113596056D01*
X164513081Y-113511000D01*
X166810147Y-113511000D01*
X166817591Y-113518261D01*
X167130491Y-113768581D01*
X168111500Y-114618789D01*
X168111500Y-117850031D01*
X168096922Y-117814836D01*
X168020316Y-117700186D01*
X167922814Y-117602684D01*
X167808164Y-117526078D01*
X167680772Y-117473311D01*
X167545534Y-117446410D01*
X167407646Y-117446410D01*
X167272408Y-117473311D01*
X167145016Y-117526078D01*
X167030366Y-117602684D01*
X166932864Y-117700186D01*
X166856258Y-117814836D01*
X166803491Y-117942228D01*
X166776590Y-118077466D01*
X166776590Y-118215354D01*
X166803491Y-118350592D01*
X166856258Y-118477984D01*
X166932864Y-118592634D01*
X167030366Y-118690136D01*
X167145016Y-118766742D01*
X167272408Y-118819509D01*
X167407646Y-118846410D01*
X167545534Y-118846410D01*
X167680772Y-118819509D01*
X167808164Y-118766742D01*
X167922814Y-118690136D01*
X168020316Y-118592634D01*
X168096922Y-118477984D01*
X168149689Y-118350592D01*
X168176590Y-118215354D01*
X168176590Y-118077466D01*
X168162393Y-118006095D01*
X168173232Y-118011888D01*
X168191991Y-118017579D01*
X168207833Y-118019433D01*
X168942075Y-118046378D01*
X168943379Y-118302031D01*
X168949139Y-118359027D01*
X168966211Y-118415305D01*
X168993934Y-118467171D01*
X169031243Y-118512632D01*
X169076704Y-118549941D01*
X169128570Y-118577664D01*
X169184848Y-118594736D01*
X169243375Y-118600500D01*
X169428533Y-118600500D01*
X169495528Y-118628250D01*
X169612413Y-118651500D01*
X169731587Y-118651500D01*
X169848472Y-118628250D01*
X169915467Y-118600500D01*
X170063533Y-118600500D01*
X170130528Y-118628250D01*
X170247413Y-118651500D01*
X170366587Y-118651500D01*
X170483472Y-118628250D01*
X170550467Y-118600500D01*
X170698533Y-118600500D01*
X170765528Y-118628250D01*
X170882413Y-118651500D01*
X171001587Y-118651500D01*
X171118472Y-118628250D01*
X171185467Y-118600500D01*
X171333533Y-118600500D01*
X171400528Y-118628250D01*
X171517413Y-118651500D01*
X171636587Y-118651500D01*
X171753472Y-118628250D01*
X171820467Y-118600500D01*
X172013563Y-118600500D01*
X172069987Y-118595146D01*
X172126385Y-118578477D01*
X172178448Y-118551125D01*
X172224174Y-118514142D01*
X172261807Y-118468948D01*
X172289900Y-118417282D01*
X172307373Y-118361127D01*
X172313555Y-118302643D01*
X172314501Y-118170136D01*
X175034802Y-118269964D01*
X175089871Y-121188600D01*
X172375500Y-121188600D01*
X172375500Y-120219549D01*
X172604337Y-120219549D01*
X172665987Y-120436395D01*
X172768757Y-120637047D01*
X172908698Y-120813794D01*
X173080431Y-120959844D01*
X173277357Y-121069584D01*
X173491909Y-121138797D01*
X173531451Y-121146662D01*
X173711000Y-121089709D01*
X173711000Y-120040000D01*
X173761000Y-120040000D01*
X173761000Y-121089709D01*
X173940549Y-121146662D01*
X173980091Y-121138797D01*
X174194643Y-121069584D01*
X174391569Y-120959844D01*
X174563302Y-120813794D01*
X174703243Y-120637047D01*
X174806013Y-120436395D01*
X174867663Y-120219549D01*
X174810729Y-120040000D01*
X173761000Y-120040000D01*
X173711000Y-120040000D01*
X172661271Y-120040000D01*
X172604337Y-120219549D01*
X172375500Y-120219549D01*
X172375500Y-119810451D01*
X172604337Y-119810451D01*
X172661271Y-119990000D01*
X173711000Y-119990000D01*
X173711000Y-118940291D01*
X173761000Y-118940291D01*
X173761000Y-119990000D01*
X174810729Y-119990000D01*
X174867663Y-119810451D01*
X174806013Y-119593605D01*
X174703243Y-119392953D01*
X174563302Y-119216206D01*
X174391569Y-119070156D01*
X174194643Y-118960416D01*
X173980091Y-118891203D01*
X173940549Y-118883338D01*
X173761000Y-118940291D01*
X173711000Y-118940291D01*
X173531451Y-118883338D01*
X173491909Y-118891203D01*
X173277357Y-118960416D01*
X173080431Y-119070156D01*
X172908698Y-119216206D01*
X172768757Y-119392953D01*
X172665987Y-119593605D01*
X172604337Y-119810451D01*
X172375500Y-119810451D01*
X172375500Y-119316500D01*
X172373579Y-119296991D01*
X172367888Y-119278232D01*
X172358647Y-119260943D01*
X172346211Y-119245789D01*
X172331057Y-119233353D01*
X172313768Y-119224112D01*
X172295009Y-119218421D01*
X172275500Y-119216500D01*
X172023845Y-119216500D01*
X171929082Y-119121737D01*
X171740729Y-118995884D01*
X171531443Y-118909194D01*
X171309265Y-118865000D01*
X171082735Y-118865000D01*
X170860557Y-118909194D01*
X170651271Y-118995884D01*
X170462918Y-119121737D01*
X170368155Y-119216500D01*
X169483845Y-119216500D01*
X169389082Y-119121737D01*
X169200729Y-118995884D01*
X168991443Y-118909194D01*
X168769265Y-118865000D01*
X168542735Y-118865000D01*
X168320557Y-118909194D01*
X168111271Y-118995884D01*
X167922918Y-119121737D01*
X167828155Y-119216500D01*
X166943845Y-119216500D01*
X166849082Y-119121737D01*
X166660729Y-118995884D01*
X166451443Y-118909194D01*
X166229265Y-118865000D01*
X166002735Y-118865000D01*
X165780557Y-118909194D01*
X165571271Y-118995884D01*
X165382918Y-119121737D01*
X165288155Y-119216500D01*
X164403845Y-119216500D01*
X164309082Y-119121737D01*
X164120729Y-118995884D01*
X163911443Y-118909194D01*
X163689265Y-118865000D01*
X163462735Y-118865000D01*
X163240557Y-118909194D01*
X163031271Y-118995884D01*
X162842918Y-119121737D01*
X162748155Y-119216500D01*
X162158074Y-119216500D01*
X161426424Y-118455584D01*
X161452755Y-118429253D01*
X161529361Y-118314603D01*
X161582128Y-118187211D01*
X161609029Y-118051973D01*
X161609029Y-117914085D01*
X161609022Y-117914045D01*
X162494989Y-117914045D01*
X162494989Y-118051933D01*
X162521890Y-118187171D01*
X162574657Y-118314563D01*
X162651263Y-118429213D01*
X162748765Y-118526715D01*
X162863415Y-118603321D01*
X162990807Y-118656088D01*
X163126045Y-118682989D01*
X163263933Y-118682989D01*
X163399171Y-118656088D01*
X163526563Y-118603321D01*
X163641213Y-118526715D01*
X163738715Y-118429213D01*
X163815321Y-118314563D01*
X163868088Y-118187171D01*
X163894989Y-118051933D01*
X163894989Y-117914056D01*
X164654000Y-117914056D01*
X164654000Y-118051944D01*
X164680901Y-118187182D01*
X164733668Y-118314574D01*
X164810274Y-118429224D01*
X164907776Y-118526726D01*
X165022426Y-118603332D01*
X165149818Y-118656099D01*
X165285056Y-118683000D01*
X165422944Y-118683000D01*
X165558182Y-118656099D01*
X165685574Y-118603332D01*
X165800224Y-118526726D01*
X165897726Y-118429224D01*
X165974332Y-118314574D01*
X166027099Y-118187182D01*
X166054000Y-118051944D01*
X166054000Y-117914056D01*
X166027099Y-117778818D01*
X165974332Y-117651426D01*
X165897726Y-117536776D01*
X165800224Y-117439274D01*
X165685574Y-117362668D01*
X165558182Y-117309901D01*
X165422944Y-117283000D01*
X165285056Y-117283000D01*
X165149818Y-117309901D01*
X165022426Y-117362668D01*
X164907776Y-117439274D01*
X164810274Y-117536776D01*
X164733668Y-117651426D01*
X164680901Y-117778818D01*
X164654000Y-117914056D01*
X163894989Y-117914056D01*
X163894989Y-117914045D01*
X163868088Y-117778807D01*
X163815321Y-117651415D01*
X163738715Y-117536765D01*
X163641213Y-117439263D01*
X163526563Y-117362657D01*
X163399171Y-117309890D01*
X163263933Y-117282989D01*
X163126045Y-117282989D01*
X162990807Y-117309890D01*
X162863415Y-117362657D01*
X162748765Y-117439263D01*
X162651263Y-117536765D01*
X162574657Y-117651415D01*
X162521890Y-117778807D01*
X162494989Y-117914045D01*
X161609022Y-117914045D01*
X161582128Y-117778847D01*
X161529361Y-117651455D01*
X161452755Y-117536805D01*
X161355253Y-117439303D01*
X161240603Y-117362697D01*
X161113211Y-117309930D01*
X160977973Y-117283029D01*
X160840085Y-117283029D01*
X160704847Y-117309930D01*
X160577455Y-117362697D01*
X160462805Y-117439303D01*
X160455885Y-117446223D01*
X159012583Y-115945189D01*
X159009421Y-115942044D01*
X156437000Y-113495107D01*
X156437000Y-112241000D01*
X161584344Y-112241000D01*
X161555156Y-113408501D01*
G04 #@! TA.AperFunction,Conductor*
D26*
G36*
X161555156Y-113408501D02*
G01*
X161556590Y-113428052D01*
X161561809Y-113446947D01*
X161570616Y-113464462D01*
X161582669Y-113479921D01*
X161597507Y-113492732D01*
X161614560Y-113502403D01*
X161633171Y-113508560D01*
X161655125Y-113511000D01*
X163146919Y-113511000D01*
X163130000Y-113596056D01*
X163130000Y-113733944D01*
X163156901Y-113869182D01*
X163209668Y-113996574D01*
X163286274Y-114111224D01*
X163383776Y-114208726D01*
X163498426Y-114285332D01*
X163625818Y-114338099D01*
X163761056Y-114365000D01*
X163898944Y-114365000D01*
X164034182Y-114338099D01*
X164161574Y-114285332D01*
X164276224Y-114208726D01*
X164373726Y-114111224D01*
X164450332Y-113996574D01*
X164503099Y-113869182D01*
X164530000Y-113733944D01*
X164530000Y-113596056D01*
X164513081Y-113511000D01*
X166810147Y-113511000D01*
X166817591Y-113518261D01*
X167130491Y-113768581D01*
X168111500Y-114618789D01*
X168111500Y-117850031D01*
X168096922Y-117814836D01*
X168020316Y-117700186D01*
X167922814Y-117602684D01*
X167808164Y-117526078D01*
X167680772Y-117473311D01*
X167545534Y-117446410D01*
X167407646Y-117446410D01*
X167272408Y-117473311D01*
X167145016Y-117526078D01*
X167030366Y-117602684D01*
X166932864Y-117700186D01*
X166856258Y-117814836D01*
X166803491Y-117942228D01*
X166776590Y-118077466D01*
X166776590Y-118215354D01*
X166803491Y-118350592D01*
X166856258Y-118477984D01*
X166932864Y-118592634D01*
X167030366Y-118690136D01*
X167145016Y-118766742D01*
X167272408Y-118819509D01*
X167407646Y-118846410D01*
X167545534Y-118846410D01*
X167680772Y-118819509D01*
X167808164Y-118766742D01*
X167922814Y-118690136D01*
X168020316Y-118592634D01*
X168096922Y-118477984D01*
X168149689Y-118350592D01*
X168176590Y-118215354D01*
X168176590Y-118077466D01*
X168162393Y-118006095D01*
X168173232Y-118011888D01*
X168191991Y-118017579D01*
X168207833Y-118019433D01*
X168942075Y-118046378D01*
X168943379Y-118302031D01*
X168949139Y-118359027D01*
X168966211Y-118415305D01*
X168993934Y-118467171D01*
X169031243Y-118512632D01*
X169076704Y-118549941D01*
X169128570Y-118577664D01*
X169184848Y-118594736D01*
X169243375Y-118600500D01*
X169428533Y-118600500D01*
X169495528Y-118628250D01*
X169612413Y-118651500D01*
X169731587Y-118651500D01*
X169848472Y-118628250D01*
X169915467Y-118600500D01*
X170063533Y-118600500D01*
X170130528Y-118628250D01*
X170247413Y-118651500D01*
X170366587Y-118651500D01*
X170483472Y-118628250D01*
X170550467Y-118600500D01*
X170698533Y-118600500D01*
X170765528Y-118628250D01*
X170882413Y-118651500D01*
X171001587Y-118651500D01*
X171118472Y-118628250D01*
X171185467Y-118600500D01*
X171333533Y-118600500D01*
X171400528Y-118628250D01*
X171517413Y-118651500D01*
X171636587Y-118651500D01*
X171753472Y-118628250D01*
X171820467Y-118600500D01*
X172013563Y-118600500D01*
X172069987Y-118595146D01*
X172126385Y-118578477D01*
X172178448Y-118551125D01*
X172224174Y-118514142D01*
X172261807Y-118468948D01*
X172289900Y-118417282D01*
X172307373Y-118361127D01*
X172313555Y-118302643D01*
X172314501Y-118170136D01*
X175034802Y-118269964D01*
X175089871Y-121188600D01*
X172375500Y-121188600D01*
X172375500Y-120219549D01*
X172604337Y-120219549D01*
X172665987Y-120436395D01*
X172768757Y-120637047D01*
X172908698Y-120813794D01*
X173080431Y-120959844D01*
X173277357Y-121069584D01*
X173491909Y-121138797D01*
X173531451Y-121146662D01*
X173711000Y-121089709D01*
X173711000Y-120040000D01*
X173761000Y-120040000D01*
X173761000Y-121089709D01*
X173940549Y-121146662D01*
X173980091Y-121138797D01*
X174194643Y-121069584D01*
X174391569Y-120959844D01*
X174563302Y-120813794D01*
X174703243Y-120637047D01*
X174806013Y-120436395D01*
X174867663Y-120219549D01*
X174810729Y-120040000D01*
X173761000Y-120040000D01*
X173711000Y-120040000D01*
X172661271Y-120040000D01*
X172604337Y-120219549D01*
X172375500Y-120219549D01*
X172375500Y-119810451D01*
X172604337Y-119810451D01*
X172661271Y-119990000D01*
X173711000Y-119990000D01*
X173711000Y-118940291D01*
X173761000Y-118940291D01*
X173761000Y-119990000D01*
X174810729Y-119990000D01*
X174867663Y-119810451D01*
X174806013Y-119593605D01*
X174703243Y-119392953D01*
X174563302Y-119216206D01*
X174391569Y-119070156D01*
X174194643Y-118960416D01*
X173980091Y-118891203D01*
X173940549Y-118883338D01*
X173761000Y-118940291D01*
X173711000Y-118940291D01*
X173531451Y-118883338D01*
X173491909Y-118891203D01*
X173277357Y-118960416D01*
X173080431Y-119070156D01*
X172908698Y-119216206D01*
X172768757Y-119392953D01*
X172665987Y-119593605D01*
X172604337Y-119810451D01*
X172375500Y-119810451D01*
X172375500Y-119316500D01*
X172373579Y-119296991D01*
X172367888Y-119278232D01*
X172358647Y-119260943D01*
X172346211Y-119245789D01*
X172331057Y-119233353D01*
X172313768Y-119224112D01*
X172295009Y-119218421D01*
X172275500Y-119216500D01*
X172023845Y-119216500D01*
X171929082Y-119121737D01*
X171740729Y-118995884D01*
X171531443Y-118909194D01*
X171309265Y-118865000D01*
X171082735Y-118865000D01*
X170860557Y-118909194D01*
X170651271Y-118995884D01*
X170462918Y-119121737D01*
X170368155Y-119216500D01*
X169483845Y-119216500D01*
X169389082Y-119121737D01*
X169200729Y-118995884D01*
X168991443Y-118909194D01*
X168769265Y-118865000D01*
X168542735Y-118865000D01*
X168320557Y-118909194D01*
X168111271Y-118995884D01*
X167922918Y-119121737D01*
X167828155Y-119216500D01*
X166943845Y-119216500D01*
X166849082Y-119121737D01*
X166660729Y-118995884D01*
X166451443Y-118909194D01*
X166229265Y-118865000D01*
X166002735Y-118865000D01*
X165780557Y-118909194D01*
X165571271Y-118995884D01*
X165382918Y-119121737D01*
X165288155Y-119216500D01*
X164403845Y-119216500D01*
X164309082Y-119121737D01*
X164120729Y-118995884D01*
X163911443Y-118909194D01*
X163689265Y-118865000D01*
X163462735Y-118865000D01*
X163240557Y-118909194D01*
X163031271Y-118995884D01*
X162842918Y-119121737D01*
X162748155Y-119216500D01*
X162158074Y-119216500D01*
X161426424Y-118455584D01*
X161452755Y-118429253D01*
X161529361Y-118314603D01*
X161582128Y-118187211D01*
X161609029Y-118051973D01*
X161609029Y-117914085D01*
X161609022Y-117914045D01*
X162494989Y-117914045D01*
X162494989Y-118051933D01*
X162521890Y-118187171D01*
X162574657Y-118314563D01*
X162651263Y-118429213D01*
X162748765Y-118526715D01*
X162863415Y-118603321D01*
X162990807Y-118656088D01*
X163126045Y-118682989D01*
X163263933Y-118682989D01*
X163399171Y-118656088D01*
X163526563Y-118603321D01*
X163641213Y-118526715D01*
X163738715Y-118429213D01*
X163815321Y-118314563D01*
X163868088Y-118187171D01*
X163894989Y-118051933D01*
X163894989Y-117914056D01*
X164654000Y-117914056D01*
X164654000Y-118051944D01*
X164680901Y-118187182D01*
X164733668Y-118314574D01*
X164810274Y-118429224D01*
X164907776Y-118526726D01*
X165022426Y-118603332D01*
X165149818Y-118656099D01*
X165285056Y-118683000D01*
X165422944Y-118683000D01*
X165558182Y-118656099D01*
X165685574Y-118603332D01*
X165800224Y-118526726D01*
X165897726Y-118429224D01*
X165974332Y-118314574D01*
X166027099Y-118187182D01*
X166054000Y-118051944D01*
X166054000Y-117914056D01*
X166027099Y-117778818D01*
X165974332Y-117651426D01*
X165897726Y-117536776D01*
X165800224Y-117439274D01*
X165685574Y-117362668D01*
X165558182Y-117309901D01*
X165422944Y-117283000D01*
X165285056Y-117283000D01*
X165149818Y-117309901D01*
X165022426Y-117362668D01*
X164907776Y-117439274D01*
X164810274Y-117536776D01*
X164733668Y-117651426D01*
X164680901Y-117778818D01*
X164654000Y-117914056D01*
X163894989Y-117914056D01*
X163894989Y-117914045D01*
X163868088Y-117778807D01*
X163815321Y-117651415D01*
X163738715Y-117536765D01*
X163641213Y-117439263D01*
X163526563Y-117362657D01*
X163399171Y-117309890D01*
X163263933Y-117282989D01*
X163126045Y-117282989D01*
X162990807Y-117309890D01*
X162863415Y-117362657D01*
X162748765Y-117439263D01*
X162651263Y-117536765D01*
X162574657Y-117651415D01*
X162521890Y-117778807D01*
X162494989Y-117914045D01*
X161609022Y-117914045D01*
X161582128Y-117778847D01*
X161529361Y-117651455D01*
X161452755Y-117536805D01*
X161355253Y-117439303D01*
X161240603Y-117362697D01*
X161113211Y-117309930D01*
X160977973Y-117283029D01*
X160840085Y-117283029D01*
X160704847Y-117309930D01*
X160577455Y-117362697D01*
X160462805Y-117439303D01*
X160455885Y-117446223D01*
X159012583Y-115945189D01*
X159009421Y-115942044D01*
X156437000Y-113495107D01*
X156437000Y-112241000D01*
X161584344Y-112241000D01*
X161555156Y-113408501D01*
G37*
G04 #@! TD.AperFunction*
M02*
